SplineFontDB: 3.2
FontName: EvergrowSans-Bold
FullName: Evergrow Sans Bold
FamilyName: Evergrow Sans
Weight: Bold
Copyright: Copyright 2020 The Plus Jakarta Sans Project Authors (https://github.com/tokotype/PlusJakartaSans)\n\nModification Stijn de Vries (https://github.com/stijndevries/Eudoxus-Sans?tab=OFL-1.1-1-ov-file)\n\nModification TenWeb Inc. 2024\n\nThis Font Software is licensed under the SIL Open Font License, Version 1.1. (https://openfontlicense.org/open-font-license-official-text/)
Version: 1.000
ItalicAngle: 0
UnderlinePosition: -175
UnderlineWidth: 40
Ascent: 800
Descent: 200
InvalidEm: 0
sfntRevision: 0x00020147
LayerCount: 2
Layer: 0 1 "Back" 1
Layer: 1 1 "Fore" 0
XUID: [1021 212 447365028 16426616]
StyleMap: 0x0020
FSType: 0
OS2Version: 4
OS2_WeightWidthSlopeOnly: 0
OS2_UseTypoMetrics: 1
CreationTime: 1610050419
ModificationTime: 1723620966
PfmFamily: 81
TTFWeight: 700
TTFWidth: 5
LineGap: 0
VLineGap: 0
Panose: 0 0 0 0 0 0 0 0 0 0
OS2TypoAscent: 1038
OS2TypoAOffset: 0
OS2TypoDescent: -222
OS2TypoDOffset: 0
OS2TypoLinegap: 0
OS2WinAscent: 1214
OS2WinAOffset: 0
OS2WinDescent: 395
OS2WinDOffset: 0
HheadAscent: 1038
HheadAOffset: 0
HheadDescent: -222
HheadDOffset: 0
OS2SubXSize: 650
OS2SubYSize: 600
OS2SubXOff: 0
OS2SubYOff: 75
OS2SupXSize: 650
OS2SupYSize: 600
OS2SupXOff: 0
OS2SupYOff: 350
OS2StrikeYSize: 50
OS2StrikeYPos: 270
OS2CapHeight: 745
OS2XHeight: 544
OS2Vendor: 'UKWN'
OS2CodePages: 20000193.00000000
OS2UnicodeRanges: a10000ff.4000607b.00000000.00000000
Lookup: 1 0 0 "'aalt' Access All Alternates in Latin lookup 0" { "'aalt' Access All Alternates in Latin lookup 0 subtable"  } ['aalt' ('DFLT' <'dflt' > 'latn' <'AZE ' 'CAT ' 'CRT ' 'KAZ ' 'MOL ' 'ROM ' 'TAT ' 'TRK ' 'dflt' > ) ]
Lookup: 3 0 0 "'aalt' Access All Alternates in Latin lookup 1" { "'aalt' Access All Alternates in Latin lookup 1 subtable"  } ['aalt' ('DFLT' <'dflt' > 'latn' <'AZE ' 'CAT ' 'CRT ' 'KAZ ' 'MOL ' 'ROM ' 'TAT ' 'TRK ' 'dflt' > ) ]

StartChar: .notdef
Encoding: 65536 -1 0
Width: 600
GlyphClass: 1
Flags: W
LayerCount: 2
Fore
SplineSet
492 -240 m 1,0,-1
 112 -240 l 1,1,-1
 112 960 l 1,2,-1
 492 960 l 1,3,-1
 492 -240 l 1,0,-1
400 -157 m 1,4,-1
 400 -118 l 1,5,-1
 277 -118 l 1,6,-1
 361 -61 l 1,7,-1
 400 -61 l 1,8,-1
 400 -22 l 1,9,-1
 200 -22 l 1,10,-1
 200 -61 l 1,11,-1
 284 -61 l 1,12,-1
 200 -118 l 1,13,-1
 200 -157 l 1,14,-1
 400 -157 l 1,4,-1
400 6 m 1,15,-1
 400 142 l 1,16,-1
 200 142 l 1,17,-1
 200 6 l 1,18,-1
 400 6 l 1,15,-1
400 214 m 1,19,-1
 400 349 l 1,20,-1
 280 349 l 1,21,-1
 280 282 l 1,22,-1
 320 282 l 1,23,-1
 320 310 l 1,24,-1
 360 310 l 1,25,-1
 360 253 l 1,26,-1
 240 253 l 1,27,-1
 240 349 l 1,28,-1
 200 349 l 1,29,-1
 200 214 l 1,30,-1
 400 214 l 1,19,-1
400 376 m 1,31,-1
 400 496 l 1,32,-1
 360 496 l 1,33,-1
 360 416 l 1,34,-1
 200 416 l 1,35,-1
 200 376 l 1,36,-1
 400 376 l 1,31,-1
320 444 m 1,37,-1
 320 528 l 1,38,-1
 400 528 l 1,39,-1
 400 568 l 1,40,-1
 200 568 l 1,41,-1
 200 528 l 1,42,-1
 280 528 l 1,43,-1
 280 484 l 1,44,-1
 200 484 l 1,45,-1
 200 444 l 1,46,-1
 320 444 l 1,37,-1
400 600 m 1,47,-1
 400 641 l 1,48,-1
 320 641 l 1,49,-1
 320 725 l 1,50,-1
 200 725 l 1,51,-1
 200 600 l 1,52,-1
 400 600 l 1,47,-1
400 756 m 1,53,-1
 400 796 l 1,54,-1
 320 796 l 1,55,-1
 320 840 l 1,56,-1
 400 840 l 1,57,-1
 400 880 l 1,58,-1
 202 880 l 1,59,-1
 202 840 l 1,60,-1
 280 840 l 1,61,-1
 280 796 l 1,62,-1
 200 796 l 1,63,-1
 200 756 l 1,64,-1
 400 756 l 1,53,-1
240 102 m 1,65,-1
 360 102 l 1,66,-1
 360 46 l 1,67,-1
 240 46 l 1,68,-1
 240 102 l 1,65,-1
240 684 m 1,69,-1
 280 684 l 1,70,-1
 280 641 l 1,71,-1
 240 641 l 1,72,-1
 240 684 l 1,69,-1
EndSplineSet
Validated: 1
EndChar

StartChar: A
Encoding: 65 65 3
Width: 712
GlyphClass: 2
Flags: W
AnchorPoint: "Anchor-6" 356 745 basechar 0
AnchorPoint: "Anchor-5" 628 45 basechar 0
AnchorPoint: "Anchor-4" 356 0 basechar 0
LayerCount: 2
Fore
SplineSet
268 745 m 1,0,-1
 444 745 l 1,1,-1
 701 0 l 1,2,-1
 553 0 l 1,3,-1
 500 160 l 1,4,-1
 212 160 l 1,5,-1
 158 0 l 1,6,-1
 11 0 l 1,7,-1
 268 745 l 1,0,-1
461 280 m 1,8,-1
 356 594 l 1,9,-1
 251 280 l 1,10,-1
 461 280 l 1,8,-1
EndSplineSet
Validated: 1
Substitution2: "Single Substitution lookup 28 subtable" ordfeminine
Substitution2: "'aalt' Access All Alternates in Latin lookup 0 subtable" ordfeminine
Position2: "'cpsp' Capital Spacing in Latin lookup 0 subtable" dx=5 dy=0 dh=10 dv=0
EndChar

StartChar: Aogonek
Encoding: 260 260 24
Width: 712
GlyphClass: 2
Flags: W
AnchorPoint: "Anchor-6" 356 745 basechar 0
AnchorPoint: "Anchor-5" 628 45 basechar 0
AnchorPoint: "Anchor-4" 356 0 basechar 0
LayerCount: 2
Fore
SplineSet
268 745 m 1,0,-1
 444 745 l 1,1,-1
 701 0 l 1,2,-1
 612 0 l 1,3,4
 552 -25 552 -25 552 -65 c 0,5,6
 552 -86 552 -86 567.5 -98.5 c 128,-1,7
 583 -111 583 -111 612 -111 c 0,8,9
 655 -111 655 -111 699 -83 c 1,10,-1
 739 -151 l 1,11,12
 675 -202 675 -202 599 -202 c 0,13,14
 535 -202 535 -202 494 -172 c 128,-1,15
 453 -142 453 -142 453 -91 c 0,16,17
 453 -52 453 -52 477.5 -21 c 128,-1,18
 502 10 502 10 544 28 c 1,19,-1
 500 160 l 1,20,-1
 212 160 l 1,21,-1
 158 0 l 1,22,-1
 11 0 l 1,23,-1
 268 745 l 1,0,-1
461 280 m 1,24,-1
 356 594 l 1,25,-1
 251 280 l 1,26,-1
 461 280 l 1,24,-1
EndSplineSet
Validated: 1
Position2: "'cpsp' Capital Spacing in Latin lookup 0 subtable" dx=5 dy=0 dh=10 dv=0
EndChar

StartChar: AE
Encoding: 198 198 28
Width: 991
GlyphClass: 2
Flags: W
AnchorPoint: "Anchor-6" 496 745 basechar 0
AnchorPoint: "Anchor-4" 496 0 basechar 0
LayerCount: 2
Fore
SplineSet
268 745 m 1,0,-1
 964 745 l 1,1,-1
 964 625 l 1,2,-1
 604 625 l 1,3,-1
 604 434 l 1,4,-1
 944 434 l 1,5,-1
 944 314 l 1,6,-1
 604 314 l 1,7,-1
 604 120 l 1,8,-1
 964 120 l 1,9,-1
 963 0 l 1,10,-1
 468 0 l 1,11,-1
 468 160 l 1,12,-1
 212 160 l 1,13,-1
 158 0 l 1,14,-1
 11 0 l 1,15,-1
 268 745 l 1,0,-1
468 280 m 1,16,-1
 468 625 l 1,17,-1
 367 625 l 1,18,-1
 251 280 l 1,19,-1
 468 280 l 1,16,-1
EndSplineSet
Validated: 1
Position2: "'cpsp' Capital Spacing in Latin lookup 0 subtable" dx=5 dy=0 dh=10 dv=0
EndChar

StartChar: B
Encoding: 66 66 30
Width: 691
GlyphClass: 2
Flags: W
AnchorPoint: "Anchor-6" 346 745 basechar 0
AnchorPoint: "Anchor-4" 346 0 basechar 0
LayerCount: 2
Fore
SplineSet
72 745 m 1,0,-1
 386 745 l 2,1,2
 496 745 496 745 559 689 c 128,-1,3
 622 633 622 633 622 535 c 0,4,5
 622 455 622 455 562 401 c 1,6,7
 652 343 652 343 652 228 c 0,8,9
 652 121 652 121 581.5 60.5 c 128,-1,10
 511 0 511 0 386 0 c 2,11,-1
 72 0 l 1,12,-1
 72 745 l 1,0,-1
400 120 m 2,13,14
 452 120 452 120 484 149.5 c 128,-1,15
 516 179 516 179 516 228 c 256,16,17
 516 277 516 277 484.5 307 c 128,-1,18
 453 337 453 337 400 337 c 2,19,-1
 208 337 l 1,20,-1
 208 120 l 1,21,-1
 400 120 l 2,13,14
393 456 m 2,22,23
 435 456 435 456 460 480.5 c 128,-1,24
 485 505 485 505 485 544 c 256,25,26
 485 583 485 583 460 606 c 128,-1,27
 435 629 435 629 393 629 c 2,28,-1
 208 629 l 1,29,-1
 208 456 l 1,30,-1
 393 456 l 2,22,23
EndSplineSet
Validated: 1
Position2: "'cpsp' Capital Spacing in Latin lookup 0 subtable" dx=5 dy=0 dh=10 dv=0
EndChar

StartChar: C
Encoding: 67 67 31
Width: 774
GlyphClass: 2
Flags: W
AnchorPoint: "Anchor-6" 387 745 basechar 0
AnchorPoint: "Anchor-4" 387 0 basechar 0
LayerCount: 2
Fore
SplineSet
232 38 m 128,-1,1
 147 88 147 88 98.5 176 c 128,-1,2
 50 264 50 264 50 373 c 256,3,4
 50 482 50 482 98.5 570 c 128,-1,5
 147 658 147 658 231.5 707.5 c 128,-1,6
 316 757 316 757 422 757 c 0,7,8
 499 757 499 757 563 730.5 c 128,-1,9
 627 704 627 704 671.5 659.5 c 128,-1,10
 716 615 716 615 736 561 c 1,11,-1
 614 504 l 1,12,13
 592 562 592 562 541 597.5 c 128,-1,14
 490 633 490 633 422 633 c 0,15,16
 353 633 353 633 299 600.5 c 128,-1,17
 245 568 245 568 215.5 509 c 128,-1,18
 186 450 186 450 186 373 c 256,19,20
 186 296 186 296 215.5 236.5 c 128,-1,21
 245 177 245 177 299 144.5 c 128,-1,22
 353 112 353 112 422 112 c 0,23,24
 490 112 490 112 541 147.5 c 128,-1,25
 592 183 592 183 614 241 c 1,26,-1
 736 184 l 1,27,28
 716 130 716 130 671.5 85.5 c 128,-1,29
 627 41 627 41 563 14.5 c 128,-1,30
 499 -12 499 -12 422 -12 c 0,31,0
 317 -12 317 -12 232 38 c 128,-1,1
EndSplineSet
Validated: 1
Position2: "'cpsp' Capital Spacing in Latin lookup 0 subtable" dx=5 dy=0 dh=10 dv=0
EndChar

StartChar: Ccedilla
Encoding: 199 199 34
Width: 774
GlyphClass: 2
Flags: W
AnchorPoint: "Anchor-4" 387 0 basechar 0
LayerCount: 2
Fore
SplineSet
298 -240 m 1,1,-1
 310 -172 l 1,2,3
 334 -181 334 -181 372 -181 c 0,4,5
 396 -181 396 -181 409.5 -172.5 c 128,-1,6
 423 -164 423 -164 423 -148 c 0,7,8
 423 -135 423 -135 414.5 -127.5 c 128,-1,9
 406 -120 406 -120 390 -120 c 0,10,11
 366 -120 366 -120 351 -125 c 1,12,-1
 328 -114 l 1,13,-1
 342 -4 l 1,14,15
 257 13 257 13 190.5 66 c 128,-1,16
 124 119 124 119 87 198.5 c 128,-1,17
 50 278 50 278 50 373 c 0,18,19
 50 482 50 482 98.5 570 c 128,-1,20
 147 658 147 658 231.5 707.5 c 128,-1,21
 316 757 316 757 422 757 c 0,22,23
 499 757 499 757 563 730.5 c 128,-1,24
 627 704 627 704 671.5 659.5 c 128,-1,25
 716 615 716 615 736 561 c 1,26,-1
 614 504 l 1,27,28
 592 562 592 562 541 597.5 c 128,-1,29
 490 633 490 633 422 633 c 0,30,31
 353 633 353 633 299 600.5 c 128,-1,32
 245 568 245 568 215.5 509 c 128,-1,33
 186 450 186 450 186 373 c 256,34,35
 186 296 186 296 215.5 236.5 c 128,-1,36
 245 177 245 177 299 144.5 c 128,-1,37
 353 112 353 112 422 112 c 0,38,39
 490 112 490 112 541 147.5 c 128,-1,40
 592 183 592 183 614 241 c 1,41,-1
 736 184 l 1,42,43
 717 131 717 131 673.5 87 c 128,-1,44
 630 43 630 43 567 16 c 128,-1,45
 504 -11 504 -11 429 -12 c 1,46,-1
 425 -62 l 1,47,48
 430 -61 430 -61 440 -61 c 0,49,50
 479 -61 479 -61 504 -84 c 128,-1,51
 529 -107 529 -107 529 -145 c 0,52,53
 529 -191 529 -191 491 -221 c 128,-1,54
 453 -251 453 -251 382 -251 c 0,55,0
 334 -251 334 -251 298 -240 c 1,1,-1
EndSplineSet
Validated: 1
Position2: "'cpsp' Capital Spacing in Latin lookup 0 subtable" dx=5 dy=0 dh=10 dv=0
EndChar

StartChar: uni1E08
Encoding: 7688 7688 35
Width: 774
GlyphClass: 2
Flags: W
AnchorPoint: "Anchor-4" 387 0 basechar 0
LayerCount: 2
Fore
SplineSet
298 -240 m 1,1,-1
 310 -172 l 1,2,3
 334 -181 334 -181 372 -181 c 0,4,5
 396 -181 396 -181 409.5 -172.5 c 128,-1,6
 423 -164 423 -164 423 -148 c 0,7,8
 423 -135 423 -135 414.5 -127.5 c 128,-1,9
 406 -120 406 -120 390 -120 c 0,10,11
 366 -120 366 -120 351 -125 c 1,12,-1
 328 -114 l 1,13,-1
 342 -4 l 1,14,15
 257 13 257 13 190.5 66 c 128,-1,16
 124 119 124 119 87 198.5 c 128,-1,17
 50 278 50 278 50 373 c 0,18,19
 50 482 50 482 98.5 570 c 128,-1,20
 147 658 147 658 231.5 707.5 c 128,-1,21
 316 757 316 757 422 757 c 0,22,23
 499 757 499 757 563 730.5 c 128,-1,24
 627 704 627 704 671.5 659.5 c 128,-1,25
 716 615 716 615 736 561 c 1,26,-1
 614 504 l 1,27,28
 592 562 592 562 541 597.5 c 128,-1,29
 490 633 490 633 422 633 c 0,30,31
 353 633 353 633 299 600.5 c 128,-1,32
 245 568 245 568 215.5 509 c 128,-1,33
 186 450 186 450 186 373 c 256,34,35
 186 296 186 296 215.5 236.5 c 128,-1,36
 245 177 245 177 299 144.5 c 128,-1,37
 353 112 353 112 422 112 c 0,38,39
 490 112 490 112 541 147.5 c 128,-1,40
 592 183 592 183 614 241 c 1,41,-1
 736 184 l 1,42,43
 717 131 717 131 673.5 87 c 128,-1,44
 630 43 630 43 567 16 c 128,-1,45
 504 -11 504 -11 429 -12 c 1,46,-1
 425 -62 l 1,47,48
 430 -61 430 -61 440 -61 c 0,49,50
 479 -61 479 -61 504 -84 c 128,-1,51
 529 -107 529 -107 529 -145 c 0,52,53
 529 -191 529 -191 491 -221 c 128,-1,54
 453 -251 453 -251 382 -251 c 0,55,0
 334 -251 334 -251 298 -240 c 1,1,-1
393 986 m 1,56,-1
 540 986 l 1,57,-1
 444 842 l 1,58,-1
 330 842 l 1,59,-1
 393 986 l 1,56,-1
EndSplineSet
Validated: 1
Position2: "'cpsp' Capital Spacing in Latin lookup 0 subtable" dx=5 dy=0 dh=10 dv=0
EndChar

StartChar: D
Encoding: 68 68 38
Width: 740
GlyphClass: 2
Flags: W
AnchorPoint: "Anchor-6" 377 745 basechar 0
AnchorPoint: "Anchor-4" 377 0 basechar 0
LayerCount: 2
Fore
SplineSet
72 745 m 1,0,-1
 315 745 l 2,1,2
 432 745 432 745 520 698 c 128,-1,3
 608 651 608 651 656 566.5 c 128,-1,4
 704 482 704 482 704 373 c 0,5,6
 704 265 704 265 656 180 c 128,-1,7
 608 95 608 95 519.5 47.5 c 128,-1,8
 431 0 431 0 315 0 c 2,9,-1
 72 0 l 1,10,-1
 72 745 l 1,0,-1
318 120 m 2,11,12
 393 120 393 120 449.5 151 c 128,-1,13
 506 182 506 182 536.5 239.5 c 128,-1,14
 567 297 567 297 567 373 c 256,15,16
 567 449 567 449 536.5 506 c 128,-1,17
 506 563 506 563 449.5 594 c 128,-1,18
 393 625 393 625 318 625 c 2,19,-1
 208 625 l 1,20,-1
 208 120 l 1,21,-1
 318 120 l 2,11,12
EndSplineSet
Validated: 1
Position2: "'cpsp' Capital Spacing in Latin lookup 0 subtable" dx=5 dy=0 dh=10 dv=0
EndChar

StartChar: uni01C4
Encoding: 452 452 39
Width: 1311
GlyphClass: 1
Flags: W
LayerCount: 2
Fore
SplineSet
72 745 m 1,0,-1
 315 745 l 2,1,2
 432 745 432 745 520 698 c 128,-1,3
 608 651 608 651 656 566.5 c 128,-1,4
 704 482 704 482 704 373 c 0,5,6
 704 265 704 265 656 180 c 128,-1,7
 608 95 608 95 519.5 47.5 c 128,-1,8
 431 0 431 0 315 0 c 2,9,-1
 72 0 l 1,10,-1
 72 745 l 1,0,-1
318 120 m 2,11,12
 393 120 393 120 449.5 151 c 128,-1,13
 506 182 506 182 536.5 239.5 c 128,-1,14
 567 297 567 297 567 373 c 256,15,16
 567 449 567 449 536.5 506 c 128,-1,17
 506 563 506 563 449.5 594 c 128,-1,18
 393 625 393 625 318 625 c 2,19,-1
 208 625 l 1,20,-1
 208 120 l 1,21,-1
 318 120 l 2,11,12
754 107 m 1,22,-1
 1114 625 l 1,23,-1
 775 625 l 1,24,-1
 775 745 l 1,25,-1
 1288 745 l 1,26,-1
 1288 638 l 1,27,-1
 928 120 l 1,28,-1
 1297 120 l 1,29,-1
 1297 0 l 1,30,-1
 754 0 l 1,31,-1
 754 107 l 1,22,-1
960 986 m 1,32,-1
 1026 907 l 1,33,-1
 1094 986 l 1,34,-1
 1213 986 l 1,35,-1
 1093 842 l 1,36,-1
 957 842 l 1,37,-1
 838 986 l 1,38,-1
 960 986 l 1,32,-1
EndSplineSet
Validated: 1
Position2: "'cpsp' Capital Spacing in Latin lookup 0 subtable" dx=5 dy=0 dh=10 dv=0
EndChar

StartChar: Eth
Encoding: 208 208 40
Width: 740
GlyphClass: 2
Flags: W
AnchorPoint: "Anchor-6" 377 745 basechar 0
AnchorPoint: "Anchor-4" 377 0 basechar 0
LayerCount: 2
Fore
SplineSet
72 331 m 1,0,-1
 -23 331 l 1,1,-1
 -23 415 l 1,2,-1
 72 415 l 1,3,-1
 72 745 l 1,4,-1
 315 745 l 2,5,6
 432 745 432 745 520 698 c 128,-1,7
 608 651 608 651 656 566.5 c 128,-1,8
 704 482 704 482 704 373 c 0,9,10
 704 265 704 265 656 180 c 128,-1,11
 608 95 608 95 519.5 47.5 c 128,-1,12
 431 0 431 0 315 0 c 2,13,-1
 72 0 l 1,14,-1
 72 331 l 1,0,-1
318 120 m 2,15,16
 393 120 393 120 449.5 151 c 128,-1,17
 506 182 506 182 536.5 239.5 c 128,-1,18
 567 297 567 297 567 373 c 256,19,20
 567 449 567 449 536.5 506 c 128,-1,21
 506 563 506 563 449.5 594 c 128,-1,22
 393 625 393 625 318 625 c 2,23,-1
 208 625 l 1,24,-1
 208 415 l 1,25,-1
 403 415 l 1,26,-1
 403 331 l 1,27,-1
 208 331 l 1,28,-1
 208 120 l 1,29,-1
 318 120 l 2,15,16
EndSplineSet
Validated: 1
Position2: "'cpsp' Capital Spacing in Latin lookup 0 subtable" dx=5 dy=0 dh=10 dv=0
EndChar

StartChar: uni01C5
Encoding: 453 453 45
Width: 1221
GlyphClass: 1
Flags: W
LayerCount: 2
Fore
SplineSet
72 745 m 1,0,-1
 315 745 l 2,1,2
 432 745 432 745 520 698 c 128,-1,3
 608 651 608 651 656 566.5 c 128,-1,4
 704 482 704 482 704 373 c 0,5,6
 704 265 704 265 656 180 c 128,-1,7
 608 95 608 95 519.5 47.5 c 128,-1,8
 431 0 431 0 315 0 c 2,9,-1
 72 0 l 1,10,-1
 72 745 l 1,0,-1
318 120 m 2,11,12
 393 120 393 120 449.5 151 c 128,-1,13
 506 182 506 182 536.5 239.5 c 128,-1,14
 567 297 567 297 567 373 c 256,15,16
 567 449 567 449 536.5 506 c 128,-1,17
 506 563 506 563 449.5 594 c 128,-1,18
 393 625 393 625 318 625 c 2,19,-1
 208 625 l 1,20,-1
 208 120 l 1,21,-1
 318 120 l 2,11,12
754 106 m 1,22,-1
 1031 427 l 1,23,-1
 768 427 l 1,24,-1
 768 544 l 1,25,-1
 1206 544 l 1,26,-1
 1206 437 l 1,27,-1
 934 116 l 1,28,-1
 1207 116 l 1,29,-1
 1207 0 l 1,30,-1
 754 0 l 1,31,-1
 754 106 l 1,22,-1
917 784 m 1,32,-1
 984 705 l 1,33,-1
 1051 784 l 1,34,-1
 1171 784 l 1,35,-1
 1051 640 l 1,36,-1
 915 640 l 1,37,-1
 795 784 l 1,38,-1
 917 784 l 1,32,-1
EndSplineSet
Validated: 1
Position2: "'cpsp' Capital Spacing in Latin lookup 0 subtable" dx=5 dy=0 dh=10 dv=0
EndChar

StartChar: E
Encoding: 69 69 46
Width: 595
GlyphClass: 2
Flags: W
AnchorPoint: "Anchor-6" 320 745 basechar 0
AnchorPoint: "Anchor-5" 467 45 basechar 0
AnchorPoint: "Anchor-4" 320 0 basechar 0
LayerCount: 2
Fore
SplineSet
72 745 m 1,0,-1
 567 745 l 1,1,-1
 567 625 l 1,2,-1
 208 625 l 1,3,-1
 208 434 l 1,4,-1
 547 434 l 1,5,-1
 547 314 l 1,6,-1
 208 314 l 1,7,-1
 208 120 l 1,8,-1
 567 120 l 1,9,-1
 567 0 l 1,10,-1
 72 0 l 1,11,-1
 72 745 l 1,0,-1
EndSplineSet
Validated: 1
Position2: "'cpsp' Capital Spacing in Latin lookup 0 subtable" dx=5 dy=0 dh=10 dv=0
EndChar

StartChar: Eogonek
Encoding: 280 280 67
Width: 595
GlyphClass: 2
Flags: W
AnchorPoint: "Anchor-6" 320 745 basechar 0
AnchorPoint: "Anchor-5" 467 45 basechar 0
AnchorPoint: "Anchor-4" 320 0 basechar 0
LayerCount: 2
Fore
SplineSet
72 745 m 1,0,-1
 567 745 l 1,1,-1
 567 625 l 1,2,-1
 208 625 l 1,3,-1
 208 434 l 1,4,-1
 547 434 l 1,5,-1
 547 314 l 1,6,-1
 208 314 l 1,7,-1
 208 120 l 1,8,-1
 567 120 l 1,9,-1
 567 0 l 1,10,-1
 451 0 l 1,11,12
 391 -25 391 -25 391 -65 c 0,13,14
 391 -86 391 -86 406.5 -98.5 c 128,-1,15
 422 -111 422 -111 451 -111 c 0,16,17
 494 -111 494 -111 538 -83 c 1,18,-1
 578 -151 l 1,19,20
 514 -202 514 -202 438 -202 c 0,21,22
 374 -202 374 -202 333 -172 c 128,-1,23
 292 -142 292 -142 292 -91 c 0,24,25
 292 -39 292 -39 336 0 c 1,26,-1
 72 0 l 1,27,-1
 72 745 l 1,0,-1
EndSplineSet
Validated: 1
Position2: "'cpsp' Capital Spacing in Latin lookup 0 subtable" dx=5 dy=0 dh=10 dv=0
EndChar

StartChar: F
Encoding: 70 70 69
Width: 586
GlyphClass: 2
Flags: W
AnchorPoint: "Anchor-6" 293 745 basechar 0
AnchorPoint: "Anchor-4" 293 0 basechar 0
LayerCount: 2
Fore
SplineSet
72 745 m 1,0,-1
 569 745 l 1,1,-1
 569 625 l 1,2,-1
 208 625 l 1,3,-1
 208 419 l 1,4,-1
 524 419 l 1,5,-1
 524 299 l 1,6,-1
 208 299 l 1,7,-1
 208 0 l 1,8,-1
 72 0 l 1,9,-1
 72 745 l 1,0,-1
EndSplineSet
Validated: 1
Position2: "'cpsp' Capital Spacing in Latin lookup 0 subtable" dx=5 dy=0 dh=10 dv=0
EndChar

StartChar: G
Encoding: 71 71 70
Width: 808
GlyphClass: 2
Flags: W
AnchorPoint: "Anchor-6" 404 745 basechar 0
AnchorPoint: "Anchor-4" 404 0 basechar 0
LayerCount: 2
Fore
SplineSet
234 38 m 128,-1,1
 148 88 148 88 99 176 c 128,-1,2
 50 264 50 264 50 373 c 256,3,4
 50 482 50 482 98.5 570 c 128,-1,5
 147 658 147 658 231.5 707.5 c 128,-1,6
 316 757 316 757 422 757 c 0,7,8
 499 757 499 757 563 730.5 c 128,-1,9
 627 704 627 704 671.5 659.5 c 128,-1,10
 716 615 716 615 736 561 c 1,11,-1
 615 503 l 1,12,13
 593 562 593 562 542.5 597.5 c 128,-1,14
 492 633 492 633 422 633 c 0,15,16
 353 633 353 633 299 600.5 c 128,-1,17
 245 568 245 568 215.5 509 c 128,-1,18
 186 450 186 450 186 373 c 256,19,20
 186 296 186 296 216.5 236.5 c 128,-1,21
 247 177 247 177 301.5 144.5 c 128,-1,22
 356 112 356 112 425 112 c 0,23,24
 482 112 482 112 530.5 135 c 128,-1,25
 579 158 579 158 607.5 200 c 128,-1,26
 636 242 636 242 636 297 c 2,27,-1
 636 300 l 1,28,-1
 422 300 l 1,29,-1
 422 415 l 1,30,-1
 772 415 l 1,31,-1
 772 340 l 2,32,33
 772 229 772 229 723.5 149.5 c 128,-1,34
 675 70 675 70 595.5 29 c 128,-1,35
 516 -12 516 -12 425 -12 c 0,36,0
 320 -12 320 -12 234 38 c 128,-1,1
EndSplineSet
Validated: 1
Substitution2: "'ss03' Style Set 3 in Latin lookup 22 subtable" G.ss03
Substitution2: "'ss01' Style Set 1 in Latin lookup 20 subtable" G.ss01
Substitution2: "'salt' Stylistic Alternatives in Latin lookup 19 subtable" G.ss01
AlternateSubs2: "'aalt' Access All Alternates in Latin lookup 1 subtable" G.ss01 G.ss03
Position2: "'cpsp' Capital Spacing in Latin lookup 0 subtable" dx=5 dy=0 dh=10 dv=0
EndChar

StartChar: G.ss01
Encoding: 65537 -1 71
Width: 789
GlyphClass: 2
Flags: W
AnchorPoint: "Anchor-6" 413 745 basechar 0
AnchorPoint: "Anchor-4" 394 0 basechar 0
LayerCount: 2
Fore
SplineSet
225 38 m 128,-1,1
 139 88 139 88 89.5 176 c 128,-1,2
 40 264 40 264 40 373 c 256,3,4
 40 482 40 482 88.5 570 c 128,-1,5
 137 658 137 658 222 707.5 c 128,-1,6
 307 757 307 757 413 757 c 0,7,8
 489 757 489 757 553.5 730.5 c 128,-1,9
 618 704 618 704 662.5 659.5 c 128,-1,10
 707 615 707 615 727 561 c 1,11,-1
 606 503 l 1,12,13
 584 562 584 562 533.5 597.5 c 128,-1,14
 483 633 483 633 413 633 c 0,15,16
 344 633 344 633 290 600.5 c 128,-1,17
 236 568 236 568 206.5 509 c 128,-1,18
 177 450 177 450 177 373 c 256,19,20
 177 296 177 296 207.5 236.5 c 128,-1,21
 238 177 238 177 292.5 144.5 c 128,-1,22
 347 112 347 112 416 112 c 0,23,24
 473 112 473 112 521.5 134.5 c 128,-1,25
 570 157 570 157 598.5 199 c 128,-1,26
 627 241 627 241 627 296 c 2,27,-1
 627 300 l 1,28,-1
 413 300 l 1,29,-1
 413 415 l 1,30,-1
 753 415 l 1,31,-1
 753 0 l 1,32,-1
 630 0 l 1,33,-1
 630 74 l 1,34,35
 588 31 588 31 532.5 9.5 c 128,-1,36
 477 -12 477 -12 416 -12 c 0,37,0
 311 -12 311 -12 225 38 c 128,-1,1
EndSplineSet
Validated: 1
Position2: "'cpsp' Capital Spacing in Latin lookup 0 subtable" dx=5 dy=0 dh=10 dv=0
EndChar

StartChar: G.ss03
Encoding: 65538 -1 72
Width: 793
GlyphClass: 2
Flags: W
AnchorPoint: "Anchor-6" 420 745 basechar 0
AnchorPoint: "Anchor-4" 397 0 basechar 0
LayerCount: 2
Fore
SplineSet
237 37.5 m 128,-1,1
 150 87 150 87 100 175.5 c 128,-1,2
 50 264 50 264 50 375 c 0,3,4
 50 483 50 483 98 570.5 c 128,-1,5
 146 658 146 658 231 707.5 c 128,-1,6
 316 757 316 757 421 757 c 0,7,8
 498 757 498 757 562.5 730.5 c 128,-1,9
 627 704 627 704 671.5 659.5 c 128,-1,10
 716 615 716 615 736 561 c 1,11,-1
 615 503 l 1,12,13
 593 563 593 563 542.5 598 c 128,-1,14
 492 633 492 633 421 633 c 0,15,16
 353 633 353 633 299.5 600.5 c 128,-1,17
 246 568 246 568 216 509.5 c 128,-1,18
 186 451 186 451 186 374 c 0,19,20
 186 293 186 293 218.5 234 c 128,-1,21
 251 175 251 175 307 143.5 c 128,-1,22
 363 112 363 112 431 112 c 0,23,24
 496 112 496 112 551.5 139.5 c 128,-1,25
 607 167 607 167 635 216 c 1,26,-1
 635 300 l 1,27,-1
 422 300 l 1,28,-1
 422 415 l 1,29,-1
 762 415 l 1,30,-1
 762 175 l 1,31,32
 715 83 715 83 625 35.5 c 128,-1,33
 535 -12 535 -12 430 -12 c 0,34,0
 324 -12 324 -12 237 37.5 c 128,-1,1
EndSplineSet
Validated: 1
Position2: "'cpsp' Capital Spacing in Latin lookup 0 subtable" dx=5 dy=0 dh=10 dv=0
EndChar

StartChar: H
Encoding: 72 72 91
Width: 733
GlyphClass: 2
Flags: W
AnchorPoint: "Anchor-6" 367 745 basechar 0
AnchorPoint: "Anchor-4" 367 0 basechar 0
LayerCount: 2
Fore
SplineSet
72 745 m 1,0,-1
 208 745 l 1,1,-1
 208 420 l 1,2,-1
 525 420 l 1,3,-1
 525 745 l 1,4,-1
 662 745 l 1,5,-1
 662 0 l 1,6,-1
 525 0 l 1,7,-1
 525 300 l 1,8,-1
 208 300 l 1,9,-1
 208 0 l 1,10,-1
 72 0 l 1,11,-1
 72 745 l 1,0,-1
EndSplineSet
Validated: 1
Position2: "'cpsp' Capital Spacing in Latin lookup 0 subtable" dx=5 dy=0 dh=10 dv=0
EndChar

StartChar: Hbar
Encoding: 294 294 92
Width: 733
GlyphClass: 2
Flags: W
AnchorPoint: "Anchor-6" 367 745 basechar 0
AnchorPoint: "Anchor-4" 367 0 basechar 0
LayerCount: 2
Fore
SplineSet
72 553 m 1,0,-1
 -14 553 l 1,1,-1
 -14 637 l 1,2,-1
 72 637 l 1,3,-1
 72 745 l 1,4,-1
 208 745 l 1,5,-1
 208 637 l 1,6,-1
 525 637 l 1,7,-1
 525 745 l 1,8,-1
 662 745 l 1,9,-1
 662 637 l 1,10,-1
 747 637 l 1,11,-1
 747 553 l 1,12,-1
 662 553 l 1,13,-1
 662 0 l 1,14,-1
 525 0 l 1,15,-1
 525 300 l 1,16,-1
 208 300 l 1,17,-1
 208 0 l 1,18,-1
 72 0 l 1,19,-1
 72 553 l 1,0,-1
525 420 m 1,20,-1
 525 553 l 1,21,-1
 208 553 l 1,22,-1
 208 420 l 1,23,-1
 525 420 l 1,20,-1
EndSplineSet
Validated: 1
Position2: "'cpsp' Capital Spacing in Latin lookup 0 subtable" dx=5 dy=0 dh=10 dv=0
EndChar

StartChar: I
Encoding: 73 73 96
Width: 279
GlyphClass: 2
Flags: W
AnchorPoint: "Anchor-6" 140 745 basechar 0
AnchorPoint: "Anchor-5" 140 45 basechar 0
AnchorPoint: "Anchor-4" 140 0 basechar 0
LayerCount: 2
Fore
SplineSet
72 745 m 1,0,-1
 208 745 l 1,1,-1
 208 0 l 1,2,-1
 72 0 l 1,3,-1
 72 745 l 1,0,-1
EndSplineSet
Validated: 1
Substitution2: "'ss01' Style Set 1 in Latin lookup 20 subtable" I.ss01
Substitution2: "'salt' Stylistic Alternatives in Latin lookup 19 subtable" I.ss01
Substitution2: "'aalt' Access All Alternates in Latin lookup 0 subtable" I.ss01
Position2: "'cpsp' Capital Spacing in Latin lookup 0 subtable" dx=5 dy=0 dh=10 dv=0
EndChar

StartChar: I.ss01
Encoding: 65551 -1 97
Width: 481
GlyphClass: 2
Flags: W
AnchorPoint: "Anchor-6" 241 745 basechar 0
AnchorPoint: "Anchor-5" 241 45 basechar 0
AnchorPoint: "Anchor-4" 241 0 basechar 0
LayerCount: 2
Fore
SplineSet
58 119 m 1,0,-1
 173 119 l 1,1,-1
 173 626 l 1,2,-1
 58 626 l 1,3,-1
 58 745 l 1,4,-1
 424 745 l 1,5,-1
 424 626 l 1,6,-1
 309 626 l 1,7,-1
 309 119 l 1,8,-1
 424 119 l 1,9,-1
 424 0 l 1,10,-1
 58 0 l 1,11,-1
 58 119 l 1,0,-1
EndSplineSet
Validated: 1
Position2: "'cpsp' Capital Spacing in Latin lookup 0 subtable" dx=5 dy=0 dh=10 dv=0
EndChar

StartChar: Iogonek
Encoding: 302 302 122
Width: 279
GlyphClass: 2
Flags: W
AnchorPoint: "Anchor-6" 140 745 basechar 0
AnchorPoint: "Anchor-5" 140 45 basechar 0
AnchorPoint: "Anchor-4" 140 0 basechar 0
LayerCount: 2
Fore
SplineSet
5.5 -172 m 128,-1,1
 -36 -142 -36 -142 -36 -91 c 0,2,3
 -36 -48 -36 -48 -6.5 -14.5 c 128,-1,4
 23 19 23 19 72 35 c 1,5,-1
 72 745 l 1,6,-1
 208 745 l 1,7,-1
 208 0 l 1,8,-1
 124 0 l 1,9,10
 64 -25 64 -25 64 -65 c 0,11,12
 64 -86 64 -86 79.5 -98.5 c 128,-1,13
 95 -111 95 -111 124 -111 c 0,14,15
 167 -111 167 -111 211 -83 c 1,16,-1
 251 -151 l 1,17,18
 187 -202 187 -202 111 -202 c 0,19,0
 47 -202 47 -202 5.5 -172 c 128,-1,1
EndSplineSet
Validated: 1
Substitution2: "'ss01' Style Set 1 in Latin lookup 20 subtable" Iogonek.ss01
Substitution2: "'salt' Stylistic Alternatives in Latin lookup 19 subtable" Iogonek.ss01
Substitution2: "'aalt' Access All Alternates in Latin lookup 0 subtable" Iogonek.ss01
Position2: "'cpsp' Capital Spacing in Latin lookup 0 subtable" dx=5 dy=0 dh=10 dv=0
EndChar

StartChar: Iogonek.ss01
Encoding: 65564 -1 123
Width: 481
GlyphClass: 2
Flags: W
AnchorPoint: "Anchor-6" 241 745 basechar 0
AnchorPoint: "Anchor-5" 241 45 basechar 0
AnchorPoint: "Anchor-4" 241 0 basechar 0
LayerCount: 2
Fore
SplineSet
58 119 m 1,0,-1
 173 119 l 1,1,-1
 173 626 l 1,2,-1
 58 626 l 1,3,-1
 58 745 l 1,4,-1
 424 745 l 1,5,-1
 424 626 l 1,6,-1
 309 626 l 1,7,-1
 309 119 l 1,8,-1
 424 119 l 1,9,-1
 424 0 l 1,10,-1
 225 0 l 1,11,12
 165 -25 165 -25 165 -65 c 0,13,14
 165 -86 165 -86 180.5 -98.5 c 128,-1,15
 196 -111 196 -111 225 -111 c 0,16,17
 268 -111 268 -111 312 -83 c 1,18,-1
 352 -151 l 1,19,20
 288 -202 288 -202 212 -202 c 0,21,22
 148 -202 148 -202 107 -172 c 128,-1,23
 66 -142 66 -142 66 -91 c 0,24,25
 66 -39 66 -39 110 0 c 1,26,-1
 58 0 l 1,27,-1
 58 119 l 1,0,-1
EndSplineSet
Validated: 1
Position2: "'cpsp' Capital Spacing in Latin lookup 0 subtable" dx=5 dy=0 dh=10 dv=0
EndChar

StartChar: J
Encoding: 74 74 126
Width: 393
GlyphClass: 2
Flags: W
AnchorPoint: "Anchor-6" 256 745 basechar 0
AnchorPoint: "Anchor-4" 208 0 basechar 0
LayerCount: 2
Fore
SplineSet
39 125 m 1,0,-1
 82 125 l 2,1,2
 130 125 130 125 158.5 152.5 c 128,-1,3
 187 180 187 180 187 226 c 2,4,-1
 187 745 l 1,5,-1
 324 745 l 1,6,-1
 324 231 l 2,7,8
 324 162 324 162 294.5 109.5 c 128,-1,9
 265 57 265 57 210 28.5 c 128,-1,10
 155 0 155 0 82 0 c 2,11,-1
 39 0 l 1,12,-1
 39 125 l 1,0,-1
EndSplineSet
Validated: 1
Substitution2: "'ss03' Style Set 3 in Latin lookup 22 subtable" J.ss03
Substitution2: "'aalt' Access All Alternates in Latin lookup 0 subtable" J.ss03
Position2: "'cpsp' Capital Spacing in Latin lookup 0 subtable" dx=5 dy=0 dh=10 dv=0
EndChar

StartChar: J.ss03
Encoding: 65566 -1 127
Width: 613
GlyphClass: 2
Flags: W
AnchorPoint: "Anchor-6" 476 745 basechar 0
AnchorPoint: "Anchor-4" 322 0 basechar 0
LayerCount: 2
Fore
SplineSet
118 40.5 m 128,-1,1
 48 93 48 93 29 183 c 1,2,-1
 155 217 l 1,3,4
 169 167 169 167 205 139.5 c 128,-1,5
 241 112 241 112 291 112 c 0,6,7
 345 112 345 112 376.5 144.5 c 128,-1,8
 408 177 408 177 408 233 c 2,9,-1
 408 745 l 1,10,-1
 544 745 l 1,11,-1
 544 233 l 2,12,13
 544 162 544 162 513.5 106.5 c 128,-1,14
 483 51 483 51 425.5 19.5 c 128,-1,15
 368 -12 368 -12 290 -12 c 0,16,0
 188 -12 188 -12 118 40.5 c 128,-1,1
EndSplineSet
Validated: 1
Position2: "'cpsp' Capital Spacing in Latin lookup 0 subtable" dx=5 dy=0 dh=10 dv=0
EndChar

StartChar: K
Encoding: 75 75 130
Width: 679
GlyphClass: 2
Flags: W
AnchorPoint: "Anchor-6" 340 745 basechar 0
AnchorPoint: "Anchor-4" 340 0 basechar 0
LayerCount: 2
Fore
SplineSet
72 745 m 1,0,-1
 208 745 l 1,1,-1
 208 414 l 1,2,-1
 488 745 l 1,3,-1
 659 745 l 1,4,-1
 401 439 l 1,5,-1
 668 0 l 1,6,-1
 508 0 l 1,7,-1
 308 328 l 1,8,-1
 208 209 l 1,9,-1
 208 0 l 1,10,-1
 72 0 l 1,11,-1
 72 745 l 1,0,-1
EndSplineSet
Validated: 1
Substitution2: "'ss03' Style Set 3 in Latin lookup 22 subtable" K.ss03
Substitution2: "'ss01' Style Set 1 in Latin lookup 20 subtable" K.ss01
Substitution2: "'salt' Stylistic Alternatives in Latin lookup 19 subtable" K.ss01
AlternateSubs2: "'aalt' Access All Alternates in Latin lookup 1 subtable" K.ss01 K.ss03
Position2: "'cpsp' Capital Spacing in Latin lookup 0 subtable" dx=5 dy=0 dh=10 dv=0
EndChar

StartChar: K.ss01
Encoding: 65568 -1 131
Width: 666
GlyphClass: 2
Flags: W
AnchorPoint: "Anchor-6" 334 745 basechar 0
AnchorPoint: "Anchor-4" 334 0 basechar 0
LayerCount: 2
Fore
SplineSet
261 311 m 1,0,-1
 201 311 l 1,1,-1
 201 0 l 1,2,-1
 65 0 l 1,3,-1
 65 745 l 1,4,-1
 201 745 l 1,5,-1
 201 435 l 1,6,-1
 264 435 l 1,7,-1
 463 745 l 1,8,-1
 626 745 l 1,9,-1
 387 374 l 1,10,-1
 663 0 l 1,11,-1
 495 0 l 1,12,-1
 261 311 l 1,0,-1
EndSplineSet
Validated: 1
Position2: "'cpsp' Capital Spacing in Latin lookup 0 subtable" dx=5 dy=0 dh=10 dv=0
EndChar

StartChar: K.ss03
Encoding: 65569 -1 132
Width: 705
GlyphClass: 2
Flags: W
AnchorPoint: "Anchor-6" 353 745 basechar 0
AnchorPoint: "Anchor-4" 353 0 basechar 0
LayerCount: 2
Fore
SplineSet
563.5 5.5 m 128,-1,1
 526 17 526 17 491 51.5 c 128,-1,2
 456 86 456 86 414 156 c 2,3,-1
 308 328 l 1,4,-1
 208 209 l 1,5,-1
 208 0 l 1,6,-1
 72 0 l 1,7,-1
 72 745 l 1,8,-1
 208 745 l 1,9,-1
 208 414 l 1,10,-1
 488 745 l 1,11,-1
 659 745 l 1,12,-1
 401 439 l 1,13,-1
 548 198 l 2,14,15
 577 149 577 149 603 129 c 128,-1,16
 629 109 629 109 665 109 c 2,17,-1
 694 109 l 1,18,-1
 694 -6 l 1,19,-1
 659 -6 l 2,20,0
 601 -6 601 -6 563.5 5.5 c 128,-1,1
EndSplineSet
Validated: 1
Position2: "'cpsp' Capital Spacing in Latin lookup 0 subtable" dx=5 dy=0 dh=10 dv=0
EndChar

StartChar: L
Encoding: 76 76 136
Width: 543
GlyphClass: 2
Flags: W
AnchorPoint: "Anchor-7" 343 510 basechar 0
AnchorPoint: "Anchor-6" 140 745 basechar 0
AnchorPoint: "Anchor-4" 299 0 basechar 0
LayerCount: 2
Fore
SplineSet
72 745 m 1,0,-1
 208 745 l 1,1,-1
 208 120 l 1,2,-1
 527 120 l 1,3,-1
 527 0 l 1,4,-1
 72 0 l 1,5,-1
 72 745 l 1,0,-1
EndSplineSet
Validated: 1
Position2: "'cpsp' Capital Spacing in Latin lookup 0 subtable" dx=5 dy=0 dh=10 dv=0
EndChar

StartChar: Ldot
Encoding: 319 319 141
Width: 543
GlyphClass: 2
Flags: W
AnchorPoint: "Anchor-7" 343 510 basechar 0
AnchorPoint: "Anchor-6" 140 745 basechar 0
AnchorPoint: "Anchor-4" 299 0 basechar 0
LayerCount: 2
Fore
SplineSet
72 745 m 1,0,-1
 208 745 l 1,1,-1
 208 120 l 1,2,-1
 527 120 l 1,3,-1
 527 0 l 1,4,-1
 72 0 l 1,5,-1
 72 745 l 1,0,-1
316.5 423 m 128,-1,7
 338 444 338 444 368 444 c 256,8,9
 398 444 398 444 419 423 c 128,-1,10
 440 402 440 402 440 372 c 0,11,12
 440 341 440 341 419 320 c 128,-1,13
 398 299 398 299 368 299 c 256,14,15
 338 299 338 299 316.5 320.5 c 128,-1,16
 295 342 295 342 295 372 c 256,17,6
 295 402 295 402 316.5 423 c 128,-1,7
EndSplineSet
Validated: 1
Position2: "'cpsp' Capital Spacing in Latin lookup 0 subtable" dx=5 dy=0 dh=10 dv=0
EndChar

StartChar: Lslash
Encoding: 321 321 145
Width: 543
GlyphClass: 2
Flags: W
AnchorPoint: "Anchor-7" 343 510 basechar 0
AnchorPoint: "Anchor-6" 140 745 basechar 0
AnchorPoint: "Anchor-4" 299 0 basechar 0
LayerCount: 2
Fore
SplineSet
72 309 m 1,0,-1
 -29 279 l 1,1,-1
 -29 367 l 1,2,-1
 72 397 l 1,3,-1
 72 745 l 1,4,-1
 208 745 l 1,5,-1
 208 437 l 1,6,-1
 309 467 l 1,7,-1
 309 379 l 1,8,-1
 208 349 l 1,9,-1
 208 120 l 1,10,-1
 527 120 l 1,11,-1
 527 0 l 1,12,-1
 72 0 l 1,13,-1
 72 309 l 1,0,-1
EndSplineSet
Validated: 1
Position2: "'cpsp' Capital Spacing in Latin lookup 0 subtable" dx=5 dy=0 dh=10 dv=0
EndChar

StartChar: M
Encoding: 77 77 146
Width: 893
GlyphClass: 2
Flags: W
AnchorPoint: "Anchor-6" 447 745 basechar 0
AnchorPoint: "Anchor-4" 447 0 basechar 0
LayerCount: 2
Fore
SplineSet
72 745 m 1,0,-1
 202 745 l 1,1,-1
 450 409 l 1,2,-1
 692 745 l 1,3,-1
 822 745 l 1,4,-1
 822 0 l 1,5,-1
 685 0 l 1,6,-1
 685 506 l 1,7,-1
 455 200 l 1,8,-1
 439 200 l 1,9,-1
 208 516 l 1,10,-1
 208 0 l 1,11,-1
 72 0 l 1,12,-1
 72 745 l 1,0,-1
EndSplineSet
Validated: 1
Position2: "'cpsp' Capital Spacing in Latin lookup 0 subtable" dx=5 dy=0 dh=10 dv=0
EndChar

StartChar: N
Encoding: 78 78 148
Width: 741
GlyphClass: 2
Flags: W
AnchorPoint: "Anchor-6" 370 745 basechar 0
AnchorPoint: "Anchor-4" 370 0 basechar 0
LayerCount: 2
Fore
SplineSet
72 745 m 1,0,-1
 178 745 l 1,1,-1
 533 267 l 1,2,-1
 533 745 l 1,3,-1
 669 745 l 1,4,-1
 669 0 l 1,5,-1
 562 0 l 1,6,-1
 208 487 l 1,7,-1
 208 0 l 1,8,-1
 72 0 l 1,9,-1
 72 745 l 1,0,-1
EndSplineSet
Validated: 1
Position2: "'cpsp' Capital Spacing in Latin lookup 0 subtable" dx=5 dy=0 dh=10 dv=0
EndChar

StartChar: Eng
Encoding: 330 330 158
Width: 741
GlyphClass: 1
Flags: W
LayerCount: 2
Fore
SplineSet
413 -217 m 1,1,-1
 413 -102 l 1,2,3
 431 -105 431 -105 449 -105 c 0,4,5
 492 -105 492 -105 514.5 -85.5 c 128,-1,6
 537 -66 537 -66 537 -28 c 2,7,-1
 537 34 l 1,8,-1
 208 488 l 1,9,-1
 208 0 l 1,10,-1
 72 0 l 1,11,-1
 72 745 l 1,12,-1
 178 745 l 1,13,-1
 533 267 l 1,14,-1
 533 745 l 1,15,-1
 669 745 l 1,16,-1
 669 -28 l 2,17,18
 669 -120 669 -120 614 -171 c 128,-1,19
 559 -222 559 -222 463 -222 c 0,20,0
 433 -222 433 -222 413 -217 c 1,1,-1
EndSplineSet
Validated: 1
Position2: "'cpsp' Capital Spacing in Latin lookup 0 subtable" dx=5 dy=0 dh=10 dv=0
EndChar

StartChar: O
Encoding: 79 79 159
Width: 878
GlyphClass: 2
Flags: W
AnchorPoint: "Anchor-7" 858 745 basechar 0
AnchorPoint: "Anchor-6" 439 745 basechar 0
AnchorPoint: "Anchor-5" 527 45 basechar 0
AnchorPoint: "Anchor-4" 439 0 basechar 0
LayerCount: 2
Fore
SplineSet
241 38.5 m 128,-1,1
 152 89 152 89 101 177 c 128,-1,2
 50 265 50 265 50 373 c 256,3,4
 50 481 50 481 101 569 c 128,-1,5
 152 657 152 657 241 707 c 128,-1,6
 330 757 330 757 439 757 c 256,7,8
 548 757 548 757 637 707 c 128,-1,9
 726 657 726 657 777.5 569 c 128,-1,10
 829 481 829 481 829 373 c 256,11,12
 829 265 829 265 777.5 177 c 128,-1,13
 726 89 726 89 637 38.5 c 128,-1,14
 548 -12 548 -12 439 -12 c 256,15,0
 330 -12 330 -12 241 38.5 c 128,-1,1
219 239 m 128,-1,17
 252 179 252 179 309.5 145.5 c 128,-1,18
 367 112 367 112 439 112 c 256,19,20
 511 112 511 112 568.5 145.5 c 128,-1,21
 626 179 626 179 659 239 c 128,-1,22
 692 299 692 299 692 373 c 256,23,24
 692 447 692 447 659 506.5 c 128,-1,25
 626 566 626 566 568.5 599.5 c 128,-1,26
 511 633 511 633 439 633 c 256,27,28
 367 633 367 633 309.5 599.5 c 128,-1,29
 252 566 252 566 219 506.5 c 128,-1,30
 186 447 186 447 186 373 c 256,31,16
 186 299 186 299 219 239 c 128,-1,17
EndSplineSet
Validated: 1
Substitution2: "Single Substitution lookup 28 subtable" ordmasculine
Substitution2: "'aalt' Access All Alternates in Latin lookup 0 subtable" ordmasculine
Position2: "'cpsp' Capital Spacing in Latin lookup 0 subtable" dx=5 dy=0 dh=10 dv=0
EndChar

StartChar: Ohorn
Encoding: 416 416 175
Width: 878
GlyphClass: 2
Flags: W
AnchorPoint: "Anchor-6" 439 745 basechar 0
AnchorPoint: "Anchor-4" 439 0 basechar 0
LayerCount: 2
Fore
SplineSet
241 38.5 m 128,-1,1
 152 89 152 89 101 177 c 128,-1,2
 50 265 50 265 50 373 c 256,3,4
 50 481 50 481 101 569 c 128,-1,5
 152 657 152 657 241 707 c 128,-1,6
 330 757 330 757 439 757 c 2,7,-1
 642 757 l 2,8,9
 662 757 662 757 676 766 c 128,-1,10
 690 775 690 775 690 807 c 0,11,12
 690 834 690 834 669 884 c 1,13,-1
 787 884 l 1,14,15
 799 859 799 859 804.5 839.5 c 128,-1,16
 810 820 810 820 810 795 c 0,17,18
 810 738 810 738 780.5 705 c 128,-1,19
 751 672 751 672 699 664 c 1,20,21
 761 611 761 611 795 536 c 128,-1,22
 829 461 829 461 829 373 c 0,23,24
 829 265 829 265 777.5 177 c 128,-1,25
 726 89 726 89 637 38.5 c 128,-1,26
 548 -12 548 -12 439 -12 c 256,27,0
 330 -12 330 -12 241 38.5 c 128,-1,1
219 239 m 128,-1,29
 252 179 252 179 309.5 145.5 c 128,-1,30
 367 112 367 112 439 112 c 256,31,32
 511 112 511 112 568.5 145.5 c 128,-1,33
 626 179 626 179 659 239 c 128,-1,34
 692 299 692 299 692 373 c 256,35,36
 692 447 692 447 659 506.5 c 128,-1,37
 626 566 626 566 568.5 599.5 c 128,-1,38
 511 633 511 633 439 633 c 256,39,40
 367 633 367 633 309.5 599.5 c 128,-1,41
 252 566 252 566 219 506.5 c 128,-1,42
 186 447 186 447 186 373 c 256,43,28
 186 299 186 299 219 239 c 128,-1,29
EndSplineSet
Validated: 1
Position2: "'cpsp' Capital Spacing in Latin lookup 0 subtable" dx=5 dy=0 dh=10 dv=0
EndChar

StartChar: uni01EA
Encoding: 490 490 186
Width: 878
GlyphClass: 2
Flags: W
AnchorPoint: "Anchor-7" 858 745 basechar 0
AnchorPoint: "Anchor-6" 439 745 basechar 0
AnchorPoint: "Anchor-5" 527 45 basechar 0
AnchorPoint: "Anchor-4" 439 0 basechar 0
LayerCount: 2
Fore
SplineSet
568.5 145.5 m 128,-1,1
 626 179 626 179 659 239 c 128,-1,2
 692 299 692 299 692 373 c 256,3,4
 692 447 692 447 659 506.5 c 128,-1,5
 626 566 626 566 568.5 599.5 c 128,-1,6
 511 633 511 633 439 633 c 256,7,8
 367 633 367 633 309.5 599.5 c 128,-1,9
 252 566 252 566 219 506.5 c 128,-1,10
 186 447 186 447 186 373 c 256,11,12
 186 299 186 299 219 239 c 128,-1,13
 252 179 252 179 309.5 145.5 c 128,-1,14
 367 112 367 112 439 112 c 256,15,0
 511 112 511 112 568.5 145.5 c 128,-1,1
101 569 m 128,-1,17
 152 657 152 657 241 707 c 128,-1,18
 330 757 330 757 439 757 c 256,19,20
 548 757 548 757 637 707 c 128,-1,21
 726 657 726 657 777.5 569 c 128,-1,22
 829 481 829 481 829 373 c 0,23,24
 829 274 829 274 785.5 191 c 128,-1,25
 742 108 742 108 665.5 55.5 c 128,-1,26
 589 3 589 3 493 -9 c 1,27,28
 451 -32 451 -32 451 -65 c 0,29,30
 451 -86 451 -86 466.5 -98.5 c 128,-1,31
 482 -111 482 -111 511 -111 c 0,32,33
 554 -111 554 -111 598 -83 c 1,34,-1
 638 -151 l 1,35,36
 574 -202 574 -202 498 -202 c 0,37,38
 434 -202 434 -202 393 -172 c 128,-1,39
 352 -142 352 -142 352 -91 c 0,40,41
 352 -44 352 -44 387 -9 c 1,42,43
 291 3 291 3 214 55.5 c 128,-1,44
 137 108 137 108 93.5 191 c 128,-1,45
 50 274 50 274 50 373 c 0,46,16
 50 481 50 481 101 569 c 128,-1,17
EndSplineSet
Validated: 1
Position2: "'cpsp' Capital Spacing in Latin lookup 0 subtable" dx=5 dy=0 dh=10 dv=0
EndChar

StartChar: Oslash
Encoding: 216 216 187
Width: 878
GlyphClass: 2
Flags: W
AnchorPoint: "Anchor-7" 858 745 basechar 0
AnchorPoint: "Anchor-6" 439 745 basechar 0
AnchorPoint: "Anchor-5" 527 45 basechar 0
AnchorPoint: "Anchor-4" 439 0 basechar 0
LayerCount: 2
Fore
SplineSet
237 41 m 1,1,-1
 204 0 l 1,2,-1
 60 0 l 1,3,-1
 151 110 l 1,4,5
 103 162 103 162 76.5 229 c 128,-1,6
 50 296 50 296 50 373 c 0,7,8
 50 481 50 481 101 569 c 128,-1,9
 152 657 152 657 241 707 c 128,-1,10
 330 757 330 757 439 757 c 0,11,12
 550 757 550 757 641 705 c 1,13,-1
 674 745 l 1,14,-1
 818 745 l 1,15,-1
 728 636 l 1,16,17
 776 584 776 584 802.5 517 c 128,-1,18
 829 450 829 450 829 373 c 0,19,20
 829 265 829 265 777.5 177 c 128,-1,21
 726 89 726 89 637 38.5 c 128,-1,22
 548 -12 548 -12 439 -12 c 0,23,0
 329 -12 329 -12 237 41 c 1,1,-1
235 213 m 1,25,-1
 558 605 l 1,26,27
 504 633 504 633 439 633 c 0,28,29
 367 633 367 633 309.5 599.5 c 128,-1,30
 252 566 252 566 219 506.5 c 128,-1,31
 186 447 186 447 186 373 c 0,32,24
 186 281 186 281 235 213 c 1,25,-1
439 112 m 0,34,35
 511 112 511 112 568.5 145.5 c 128,-1,36
 626 179 626 179 659 239 c 128,-1,37
 692 299 692 299 692 373 c 0,38,39
 692 464 692 464 643 532 c 1,40,-1
 320 140 l 1,41,33
 374 112 374 112 439 112 c 0,34,35
EndSplineSet
Validated: 1
Position2: "'cpsp' Capital Spacing in Latin lookup 0 subtable" dx=5 dy=0 dh=10 dv=0
EndChar

StartChar: OE
Encoding: 338 338 193
Width: 1221
GlyphClass: 1
Flags: W
LayerCount: 2
Fore
SplineSet
241 38.5 m 128,-1,1
 152 89 152 89 101 177 c 128,-1,2
 50 265 50 265 50 373 c 256,3,4
 50 481 50 481 101 569 c 128,-1,5
 152 657 152 657 241 707 c 128,-1,6
 330 757 330 757 439 757 c 0,7,8
 514 757 514 757 580.5 731.5 c 128,-1,9
 647 706 647 706 697 659 c 1,10,-1
 697 745 l 1,11,-1
 1193 745 l 1,12,-1
 1193 625 l 1,13,-1
 834 625 l 1,14,-1
 834 434 l 1,15,-1
 1173 434 l 1,16,-1
 1173 314 l 1,17,-1
 834 314 l 1,18,-1
 834 120 l 1,19,-1
 1193 120 l 1,20,-1
 1192 0 l 1,21,-1
 697 0 l 1,22,-1
 697 88 l 1,23,24
 647 39 647 39 580.5 13.5 c 128,-1,25
 514 -12 514 -12 439 -12 c 0,26,0
 330 -12 330 -12 241 38.5 c 128,-1,1
219 239 m 128,-1,28
 252 179 252 179 309.5 145.5 c 128,-1,29
 367 112 367 112 439 112 c 256,30,31
 511 112 511 112 568.5 145.5 c 128,-1,32
 626 179 626 179 659 239 c 128,-1,33
 692 299 692 299 692 373 c 256,34,35
 692 447 692 447 659 506.5 c 128,-1,36
 626 566 626 566 568.5 599.5 c 128,-1,37
 511 633 511 633 439 633 c 256,38,39
 367 633 367 633 309.5 599.5 c 128,-1,40
 252 566 252 566 219 506.5 c 128,-1,41
 186 447 186 447 186 373 c 256,42,27
 186 299 186 299 219 239 c 128,-1,28
EndSplineSet
Validated: 1
Position2: "'cpsp' Capital Spacing in Latin lookup 0 subtable" dx=5 dy=0 dh=10 dv=0
EndChar

StartChar: P
Encoding: 80 80 194
Width: 648
GlyphClass: 2
Flags: W
AnchorPoint: "Anchor-6" 324 745 basechar 0
AnchorPoint: "Anchor-4" 324 0 basechar 0
LayerCount: 2
Fore
SplineSet
72 745 m 1,0,-1
 350 745 l 2,1,2
 426 745 426 745 485 717.5 c 128,-1,3
 544 690 544 690 576.5 637 c 128,-1,4
 609 584 609 584 609 510 c 0,5,6
 609 437 609 437 576 384 c 128,-1,7
 543 331 543 331 484.5 303 c 128,-1,8
 426 275 426 275 350 275 c 2,9,-1
 208 275 l 1,10,-1
 208 0 l 1,11,-1
 72 0 l 1,12,-1
 72 745 l 1,0,-1
352 395 m 2,13,14
 407 395 407 395 440 426.5 c 128,-1,15
 473 458 473 458 473 510 c 256,16,17
 473 562 473 562 440 593.5 c 128,-1,18
 407 625 407 625 352 625 c 2,19,-1
 208 625 l 1,20,-1
 208 395 l 1,21,-1
 352 395 l 2,13,14
EndSplineSet
Validated: 1
Position2: "'cpsp' Capital Spacing in Latin lookup 0 subtable" dx=5 dy=0 dh=10 dv=0
EndChar

StartChar: Thorn
Encoding: 222 222 195
Width: 650
GlyphClass: 1
Flags: W
LayerCount: 2
Fore
SplineSet
65 745 m 1,0,-1
 201 745 l 1,1,-1
 201 608 l 1,2,-1
 344 608 l 2,3,4
 420 608 420 608 479 580 c 128,-1,5
 538 552 538 552 570.5 499 c 128,-1,6
 603 446 603 446 603 372 c 0,7,8
 603 299 603 299 570 246 c 128,-1,9
 537 193 537 193 478 165.5 c 128,-1,10
 419 138 419 138 344 138 c 2,11,-1
 201 138 l 1,12,-1
 201 0 l 1,13,-1
 65 0 l 1,14,-1
 65 745 l 1,0,-1
345 258 m 2,15,16
 400 258 400 258 433 289 c 128,-1,17
 466 320 466 320 466 372 c 256,18,19
 466 424 466 424 433 456 c 128,-1,20
 400 488 400 488 345 488 c 2,21,-1
 201 488 l 1,22,-1
 201 258 l 1,23,-1
 345 258 l 2,15,16
EndSplineSet
Validated: 1
Position2: "'cpsp' Capital Spacing in Latin lookup 0 subtable" dx=5 dy=0 dh=10 dv=0
EndChar

StartChar: Q
Encoding: 81 81 196
Width: 878
GlyphClass: 2
Flags: W
AnchorPoint: "Anchor-6" 439 745 basechar 0
AnchorPoint: "Anchor-4" 439 0 basechar 0
LayerCount: 2
Fore
SplineSet
250.5 37 m 128,-1,1
 157 86 157 86 103.5 174 c 128,-1,2
 50 262 50 262 50 373 c 0,3,4
 50 481 50 481 101 569 c 128,-1,5
 152 657 152 657 241 707 c 128,-1,6
 330 757 330 757 439 757 c 256,7,8
 548 757 548 757 637 707 c 128,-1,9
 726 657 726 657 777.5 569 c 128,-1,10
 829 481 829 481 829 373 c 0,11,12
 829 299 829 299 806 233.5 c 128,-1,13
 783 168 783 168 740 117 c 1,14,-1
 826 22 l 1,15,-1
 726 -62 l 1,16,-1
 640 33 l 1,17,18
 558 -12 558 -12 458 -12 c 0,19,0
 344 -12 344 -12 250.5 37 c 128,-1,1
219 239 m 128,-1,21
 252 179 252 179 309.5 145.5 c 128,-1,22
 367 112 367 112 439 112 c 0,23,24
 497 112 497 112 548 135 c 1,25,-1
 411 286 l 1,26,-1
 512 369 l 1,27,-1
 647 220 l 1,28,29
 692 285 692 285 692 373 c 0,30,31
 692 447 692 447 659 506.5 c 128,-1,32
 626 566 626 566 568.5 599.5 c 128,-1,33
 511 633 511 633 439 633 c 256,34,35
 367 633 367 633 309.5 599.5 c 128,-1,36
 252 566 252 566 219 506.5 c 128,-1,37
 186 447 186 447 186 373 c 256,38,20
 186 299 186 299 219 239 c 128,-1,21
EndSplineSet
Validated: 1
Substitution2: "'ss03' Style Set 3 in Latin lookup 22 subtable" Q.ss03
Substitution2: "'aalt' Access All Alternates in Latin lookup 0 subtable" Q.ss03
Position2: "'cpsp' Capital Spacing in Latin lookup 0 subtable" dx=5 dy=0 dh=10 dv=0
EndChar

StartChar: Q.ss03
Encoding: 65572 -1 197
Width: 878
GlyphClass: 1
Flags: W
LayerCount: 2
Fore
SplineSet
568.5 145.5 m 128,-1,1
 626 179 626 179 659 239 c 128,-1,2
 692 299 692 299 692 373 c 256,3,4
 692 447 692 447 659 506.5 c 128,-1,5
 626 566 626 566 568.5 599.5 c 128,-1,6
 511 633 511 633 439 633 c 256,7,8
 367 633 367 633 309.5 599.5 c 128,-1,9
 252 566 252 566 219 506.5 c 128,-1,10
 186 447 186 447 186 373 c 256,11,12
 186 299 186 299 219 239 c 128,-1,13
 252 179 252 179 309.5 145.5 c 128,-1,14
 367 112 367 112 439 112 c 256,15,0
 511 112 511 112 568.5 145.5 c 128,-1,1
101 569 m 128,-1,17
 152 657 152 657 241 707 c 128,-1,18
 330 757 330 757 439 757 c 256,19,20
 548 757 548 757 637 707 c 128,-1,21
 726 657 726 657 777.5 569 c 128,-1,22
 829 481 829 481 829 373 c 0,23,24
 829 276 829 276 787.5 194.5 c 128,-1,25
 746 113 746 113 672 60 c 128,-1,26
 598 7 598 7 505 -7 c 1,27,-1
 505 -13 l 2,28,29
 505 -41 505 -41 524.5 -53.5 c 128,-1,30
 544 -66 544 -66 584 -66 c 2,31,-1
 756 -66 l 1,32,-1
 756 -180 l 1,33,-1
 565 -180 l 2,34,35
 468 -180 468 -180 421 -141 c 128,-1,36
 374 -102 374 -102 374 -19 c 2,37,-1
 374 -7 l 1,38,39
 281 7 281 7 207.5 60 c 128,-1,40
 134 113 134 113 92 194.5 c 128,-1,41
 50 276 50 276 50 373 c 0,42,16
 50 481 50 481 101 569 c 128,-1,17
EndSplineSet
Validated: 1
Position2: "'cpsp' Capital Spacing in Latin lookup 0 subtable" dx=5 dy=0 dh=10 dv=0
EndChar

StartChar: R
Encoding: 82 82 198
Width: 661
GlyphClass: 2
Flags: W
AnchorPoint: "Anchor-6" 329 745 basechar 0
AnchorPoint: "Anchor-4" 329 0 basechar 0
LayerCount: 2
Fore
SplineSet
72 745 m 1,0,-1
 349 745 l 2,1,2
 425 745 425 745 484 717.5 c 128,-1,3
 543 690 543 690 575.5 637 c 128,-1,4
 608 584 608 584 608 510 c 0,5,6
 608 434 608 434 572 379.5 c 128,-1,7
 536 325 536 325 473 299 c 1,8,-1
 644 0 l 1,9,-1
 490 0 l 1,10,-1
 336 275 l 1,11,-1
 208 275 l 1,12,-1
 208 0 l 1,13,-1
 72 0 l 1,14,-1
 72 745 l 1,0,-1
351 395 m 2,15,16
 406 395 406 395 439 426.5 c 128,-1,17
 472 458 472 458 472 510 c 256,18,19
 472 562 472 562 439 593.5 c 128,-1,20
 406 625 406 625 351 625 c 2,21,-1
 208 625 l 1,22,-1
 208 395 l 1,23,-1
 351 395 l 2,15,16
EndSplineSet
Validated: 1
Substitution2: "'ss03' Style Set 3 in Latin lookup 22 subtable" R.ss03
Substitution2: "'aalt' Access All Alternates in Latin lookup 0 subtable" R.ss03
Position2: "'cpsp' Capital Spacing in Latin lookup 0 subtable" dx=5 dy=0 dh=10 dv=0
EndChar

StartChar: R.ss03
Encoding: 65573 -1 199
Width: 663
GlyphClass: 2
Flags: W
AnchorPoint: "Anchor-6" 322 745 basechar 0
AnchorPoint: "Anchor-4" 322 0 basechar 0
LayerCount: 2
Fore
SplineSet
72 745 m 1,0,-1
 350 745 l 2,1,2
 426 745 426 745 485 717.5 c 128,-1,3
 544 690 544 690 576.5 637 c 128,-1,4
 609 584 609 584 609 510 c 0,5,6
 609 410 609 410 548 347 c 1,7,8
 606 311 606 311 606 224 c 0,9,10
 606 150 606 150 607.5 100 c 128,-1,11
 609 50 609 50 616 0 c 1,12,-1
 480 0 l 1,13,14
 469 79 469 79 469 214 c 0,15,16
 469 275 469 275 403 275 c 2,17,-1
 208 275 l 1,18,-1
 208 0 l 1,19,-1
 72 0 l 1,20,-1
 72 745 l 1,0,-1
352 395 m 2,21,22
 407 395 407 395 440 426.5 c 128,-1,23
 473 458 473 458 473 510 c 256,24,25
 473 562 473 562 440 593.5 c 128,-1,26
 407 625 407 625 352 625 c 2,27,-1
 208 625 l 1,28,-1
 208 395 l 1,29,-1
 352 395 l 2,21,22
EndSplineSet
Validated: 1
Position2: "'cpsp' Capital Spacing in Latin lookup 0 subtable" dx=5 dy=0 dh=10 dv=0
EndChar

StartChar: S
Encoding: 83 83 214
Width: 647
GlyphClass: 2
Flags: W
AnchorPoint: "Anchor-6" 324 745 basechar 0
AnchorPoint: "Anchor-4" 324 0 basechar 0
LayerCount: 2
Fore
SplineSet
185.5 21 m 128,-1,1
 121 54 121 54 85 104.5 c 128,-1,2
 49 155 49 155 39 210 c 1,3,-1
 167 244 l 1,4,5
 182 183 182 183 227 149 c 128,-1,6
 272 115 272 115 340 115 c 0,7,8
 392 115 392 115 424.5 141 c 128,-1,9
 457 167 457 167 457 203 c 0,10,11
 457 236 457 236 433.5 260.5 c 128,-1,12
 410 285 410 285 370 293 c 2,13,-1
 258 315 l 2,14,15
 169 332 169 332 118 392 c 128,-1,16
 67 452 67 452 67 538 c 0,17,18
 67 598 67 598 101.5 648.5 c 128,-1,19
 136 699 136 699 193.5 728 c 128,-1,20
 251 757 251 757 316 757 c 0,21,22
 399 757 399 757 457 729 c 128,-1,23
 515 701 515 701 547.5 658.5 c 128,-1,24
 580 616 580 616 591 569 c 1,25,-1
 464 529 l 1,26,27
 443 583 443 583 407 606.5 c 128,-1,28
 371 630 371 630 316 630 c 0,29,30
 285 630 285 630 260.5 617 c 128,-1,31
 236 604 236 604 222.5 583.5 c 128,-1,32
 209 563 209 563 209 542 c 0,33,34
 209 509 209 509 231 484.5 c 128,-1,35
 253 460 253 460 292 453 c 2,36,-1
 398 430 l 2,37,38
 495 409 495 409 548 350.5 c 128,-1,39
 601 292 601 292 601 211 c 0,40,41
 601 153 601 153 569 102 c 128,-1,42
 537 51 537 51 477.5 19.5 c 128,-1,43
 418 -12 418 -12 338 -12 c 0,44,0
 250 -12 250 -12 185.5 21 c 128,-1,1
EndSplineSet
Validated: 1
Position2: "'cpsp' Capital Spacing in Latin lookup 0 subtable" dx=5 dy=0 dh=10 dv=0
EndChar

StartChar: Scedilla
Encoding: 350 350 219
Width: 647
GlyphClass: 2
Flags: W
AnchorPoint: "Anchor-4" 324 0 basechar 0
LayerCount: 2
Fore
SplineSet
235 -240 m 1,1,-1
 247 -172 l 1,2,3
 271 -181 271 -181 309 -181 c 0,4,5
 333 -181 333 -181 346.5 -172.5 c 128,-1,6
 360 -164 360 -164 360 -148 c 0,7,8
 360 -135 360 -135 351.5 -127.5 c 128,-1,9
 343 -120 343 -120 327 -120 c 0,10,11
 303 -120 303 -120 288 -125 c 1,12,-1
 265 -114 l 1,13,-1
 279 -8 l 1,14,15
 176 8 176 8 114.5 71 c 128,-1,16
 53 134 53 134 39 210 c 1,17,-1
 167 244 l 1,18,19
 182 183 182 183 227 149 c 128,-1,20
 272 115 272 115 340 115 c 0,21,22
 392 115 392 115 424.5 141 c 128,-1,23
 457 167 457 167 457 203 c 0,24,25
 457 236 457 236 433.5 260.5 c 128,-1,26
 410 285 410 285 370 293 c 2,27,-1
 258 315 l 2,28,29
 169 332 169 332 118 392 c 128,-1,30
 67 452 67 452 67 538 c 0,31,32
 67 598 67 598 101.5 648.5 c 128,-1,33
 136 699 136 699 193.5 728 c 128,-1,34
 251 757 251 757 316 757 c 0,35,36
 399 757 399 757 457 729 c 128,-1,37
 515 701 515 701 547.5 658.5 c 128,-1,38
 580 616 580 616 591 569 c 1,39,-1
 464 529 l 1,40,41
 443 583 443 583 407 606.5 c 128,-1,42
 371 630 371 630 316 630 c 0,43,44
 285 630 285 630 260.5 617 c 128,-1,45
 236 604 236 604 222.5 583.5 c 128,-1,46
 209 563 209 563 209 542 c 0,47,48
 209 509 209 509 231 484.5 c 128,-1,49
 253 460 253 460 292 453 c 2,50,-1
 398 430 l 2,51,52
 495 409 495 409 548 350.5 c 128,-1,53
 601 292 601 292 601 211 c 0,54,55
 601 157 601 157 573 108 c 128,-1,56
 545 59 545 59 491.5 27 c 128,-1,57
 438 -5 438 -5 366 -11 c 1,58,-1
 362 -62 l 1,59,60
 367 -61 367 -61 377 -61 c 0,61,62
 416 -61 416 -61 441 -84 c 128,-1,63
 466 -107 466 -107 466 -145 c 0,64,65
 466 -191 466 -191 428 -221 c 128,-1,66
 390 -251 390 -251 319 -251 c 0,67,0
 271 -251 271 -251 235 -240 c 1,1,-1
EndSplineSet
Validated: 1
Substitution2: "'locl' Localized Forms in Latin lookup 6 subtable" uni0218
Substitution2: "'aalt' Access All Alternates in Latin lookup 0 subtable" uni0218
Position2: "'cpsp' Capital Spacing in Latin lookup 0 subtable" dx=5 dy=0 dh=10 dv=0
EndChar

StartChar: uni018F
Encoding: 399 399 226
Width: 814
GlyphClass: 1
Flags: W
LayerCount: 2
Fore
SplineSet
219.5 33.5 m 128,-1,1
 140 79 140 79 95 160.5 c 128,-1,2
 50 242 50 242 50 345 c 0,3,4
 50 380 50 380 56 413 c 1,5,-1
 627 413 l 1,6,7
 621 477 621 477 589 527 c 128,-1,8
 557 577 557 577 504.5 605 c 128,-1,9
 452 633 452 633 386 633 c 0,10,11
 321 633 321 633 270 604.5 c 128,-1,12
 219 576 219 576 189 525 c 1,13,-1
 76 580 l 1,14,15
 112 660 112 660 196.5 708.5 c 128,-1,16
 281 757 281 757 387 757 c 0,17,18
 496 757 496 757 582.5 706 c 128,-1,19
 669 655 669 655 717 566.5 c 128,-1,20
 765 478 765 478 765 370 c 0,21,22
 765 263 765 263 718 176 c 128,-1,23
 671 89 671 89 587.5 38.5 c 128,-1,24
 504 -12 504 -12 399 -12 c 0,25,0
 299 -12 299 -12 219.5 33.5 c 128,-1,1
226 205 m 128,-1,27
 253 161 253 161 299 136.5 c 128,-1,28
 345 112 345 112 403 112 c 0,29,30
 488 112 488 112 548 163.5 c 128,-1,31
 608 215 608 215 624 304 c 1,32,-1
 197 304 l 1,33,26
 199 249 199 249 226 205 c 128,-1,27
EndSplineSet
Validated: 1
Position2: "'cpsp' Capital Spacing in Latin lookup 0 subtable" dx=5 dy=0 dh=10 dv=0
EndChar

StartChar: T
Encoding: 84 84 227
Width: 542
GlyphClass: 2
Flags: W
AnchorPoint: "Anchor-6" 271 745 basechar 0
AnchorPoint: "Anchor-4" 271 0 basechar 0
LayerCount: 2
Fore
SplineSet
204 625 m 1,0,-1
 11 625 l 1,1,-1
 11 745 l 1,2,-1
 531 745 l 1,3,-1
 531 625 l 1,4,-1
 341 625 l 1,5,-1
 341 0 l 1,6,-1
 204 0 l 1,7,-1
 204 625 l 1,0,-1
EndSplineSet
Validated: 1
Position2: "'cpsp' Capital Spacing in Latin lookup 0 subtable" dx=5 dy=0 dh=10 dv=0
EndChar

StartChar: Tbar
Encoding: 358 358 228
Width: 542
GlyphClass: 2
Flags: W
AnchorPoint: "Anchor-6" 271 745 basechar 0
AnchorPoint: "Anchor-4" 271 0 basechar 0
LayerCount: 2
Fore
SplineSet
204 331 m 1,0,-1
 59 331 l 1,1,-1
 59 415 l 1,2,-1
 204 415 l 1,3,-1
 204 625 l 1,4,-1
 11 625 l 1,5,-1
 11 745 l 1,6,-1
 531 745 l 1,7,-1
 531 625 l 1,8,-1
 341 625 l 1,9,-1
 341 415 l 1,10,-1
 484 415 l 1,11,-1
 484 331 l 1,12,-1
 341 331 l 1,13,-1
 341 0 l 1,14,-1
 204 0 l 1,15,-1
 204 331 l 1,0,-1
EndSplineSet
Validated: 1
Position2: "'cpsp' Capital Spacing in Latin lookup 0 subtable" dx=5 dy=0 dh=10 dv=0
EndChar

StartChar: U
Encoding: 85 85 234
Width: 718
GlyphClass: 2
Flags: W
AnchorPoint: "Anchor-6" 359 745 basechar 0
AnchorPoint: "Anchor-5" 409 45 basechar 0
AnchorPoint: "Anchor-4" 359 0 basechar 0
LayerCount: 2
Fore
SplineSet
207 24 m 128,-1,1
 140 60 140 60 102 123.5 c 128,-1,2
 64 187 64 187 64 266 c 2,3,-1
 64 745 l 1,4,-1
 200 745 l 1,5,-1
 200 273 l 2,6,7
 200 202 200 202 244.5 157 c 128,-1,8
 289 112 289 112 359 112 c 256,9,10
 429 112 429 112 473.5 157 c 128,-1,11
 518 202 518 202 518 273 c 2,12,-1
 518 745 l 1,13,-1
 654 745 l 1,14,-1
 654 266 l 2,15,16
 654 187 654 187 616 123.5 c 128,-1,17
 578 60 578 60 511 24 c 128,-1,18
 444 -12 444 -12 359 -12 c 256,19,0
 274 -12 274 -12 207 24 c 128,-1,1
EndSplineSet
Validated: 1
Substitution2: "'ss01' Style Set 1 in Latin lookup 20 subtable" U.ss01
Substitution2: "'salt' Stylistic Alternatives in Latin lookup 19 subtable" U.ss01
Substitution2: "'aalt' Access All Alternates in Latin lookup 0 subtable" U.ss01
Position2: "'cpsp' Capital Spacing in Latin lookup 0 subtable" dx=5 dy=0 dh=10 dv=0
EndChar

StartChar: U.ss01
Encoding: 65581 -1 235
Width: 733
GlyphClass: 2
Flags: W
AnchorPoint: "Anchor-6" 367 745 basechar 0
AnchorPoint: "Anchor-5" 439 45 basechar 0
AnchorPoint: "Anchor-4" 367 0 basechar 0
LayerCount: 2
Fore
SplineSet
72 745 m 1,0,-1
 208 745 l 1,1,-1
 208 120 l 1,2,-1
 525 120 l 1,3,-1
 525 745 l 1,4,-1
 662 745 l 1,5,-1
 662 0 l 1,6,-1
 72 0 l 1,7,-1
 72 745 l 1,0,-1
EndSplineSet
Validated: 1
Position2: "'cpsp' Capital Spacing in Latin lookup 0 subtable" dx=5 dy=0 dh=10 dv=0
EndChar

StartChar: Uhorn
Encoding: 431 431 252
Width: 718
GlyphClass: 2
Flags: W
AnchorPoint: "Anchor-6" 359 745 basechar 0
AnchorPoint: "Anchor-5" 647 10 basechar 0
AnchorPoint: "Anchor-4" 359 0 basechar 0
LayerCount: 2
Fore
SplineSet
207 24 m 128,-1,1
 140 60 140 60 102 123.5 c 128,-1,2
 64 187 64 187 64 266 c 2,3,-1
 64 745 l 1,4,-1
 200 745 l 1,5,-1
 200 273 l 2,6,7
 200 202 200 202 244.5 157 c 128,-1,8
 289 112 289 112 359 112 c 256,9,10
 429 112 429 112 473.5 157 c 128,-1,11
 518 202 518 202 518 273 c 2,12,-1
 518 745 l 1,13,-1
 633 745 l 2,14,15
 653 745 653 745 667 754 c 128,-1,16
 681 763 681 763 681 795 c 0,17,18
 681 822 681 822 660 872 c 1,19,-1
 777 872 l 1,20,21
 789 848 789 848 795 828 c 128,-1,22
 801 808 801 808 801 783 c 0,23,24
 801 716 801 716 761.5 682.5 c 128,-1,25
 722 649 722 649 654 649 c 1,26,-1
 654 266 l 2,27,28
 654 187 654 187 616 123.5 c 128,-1,29
 578 60 578 60 511 24 c 128,-1,30
 444 -12 444 -12 359 -12 c 256,31,0
 274 -12 274 -12 207 24 c 128,-1,1
EndSplineSet
Validated: 1
Substitution2: "'ss01' Style Set 1 in Latin lookup 20 subtable" Uhorn.ss01
Substitution2: "'salt' Stylistic Alternatives in Latin lookup 19 subtable" Uhorn.ss01
Substitution2: "'aalt' Access All Alternates in Latin lookup 0 subtable" Uhorn.ss01
Position2: "'cpsp' Capital Spacing in Latin lookup 0 subtable" dx=5 dy=0 dh=10 dv=0
EndChar

StartChar: Uhorn.ss01
Encoding: 65590 -1 253
Width: 725
GlyphClass: 2
Flags: W
AnchorPoint: "Anchor-6" 367 745 basechar 0
AnchorPoint: "Anchor-4" 367 0 basechar 0
LayerCount: 2
Fore
SplineSet
72 745 m 1,0,-1
 208 745 l 1,1,-1
 208 120 l 1,2,-1
 525 120 l 1,3,-1
 525 745 l 1,4,-1
 640 745 l 2,5,6
 659 745 659 745 673 754 c 128,-1,7
 687 763 687 763 687 795 c 0,8,9
 687 820 687 820 667 872 c 1,10,-1
 784 872 l 1,11,12
 796 846 796 846 802 826.5 c 128,-1,13
 808 807 808 807 808 783 c 0,14,15
 808 717 808 717 769 683.5 c 128,-1,16
 730 650 730 650 662 649 c 1,17,-1
 662 0 l 1,18,-1
 72 0 l 1,19,-1
 72 745 l 1,0,-1
EndSplineSet
Validated: 1
Position2: "'cpsp' Capital Spacing in Latin lookup 0 subtable" dx=5 dy=0 dh=10 dv=0
EndChar

StartChar: Uogonek
Encoding: 370 370 272
Width: 718
GlyphClass: 2
Flags: W
AnchorPoint: "Anchor-6" 359 745 basechar 0
AnchorPoint: "Anchor-5" 409 45 basechar 0
AnchorPoint: "Anchor-4" 359 0 basechar 0
LayerCount: 2
Fore
SplineSet
275 -172 m 128,-1,1
 234 -142 234 -142 234 -91 c 0,2,3
 234 -39 234 -39 276 -2 c 1,4,5
 180 21 180 21 122 94 c 128,-1,6
 64 167 64 167 64 266 c 2,7,-1
 64 745 l 1,8,-1
 200 745 l 1,9,-1
 200 273 l 2,10,11
 200 202 200 202 244.5 157 c 128,-1,12
 289 112 289 112 359 112 c 256,13,14
 429 112 429 112 473.5 157 c 128,-1,15
 518 202 518 202 518 273 c 2,16,-1
 518 745 l 1,17,-1
 654 745 l 1,18,-1
 654 266 l 2,19,20
 654 188 654 188 617.5 125.5 c 128,-1,21
 581 63 581 63 516.5 26.5 c 128,-1,22
 452 -10 452 -10 370 -12 c 1,23,24
 333 -33 333 -33 333 -65 c 0,25,26
 333 -86 333 -86 348.5 -98.5 c 128,-1,27
 364 -111 364 -111 393 -111 c 0,28,29
 436 -111 436 -111 480 -83 c 1,30,-1
 520 -151 l 1,31,32
 456 -202 456 -202 380 -202 c 0,33,0
 316 -202 316 -202 275 -172 c 128,-1,1
EndSplineSet
Validated: 1
Substitution2: "'ss01' Style Set 1 in Latin lookup 20 subtable" Uogonek.ss01
Substitution2: "'salt' Stylistic Alternatives in Latin lookup 19 subtable" Uogonek.ss01
Substitution2: "'aalt' Access All Alternates in Latin lookup 0 subtable" Uogonek.ss01
Position2: "'cpsp' Capital Spacing in Latin lookup 0 subtable" dx=5 dy=0 dh=10 dv=0
EndChar

StartChar: Uogonek.ss01
Encoding: 65600 -1 273
Width: 733
GlyphClass: 2
Flags: W
AnchorPoint: "Anchor-6" 367 745 basechar 0
AnchorPoint: "Anchor-5" 439 45 basechar 0
AnchorPoint: "Anchor-4" 367 0 basechar 0
LayerCount: 2
Fore
SplineSet
72 745 m 1,0,-1
 208 745 l 1,1,-1
 208 120 l 1,2,-1
 525 120 l 1,3,-1
 525 745 l 1,4,-1
 662 745 l 1,5,-1
 662 0 l 1,6,-1
 423 0 l 1,7,8
 363 -25 363 -25 363 -65 c 0,9,10
 363 -86 363 -86 378.5 -98.5 c 128,-1,11
 394 -111 394 -111 423 -111 c 0,12,13
 466 -111 466 -111 510 -83 c 1,14,-1
 550 -151 l 1,15,16
 486 -202 486 -202 410 -202 c 0,17,18
 346 -202 346 -202 305 -172 c 128,-1,19
 264 -142 264 -142 264 -91 c 0,20,21
 264 -39 264 -39 308 0 c 1,22,-1
 72 0 l 1,23,-1
 72 745 l 1,0,-1
EndSplineSet
Validated: 1
Position2: "'cpsp' Capital Spacing in Latin lookup 0 subtable" dx=5 dy=0 dh=10 dv=0
EndChar

StartChar: V
Encoding: 86 86 280
Width: 697
GlyphClass: 2
Flags: W
AnchorPoint: "Anchor-6" 349 745 basechar 0
AnchorPoint: "Anchor-4" 349 0 basechar 0
LayerCount: 2
Fore
SplineSet
11 745 m 1,0,-1
 159 745 l 1,1,-1
 349 172 l 1,2,-1
 538 745 l 1,3,-1
 686 745 l 1,4,-1
 427 0 l 1,5,-1
 271 0 l 1,6,-1
 11 745 l 1,0,-1
EndSplineSet
Validated: 1
Position2: "'cpsp' Capital Spacing in Latin lookup 0 subtable" dx=5 dy=0 dh=10 dv=0
EndChar

StartChar: W
Encoding: 87 87 281
Width: 1020
GlyphClass: 2
Flags: W
AnchorPoint: "Anchor-6" 510 745 basechar 0
AnchorPoint: "Anchor-4" 510 0 basechar 0
LayerCount: 2
Fore
SplineSet
11 745 m 1,0,-1
 157 745 l 1,1,-1
 295 185 l 1,2,-1
 440 745 l 1,3,-1
 581 745 l 1,4,-1
 725 185 l 1,5,-1
 863 745 l 1,6,-1
 1009 745 l 1,7,-1
 809 0 l 1,8,-1
 653 0 l 1,9,-1
 510 536 l 1,10,-1
 367 0 l 1,11,-1
 211 0 l 1,12,-1
 11 745 l 1,0,-1
EndSplineSet
Validated: 1
Position2: "'cpsp' Capital Spacing in Latin lookup 0 subtable" dx=5 dy=0 dh=10 dv=0
EndChar

StartChar: X
Encoding: 88 88 286
Width: 661
GlyphClass: 2
Flags: W
AnchorPoint: "Anchor-6" 331 745 basechar 0
AnchorPoint: "Anchor-4" 331 0 basechar 0
LayerCount: 2
Fore
SplineSet
255 375 m 1,0,-1
 13 745 l 1,1,-1
 169 745 l 1,2,-1
 331 497 l 1,3,-1
 492 745 l 1,4,-1
 648 745 l 1,5,-1
 407 375 l 1,6,-1
 650 0 l 1,7,-1
 494 0 l 1,8,-1
 331 252 l 1,9,-1
 167 0 l 1,10,-1
 11 0 l 1,11,-1
 255 375 l 1,0,-1
EndSplineSet
Validated: 1
Position2: "'cpsp' Capital Spacing in Latin lookup 0 subtable" dx=5 dy=0 dh=10 dv=0
EndChar

StartChar: Y
Encoding: 89 89 287
Width: 660
GlyphClass: 2
Flags: W
AnchorPoint: "Anchor-6" 330 745 basechar 0
AnchorPoint: "Anchor-4" 330 0 basechar 0
LayerCount: 2
Fore
SplineSet
262 330 m 1,0,-1
 11 745 l 1,1,-1
 166 745 l 1,2,-1
 330 468 l 1,3,-1
 494 745 l 1,4,-1
 649 745 l 1,5,-1
 399 331 l 1,6,-1
 399 0 l 1,7,-1
 262 0 l 1,8,-1
 262 330 l 1,0,-1
EndSplineSet
Validated: 1
Position2: "'cpsp' Capital Spacing in Latin lookup 0 subtable" dx=5 dy=0 dh=10 dv=0
EndChar

StartChar: Z
Encoding: 90 90 297
Width: 571
GlyphClass: 2
Flags: W
AnchorPoint: "Anchor-6" 286 745 basechar 0
AnchorPoint: "Anchor-4" 286 0 basechar 0
LayerCount: 2
Fore
SplineSet
14 107 m 1,0,-1
 375 625 l 1,1,-1
 35 625 l 1,2,-1
 35 745 l 1,3,-1
 548 745 l 1,4,-1
 548 638 l 1,5,-1
 188 120 l 1,6,-1
 558 120 l 1,7,-1
 558 0 l 1,8,-1
 14 0 l 1,9,-1
 14 107 l 1,0,-1
EndSplineSet
Validated: 1
Position2: "'cpsp' Capital Spacing in Latin lookup 0 subtable" dx=5 dy=0 dh=10 dv=0
EndChar

StartChar: a
Encoding: 97 97 302
Width: 580
GlyphClass: 2
Flags: W
AnchorPoint: "Anchor-6" 291 544 basechar 0
AnchorPoint: "Anchor-5" 493 41 basechar 0
AnchorPoint: "Anchor-4" 291 0 basechar 0
LayerCount: 2
Fore
SplineSet
89.5 30 m 128,-1,1
 39 72 39 72 39 144 c 0,2,3
 39 213 39 213 86 258 c 128,-1,4
 133 303 133 303 227 318 c 2,5,-1
 389 344 l 1,6,-1
 389 362 l 2,7,8
 389 398 389 398 361.5 421 c 128,-1,9
 334 444 334 444 289 444 c 0,10,11
 247 444 247 444 214.5 421.5 c 128,-1,12
 182 399 182 399 167 362 c 1,13,-1
 60 414 l 1,14,15
 84 478 84 478 148 517 c 128,-1,16
 212 556 212 556 294 556 c 0,17,18
 360 556 360 556 411.5 531.5 c 128,-1,19
 463 507 463 507 491.5 462.5 c 128,-1,20
 520 418 520 418 520 362 c 2,21,-1
 520 0 l 1,22,-1
 396 0 l 1,23,-1
 396 58 l 1,24,25
 332 -12 332 -12 226 -12 c 0,26,0
 140 -12 140 -12 89.5 30 c 128,-1,1
196 104.5 m 128,-1,28
 217 88 217 88 250 88 c 0,29,30
 311 88 311 88 350 126.5 c 128,-1,31
 389 165 389 165 389 222 c 2,32,-1
 389 244 l 1,33,-1
 252 221 l 2,34,35
 213 213 213 213 194 195.5 c 128,-1,36
 175 178 175 178 175 149 c 0,37,27
 175 121 175 121 196 104.5 c 128,-1,28
EndSplineSet
Validated: 1
Substitution2: "Single Substitution lookup 28 subtable" ordfeminine
Substitution2: "'ss03' Style Set 3 in Latin lookup 22 subtable" a.ss03
Substitution2: "'ss02' Style Set 2 in Latin lookup 21 subtable" a.ss02
Substitution2: "'ss01' Style Set 1 in Latin lookup 20 subtable" a.ss01
Substitution2: "'salt' Stylistic Alternatives in Latin lookup 19 subtable" a.ss01
AlternateSubs2: "'aalt' Access All Alternates in Latin lookup 1 subtable" ordfeminine a.ss01 a.ss02 a.ss03
EndChar

StartChar: a.ss01
Encoding: 65604 -1 303
Width: 580
GlyphClass: 2
Flags: W
AnchorPoint: "Anchor-6" 291 544 basechar 0
AnchorPoint: "Anchor-5" 493 41 basechar 0
AnchorPoint: "Anchor-4" 291 0 basechar 0
LayerCount: 2
Fore
SplineSet
89.5 30 m 128,-1,1
 39 72 39 72 39 144 c 0,2,3
 39 213 39 213 86 258 c 128,-1,4
 133 303 133 303 227 318 c 2,5,-1
 389 344 l 1,6,-1
 389 427 l 1,7,-1
 96 427 l 1,8,-1
 96 544 l 1,9,-1
 520 544 l 1,10,-1
 520 0 l 1,11,-1
 396 0 l 1,12,-1
 396 58 l 1,13,14
 332 -12 332 -12 226 -12 c 0,15,0
 140 -12 140 -12 89.5 30 c 128,-1,1
196 104.5 m 128,-1,17
 217 88 217 88 250 88 c 0,18,19
 311 88 311 88 350 126.5 c 128,-1,20
 389 165 389 165 389 222 c 2,21,-1
 389 244 l 1,22,-1
 252 221 l 2,23,24
 213 213 213 213 194 195.5 c 128,-1,25
 175 178 175 178 175 149 c 0,26,16
 175 121 175 121 196 104.5 c 128,-1,17
EndSplineSet
Validated: 1
EndChar

StartChar: a.ss02
Encoding: 65605 -1 304
Width: 611
GlyphClass: 2
Flags: W
AnchorPoint: "Anchor-6" 291 544 basechar 0
AnchorPoint: "Anchor-5" 493 41 basechar 0
AnchorPoint: "Anchor-4" 291 0 basechar 0
LayerCount: 2
Fore
SplineSet
89.5 30 m 128,-1,1
 39 72 39 72 39 144 c 0,2,3
 39 213 39 213 86 258 c 128,-1,4
 133 303 133 303 227 318 c 2,5,-1
 389 344 l 1,6,-1
 389 362 l 2,7,8
 389 398 389 398 361.5 421 c 128,-1,9
 334 444 334 444 289 444 c 0,10,11
 247 444 247 444 214.5 421.5 c 128,-1,12
 182 399 182 399 167 362 c 1,13,-1
 60 414 l 1,14,15
 84 478 84 478 148 517 c 128,-1,16
 212 556 212 556 294 556 c 0,17,18
 360 556 360 556 411.5 531.5 c 128,-1,19
 463 507 463 507 491.5 462.5 c 128,-1,20
 520 418 520 418 520 362 c 2,21,-1
 520 108 l 1,22,-1
 580 108 l 1,23,-1
 580 0 l 1,24,-1
 396 0 l 1,25,-1
 396 58 l 1,26,27
 332 -12 332 -12 226 -12 c 0,28,0
 140 -12 140 -12 89.5 30 c 128,-1,1
196 104.5 m 128,-1,30
 217 88 217 88 250 88 c 0,31,32
 311 88 311 88 350 126.5 c 128,-1,33
 389 165 389 165 389 222 c 2,34,-1
 389 244 l 1,35,-1
 252 221 l 2,36,37
 213 213 213 213 194 195.5 c 128,-1,38
 175 178 175 178 175 149 c 0,39,29
 175 121 175 121 196 104.5 c 128,-1,30
EndSplineSet
Validated: 1
EndChar

StartChar: a.ss03
Encoding: 65606 -1 305
Width: 580
GlyphClass: 2
Flags: W
AnchorPoint: "Anchor-6" 291 544 basechar 0
AnchorPoint: "Anchor-5" 493 41 basechar 0
AnchorPoint: "Anchor-4" 291 0 basechar 0
LayerCount: 2
Fore
SplineSet
89.5 30 m 128,-1,1
 39 72 39 72 39 144 c 0,2,3
 39 213 39 213 86 258 c 128,-1,4
 133 303 133 303 227 318 c 2,5,-1
 388 344 l 1,6,7
 382 383 382 383 354 405 c 128,-1,8
 326 427 326 427 279 427 c 2,9,-1
 96 427 l 1,10,-1
 96 544 l 1,11,-1
 286 544 l 2,12,13
 395 544 395 544 457.5 487 c 128,-1,14
 520 430 520 430 520 331 c 2,15,-1
 520 0 l 1,16,-1
 396 0 l 1,17,-1
 396 58 l 1,18,19
 332 -12 332 -12 226 -12 c 0,20,0
 140 -12 140 -12 89.5 30 c 128,-1,1
196 104.5 m 128,-1,22
 217 88 217 88 250 88 c 0,23,24
 311 88 311 88 350 126.5 c 128,-1,25
 389 165 389 165 389 222 c 2,26,-1
 389 244 l 1,27,-1
 252 221 l 2,28,29
 213 213 213 213 194 195.5 c 128,-1,30
 175 178 175 178 175 149 c 0,31,21
 175 121 175 121 196 104.5 c 128,-1,22
EndSplineSet
Validated: 1
EndChar

StartChar: aogonek
Encoding: 261 261 386
Width: 580
GlyphClass: 2
Flags: W
AnchorPoint: "Anchor-6" 291 544 basechar 0
AnchorPoint: "Anchor-5" 493 41 basechar 0
AnchorPoint: "Anchor-4" 291 0 basechar 0
LayerCount: 2
Fore
SplineSet
89.5 30 m 128,-1,1
 39 72 39 72 39 144 c 0,2,3
 39 213 39 213 86 258 c 128,-1,4
 133 303 133 303 227 318 c 2,5,-1
 389 344 l 1,6,-1
 389 362 l 2,7,8
 389 398 389 398 361.5 421 c 128,-1,9
 334 444 334 444 289 444 c 0,10,11
 247 444 247 444 214.5 421.5 c 128,-1,12
 182 399 182 399 167 362 c 1,13,-1
 60 414 l 1,14,15
 84 478 84 478 148 517 c 128,-1,16
 212 556 212 556 294 556 c 0,17,18
 360 556 360 556 411.5 531.5 c 128,-1,19
 463 507 463 507 491.5 462.5 c 128,-1,20
 520 418 520 418 520 362 c 2,21,-1
 520 0 l 1,22,-1
 487 0 l 1,23,24
 417 -26 417 -26 417 -69 c 0,25,26
 417 -90 417 -90 432.5 -102.5 c 128,-1,27
 448 -115 448 -115 477 -115 c 0,28,29
 520 -115 520 -115 564 -87 c 1,30,-1
 604 -155 l 1,31,32
 540 -206 540 -206 464 -206 c 0,33,34
 400 -206 400 -206 359 -176 c 128,-1,35
 318 -146 318 -146 318 -95 c 0,36,37
 318 -59 318 -59 339 -29.5 c 128,-1,38
 360 0 360 0 396 18 c 1,39,-1
 396 58 l 1,40,41
 332 -12 332 -12 226 -12 c 0,42,0
 140 -12 140 -12 89.5 30 c 128,-1,1
196 104.5 m 128,-1,44
 217 88 217 88 250 88 c 0,45,46
 311 88 311 88 350 126.5 c 128,-1,47
 389 165 389 165 389 222 c 2,48,-1
 389 244 l 1,49,-1
 252 221 l 2,50,51
 213 213 213 213 194 195.5 c 128,-1,52
 175 178 175 178 175 149 c 0,53,43
 175 121 175 121 196 104.5 c 128,-1,44
EndSplineSet
Validated: 1
Substitution2: "'ss03' Style Set 3 in Latin lookup 22 subtable" aogonek.ss03
Substitution2: "'ss02' Style Set 2 in Latin lookup 21 subtable" aogonek.ss02
Substitution2: "'ss01' Style Set 1 in Latin lookup 20 subtable" aogonek.ss01
Substitution2: "'salt' Stylistic Alternatives in Latin lookup 19 subtable" aogonek.ss01
AlternateSubs2: "'aalt' Access All Alternates in Latin lookup 1 subtable" aogonek.ss01 aogonek.ss02 aogonek.ss03
EndChar

StartChar: aogonek.ss01
Encoding: 65667 -1 387
Width: 580
GlyphClass: 2
Flags: W
AnchorPoint: "Anchor-6" 291 544 basechar 0
AnchorPoint: "Anchor-5" 493 41 basechar 0
AnchorPoint: "Anchor-4" 291 0 basechar 0
LayerCount: 2
Fore
SplineSet
89.5 30 m 128,-1,1
 39 72 39 72 39 144 c 0,2,3
 39 213 39 213 86 258 c 128,-1,4
 133 303 133 303 227 318 c 2,5,-1
 389 344 l 1,6,-1
 389 427 l 1,7,-1
 96 427 l 1,8,-1
 96 544 l 1,9,-1
 520 544 l 1,10,-1
 520 0 l 1,11,-1
 487 0 l 1,12,13
 417 -26 417 -26 417 -69 c 0,14,15
 417 -90 417 -90 432.5 -102.5 c 128,-1,16
 448 -115 448 -115 477 -115 c 0,17,18
 520 -115 520 -115 564 -87 c 1,19,-1
 604 -155 l 1,20,21
 540 -206 540 -206 464 -206 c 0,22,23
 400 -206 400 -206 359 -176 c 128,-1,24
 318 -146 318 -146 318 -95 c 0,25,26
 318 -59 318 -59 339 -29.5 c 128,-1,27
 360 0 360 0 396 18 c 1,28,-1
 396 58 l 1,29,30
 332 -12 332 -12 226 -12 c 0,31,0
 140 -12 140 -12 89.5 30 c 128,-1,1
196 104.5 m 128,-1,33
 217 88 217 88 250 88 c 0,34,35
 311 88 311 88 350 126.5 c 128,-1,36
 389 165 389 165 389 222 c 2,37,-1
 389 244 l 1,38,-1
 252 221 l 2,39,40
 213 213 213 213 194 195.5 c 128,-1,41
 175 178 175 178 175 149 c 0,42,32
 175 121 175 121 196 104.5 c 128,-1,33
EndSplineSet
Validated: 1
EndChar

StartChar: aogonek.ss02
Encoding: 65668 -1 388
Width: 611
GlyphClass: 2
Flags: W
AnchorPoint: "Anchor-6" 291 544 basechar 0
AnchorPoint: "Anchor-5" 493 41 basechar 0
AnchorPoint: "Anchor-4" 291 0 basechar 0
LayerCount: 2
Fore
SplineSet
89.5 30 m 128,-1,1
 39 72 39 72 39 144 c 0,2,3
 39 213 39 213 86 258 c 128,-1,4
 133 303 133 303 227 318 c 2,5,-1
 389 344 l 1,6,-1
 389 362 l 2,7,8
 389 398 389 398 361.5 421 c 128,-1,9
 334 444 334 444 289 444 c 0,10,11
 247 444 247 444 214.5 421.5 c 128,-1,12
 182 399 182 399 167 362 c 1,13,-1
 60 414 l 1,14,15
 84 478 84 478 148 517 c 128,-1,16
 212 556 212 556 294 556 c 0,17,18
 360 556 360 556 411.5 531.5 c 128,-1,19
 463 507 463 507 491.5 462.5 c 128,-1,20
 520 418 520 418 520 362 c 2,21,-1
 520 108 l 1,22,-1
 580 108 l 1,23,-1
 580 0 l 1,24,-1
 487 0 l 1,25,26
 417 -26 417 -26 417 -69 c 0,27,28
 417 -90 417 -90 432.5 -102.5 c 128,-1,29
 448 -115 448 -115 477 -115 c 0,30,31
 520 -115 520 -115 564 -87 c 1,32,-1
 604 -155 l 1,33,34
 540 -206 540 -206 464 -206 c 0,35,36
 400 -206 400 -206 359 -176 c 128,-1,37
 318 -146 318 -146 318 -95 c 0,38,39
 318 -59 318 -59 339 -29.5 c 128,-1,40
 360 0 360 0 396 18 c 1,41,-1
 396 58 l 1,42,43
 332 -12 332 -12 226 -12 c 0,44,0
 140 -12 140 -12 89.5 30 c 128,-1,1
196 104.5 m 128,-1,46
 217 88 217 88 250 88 c 0,47,48
 311 88 311 88 350 126.5 c 128,-1,49
 389 165 389 165 389 222 c 2,50,-1
 389 244 l 1,51,-1
 252 221 l 2,52,53
 213 213 213 213 194 195.5 c 128,-1,54
 175 178 175 178 175 149 c 0,55,45
 175 121 175 121 196 104.5 c 128,-1,46
EndSplineSet
Validated: 1
EndChar

StartChar: aogonek.ss03
Encoding: 65669 -1 389
Width: 580
GlyphClass: 2
Flags: W
AnchorPoint: "Anchor-6" 291 544 basechar 0
AnchorPoint: "Anchor-5" 493 41 basechar 0
AnchorPoint: "Anchor-4" 291 0 basechar 0
LayerCount: 2
Fore
SplineSet
89.5 30 m 128,-1,1
 39 72 39 72 39 144 c 0,2,3
 39 213 39 213 86 258 c 128,-1,4
 133 303 133 303 227 318 c 2,5,-1
 388 344 l 1,6,7
 382 383 382 383 354 405 c 128,-1,8
 326 427 326 427 279 427 c 2,9,-1
 96 427 l 1,10,-1
 96 544 l 1,11,-1
 286 544 l 2,12,13
 395 544 395 544 457.5 487 c 128,-1,14
 520 430 520 430 520 331 c 2,15,-1
 520 0 l 1,16,-1
 487 0 l 1,17,18
 417 -26 417 -26 417 -69 c 0,19,20
 417 -90 417 -90 432.5 -102.5 c 128,-1,21
 448 -115 448 -115 477 -115 c 0,22,23
 520 -115 520 -115 564 -87 c 1,24,-1
 604 -155 l 1,25,26
 540 -206 540 -206 464 -206 c 0,27,28
 400 -206 400 -206 359 -176 c 128,-1,29
 318 -146 318 -146 318 -95 c 0,30,31
 318 -59 318 -59 339 -29.5 c 128,-1,32
 360 0 360 0 396 18 c 1,33,-1
 396 58 l 1,34,35
 332 -12 332 -12 226 -12 c 0,36,0
 140 -12 140 -12 89.5 30 c 128,-1,1
196 104.5 m 128,-1,38
 217 88 217 88 250 88 c 0,39,40
 311 88 311 88 350 126.5 c 128,-1,41
 389 165 389 165 389 222 c 2,42,-1
 389 244 l 1,43,-1
 252 221 l 2,44,45
 213 213 213 213 194 195.5 c 128,-1,46
 175 178 175 178 175 149 c 0,47,37
 175 121 175 121 196 104.5 c 128,-1,38
EndSplineSet
Validated: 1
EndChar

StartChar: ae
Encoding: 230 230 402
Width: 967
GlyphClass: 2
Flags: W
AnchorPoint: "Anchor-6" 484 544 basechar 0
AnchorPoint: "Anchor-4" 484 0 basechar 0
LayerCount: 2
Fore
SplineSet
89.5 30 m 128,-1,1
 39 72 39 72 39 144 c 0,2,3
 39 213 39 213 86 258 c 128,-1,4
 133 303 133 303 227 318 c 2,5,-1
 389 344 l 1,6,-1
 389 362 l 2,7,8
 389 398 389 398 361.5 421 c 128,-1,9
 334 444 334 444 289 444 c 0,10,11
 247 444 247 444 214.5 421.5 c 128,-1,12
 182 399 182 399 167 362 c 1,13,-1
 60 414 l 1,14,15
 84 478 84 478 148 517 c 128,-1,16
 212 556 212 556 294 556 c 0,17,18
 352 556 352 556 399.5 536.5 c 128,-1,19
 447 517 447 517 477 481 c 1,20,21
 513 516 513 516 561.5 536 c 128,-1,22
 610 556 610 556 664 556 c 0,23,24
 745 556 745 556 805 520.5 c 128,-1,25
 865 485 865 485 896.5 424 c 128,-1,26
 928 363 928 363 928 290 c 0,27,28
 928 258 928 258 922 235 c 1,29,-1
 530 235 l 1,30,31
 535 175 535 175 575 139 c 128,-1,32
 615 103 615 103 675 103 c 0,33,34
 718 103 718 103 749.5 121.5 c 128,-1,35
 781 140 781 140 801 173 c 1,36,-1
 907 121 l 1,37,38
 882 62 882 62 821 25 c 128,-1,39
 760 -12 760 -12 688 -12 c 0,40,41
 576 -12 576 -12 507 56 c 1,42,-1
 507 0 l 1,43,-1
 396 0 l 1,44,-1
 396 56 l 1,45,46
 333 -12 333 -12 226 -12 c 0,47,0
 140 -12 140 -12 89.5 30 c 128,-1,1
196 104.5 m 128,-1,49
 217 88 217 88 250 88 c 0,50,51
 311 88 311 88 350 126.5 c 128,-1,52
 389 165 389 165 389 222 c 2,53,-1
 389 244 l 1,54,-1
 252 221 l 2,55,56
 213 213 213 213 194 195.5 c 128,-1,57
 175 178 175 178 175 149 c 0,58,48
 175 121 175 121 196 104.5 c 128,-1,49
789 335 m 1,59,60
 785 385 785 385 750.5 416.5 c 128,-1,61
 716 448 716 448 664 448 c 0,62,63
 614 448 614 448 578.5 418 c 128,-1,64
 543 388 543 388 533 335 c 1,65,-1
 789 335 l 1,59,60
EndSplineSet
Validated: 1
EndChar

StartChar: b
Encoding: 98 98 404
Width: 672
GlyphClass: 2
Flags: W
AnchorPoint: "Anchor-6" 336 784 basechar 0
AnchorPoint: "Anchor-4" 336 0 basechar 0
LayerCount: 2
Fore
SplineSet
259.5 7 m 128,-1,1
 214 26 214 26 184 61 c 1,2,-1
 184 0 l 1,3,-1
 61 0 l 1,4,-1
 61 757 l 1,5,-1
 192 757 l 1,6,-1
 192 489 l 1,7,8
 221 521 221 521 264 538.5 c 128,-1,9
 307 556 307 556 359 556 c 0,10,11
 435 556 435 556 498 518.5 c 128,-1,12
 561 481 561 481 597 416 c 128,-1,13
 633 351 633 351 633 272 c 256,14,15
 633 193 633 193 597 128 c 128,-1,16
 561 63 561 63 498.5 25.5 c 128,-1,17
 436 -12 436 -12 358 -12 c 0,18,0
 305 -12 305 -12 259.5 7 c 128,-1,1
211.5 187.5 m 128,-1,20
 231 150 231 150 265.5 129 c 128,-1,21
 300 108 300 108 343 108 c 0,22,23
 410 108 410 108 453.5 154.5 c 128,-1,24
 497 201 497 201 497 272 c 0,25,26
 497 318 497 318 477 355.5 c 128,-1,27
 457 393 457 393 422 414.5 c 128,-1,28
 387 436 387 436 343 436 c 0,29,30
 300 436 300 436 265.5 415 c 128,-1,31
 231 394 231 394 211.5 356.5 c 128,-1,32
 192 319 192 319 192 272 c 256,33,19
 192 225 192 225 211.5 187.5 c 128,-1,20
EndSplineSet
Validated: 1
EndChar

StartChar: c
Encoding: 99 99 405
Width: 608
GlyphClass: 2
Flags: W
AnchorPoint: "Anchor-6" 323 544 basechar 0
AnchorPoint: "Anchor-4" 323 0 basechar 0
LayerCount: 2
Fore
SplineSet
177.5 25.5 m 128,-1,1
 112 63 112 63 75 128 c 128,-1,2
 38 193 38 193 38 273 c 256,3,4
 38 353 38 353 75 417.5 c 128,-1,5
 112 482 112 482 177 519 c 128,-1,6
 242 556 242 556 323 556 c 0,7,8
 410 556 410 556 478 511.5 c 128,-1,9
 546 467 546 467 571 395 c 1,10,-1
 457 345 l 1,11,12
 441 387 441 387 405 411.5 c 128,-1,13
 369 436 369 436 323 436 c 0,14,15
 281 436 281 436 247 415 c 128,-1,16
 213 394 213 394 193.5 356.5 c 128,-1,17
 174 319 174 319 174 272 c 256,18,19
 174 225 174 225 193.5 187.5 c 128,-1,20
 213 150 213 150 247 129 c 128,-1,21
 281 108 281 108 323 108 c 0,22,23
 370 108 370 108 405.5 132.5 c 128,-1,24
 441 157 441 157 457 200 c 1,25,-1
 571 148 l 1,26,27
 547 77 547 77 478.5 32.5 c 128,-1,28
 410 -12 410 -12 323 -12 c 0,29,0
 243 -12 243 -12 177.5 25.5 c 128,-1,1
EndSplineSet
Validated: 1
EndChar

StartChar: ccedilla
Encoding: 231 231 408
Width: 608
GlyphClass: 2
Flags: W
AnchorPoint: "Anchor-4" 323 0 basechar 0
LayerCount: 2
Fore
SplineSet
234 -240 m 1,1,-1
 246 -172 l 1,2,3
 270 -181 270 -181 308 -181 c 0,4,5
 332 -181 332 -181 345.5 -172.5 c 128,-1,6
 359 -164 359 -164 359 -148 c 0,7,8
 359 -135 359 -135 350.5 -127.5 c 128,-1,9
 342 -120 342 -120 326 -120 c 0,10,11
 302 -120 302 -120 287 -125 c 1,12,-1
 264 -114 l 1,13,-1
 278 -9 l 1,14,15
 209 1 209 1 154 40.5 c 128,-1,16
 99 80 99 80 68.5 140.5 c 128,-1,17
 38 201 38 201 38 273 c 0,18,19
 38 353 38 353 75 417.5 c 128,-1,20
 112 482 112 482 177 519 c 128,-1,21
 242 556 242 556 323 556 c 0,22,23
 410 556 410 556 478 511.5 c 128,-1,24
 546 467 546 467 571 395 c 1,25,-1
 457 345 l 1,26,27
 441 387 441 387 405 411.5 c 128,-1,28
 369 436 369 436 323 436 c 0,29,30
 281 436 281 436 247 415 c 128,-1,31
 213 394 213 394 193.5 356.5 c 128,-1,32
 174 319 174 319 174 272 c 256,33,34
 174 225 174 225 193.5 187.5 c 128,-1,35
 213 150 213 150 247 129 c 128,-1,36
 281 108 281 108 323 108 c 0,37,38
 370 108 370 108 405.5 132.5 c 128,-1,39
 441 157 441 157 457 200 c 1,40,-1
 571 148 l 1,41,42
 550 86 550 86 494.5 43.5 c 128,-1,43
 439 1 439 1 365 -9 c 1,44,-1
 361 -62 l 1,45,46
 366 -61 366 -61 376 -61 c 0,47,48
 415 -61 415 -61 440 -84 c 128,-1,49
 465 -107 465 -107 465 -145 c 0,50,51
 465 -191 465 -191 427 -221 c 128,-1,52
 389 -251 389 -251 318 -251 c 0,53,0
 270 -251 270 -251 234 -240 c 1,1,-1
EndSplineSet
Validated: 1
EndChar

StartChar: uni1E09
Encoding: 7689 7689 409
Width: 608
GlyphClass: 2
Flags: W
AnchorPoint: "Anchor-4" 323 0 basechar 0
LayerCount: 2
Fore
SplineSet
234 -240 m 1,1,-1
 246 -172 l 1,2,3
 270 -181 270 -181 308 -181 c 0,4,5
 332 -181 332 -181 345.5 -172.5 c 128,-1,6
 359 -164 359 -164 359 -148 c 0,7,8
 359 -135 359 -135 350.5 -127.5 c 128,-1,9
 342 -120 342 -120 326 -120 c 0,10,11
 302 -120 302 -120 287 -125 c 1,12,-1
 264 -114 l 1,13,-1
 278 -9 l 1,14,15
 209 1 209 1 154 40.5 c 128,-1,16
 99 80 99 80 68.5 140.5 c 128,-1,17
 38 201 38 201 38 273 c 0,18,19
 38 353 38 353 75 417.5 c 128,-1,20
 112 482 112 482 177 519 c 128,-1,21
 242 556 242 556 323 556 c 0,22,23
 410 556 410 556 478 511.5 c 128,-1,24
 546 467 546 467 571 395 c 1,25,-1
 457 345 l 1,26,27
 441 387 441 387 405 411.5 c 128,-1,28
 369 436 369 436 323 436 c 0,29,30
 281 436 281 436 247 415 c 128,-1,31
 213 394 213 394 193.5 356.5 c 128,-1,32
 174 319 174 319 174 272 c 256,33,34
 174 225 174 225 193.5 187.5 c 128,-1,35
 213 150 213 150 247 129 c 128,-1,36
 281 108 281 108 323 108 c 0,37,38
 370 108 370 108 405.5 132.5 c 128,-1,39
 441 157 441 157 457 200 c 1,40,-1
 571 148 l 1,41,42
 550 86 550 86 494.5 43.5 c 128,-1,43
 439 1 439 1 365 -9 c 1,44,-1
 361 -62 l 1,45,46
 366 -61 366 -61 376 -61 c 0,47,48
 415 -61 415 -61 440 -84 c 128,-1,49
 465 -107 465 -107 465 -145 c 0,50,51
 465 -191 465 -191 427 -221 c 128,-1,52
 389 -251 389 -251 318 -251 c 0,53,0
 270 -251 270 -251 234 -240 c 1,1,-1
329 784 m 1,54,-1
 476 784 l 1,55,-1
 380 640 l 1,56,-1
 266 640 l 1,57,-1
 329 784 l 1,54,-1
EndSplineSet
Validated: 1
EndChar

StartChar: d
Encoding: 100 100 412
Width: 672
GlyphClass: 2
Flags: W
AnchorPoint: "Anchor-7" 672 595 basechar 0
AnchorPoint: "Anchor-6" 336 784 basechar 0
AnchorPoint: "Anchor-4" 336 0 basechar 0
LayerCount: 2
Fore
SplineSet
173.5 25.5 m 128,-1,1
 111 63 111 63 75 128 c 128,-1,2
 39 193 39 193 39 272 c 256,3,4
 39 351 39 351 75 416 c 128,-1,5
 111 481 111 481 174 518.5 c 128,-1,6
 237 556 237 556 313 556 c 0,7,8
 365 556 365 556 408 538.5 c 128,-1,9
 451 521 451 521 480 489 c 1,10,-1
 480 757 l 1,11,-1
 611 757 l 1,12,-1
 611 0 l 1,13,-1
 487 0 l 1,14,-1
 487 60 l 1,15,16
 457 25 457 25 412 6.5 c 128,-1,17
 367 -12 367 -12 314 -12 c 0,18,0
 236 -12 236 -12 173.5 25.5 c 128,-1,1
194.5 187.5 m 128,-1,20
 214 150 214 150 249 129 c 128,-1,21
 284 108 284 108 328 108 c 256,22,23
 372 108 372 108 406.5 129 c 128,-1,24
 441 150 441 150 460.5 187.5 c 128,-1,25
 480 225 480 225 480 272 c 256,26,27
 480 319 480 319 460.5 356.5 c 128,-1,28
 441 394 441 394 406 415 c 128,-1,29
 371 436 371 436 328 436 c 0,30,31
 284 436 284 436 249 414.5 c 128,-1,32
 214 393 214 393 194.5 355.5 c 128,-1,33
 175 318 175 318 175 272 c 0,34,19
 175 225 175 225 194.5 187.5 c 128,-1,20
EndSplineSet
Validated: 1
EndChar

StartChar: eth
Encoding: 240 240 413
Width: 652
GlyphClass: 1
Flags: W
LayerCount: 2
Fore
SplineSet
183 24 m 128,-1,1
 117 60 117 60 78 124.5 c 128,-1,2
 39 189 39 189 39 269 c 0,3,4
 39 346 39 346 76 409.5 c 128,-1,5
 113 473 113 473 177 509.5 c 128,-1,6
 241 546 241 546 319 546 c 0,7,8
 402 546 402 546 459 500 c 1,9,10
 437 574 437 574 376 622 c 1,11,-1
 222 563 l 1,12,-1
 222 623 l 1,13,-1
 314 658 l 1,14,15
 259 681 259 681 197 681 c 0,16,17
 147 681 147 681 93 664 c 1,18,-1
 78 771 l 1,19,20
 152 796 152 796 220 796 c 0,21,22
 353 796 353 796 453 712 c 1,23,-1
 562 754 l 1,24,-1
 562 694 l 1,25,-1
 497 669 l 1,26,27
 553 604 553 604 583.5 515.5 c 128,-1,28
 614 427 614 427 614 330 c 0,29,30
 614 219 614 219 577.5 142 c 128,-1,31
 541 65 541 65 476 26.5 c 128,-1,32
 411 -12 411 -12 328 -12 c 0,33,0
 249 -12 249 -12 183 24 c 128,-1,1
195 185.5 m 128,-1,35
 215 149 215 149 249.5 128.5 c 128,-1,36
 284 108 284 108 327 108 c 256,37,38
 370 108 370 108 404 129 c 128,-1,39
 438 150 438 150 457.5 186.5 c 128,-1,40
 477 223 477 223 477 268 c 0,41,42
 477 336 477 336 436 381 c 128,-1,43
 395 426 395 426 327 426 c 256,44,45
 259 426 259 426 217 381.5 c 128,-1,46
 175 337 175 337 175 268 c 0,47,34
 175 222 175 222 195 185.5 c 128,-1,35
EndSplineSet
Validated: 1
EndChar

StartChar: dcroat
Encoding: 273 273 415
Width: 672
GlyphClass: 2
Flags: W
AnchorPoint: "Anchor-7" 672 595 basechar 0
AnchorPoint: "Anchor-6" 336 784 basechar 0
AnchorPoint: "Anchor-4" 336 0 basechar 0
LayerCount: 2
Fore
SplineSet
173.5 25.5 m 128,-1,1
 111 63 111 63 75 128 c 128,-1,2
 39 193 39 193 39 272 c 256,3,4
 39 351 39 351 75 416 c 128,-1,5
 111 481 111 481 174 518.5 c 128,-1,6
 237 556 237 556 313 556 c 0,7,8
 365 556 365 556 408 538.5 c 128,-1,9
 451 521 451 521 480 489 c 1,10,-1
 480 598 l 1,11,-1
 384 598 l 1,12,-1
 384 682 l 1,13,-1
 480 682 l 1,14,-1
 480 757 l 1,15,-1
 611 757 l 1,16,-1
 611 682 l 1,17,-1
 709 682 l 1,18,-1
 709 598 l 1,19,-1
 611 598 l 1,20,-1
 611 0 l 1,21,-1
 487 0 l 1,22,-1
 487 60 l 1,23,24
 457 25 457 25 412 6.5 c 128,-1,25
 367 -12 367 -12 314 -12 c 0,26,0
 236 -12 236 -12 173.5 25.5 c 128,-1,1
194.5 187.5 m 128,-1,28
 214 150 214 150 249 129 c 128,-1,29
 284 108 284 108 328 108 c 256,30,31
 372 108 372 108 406.5 129 c 128,-1,32
 441 150 441 150 460.5 187.5 c 128,-1,33
 480 225 480 225 480 272 c 256,34,35
 480 319 480 319 460.5 356.5 c 128,-1,36
 441 394 441 394 406 415 c 128,-1,37
 371 436 371 436 328 436 c 0,38,39
 284 436 284 436 249 414.5 c 128,-1,40
 214 393 214 393 194.5 355.5 c 128,-1,41
 175 318 175 318 175 272 c 0,42,27
 175 225 175 225 194.5 187.5 c 128,-1,28
EndSplineSet
Validated: 1
EndChar

StartChar: uni01C6
Encoding: 454 454 418
Width: 1153
GlyphClass: 1
Flags: W
LayerCount: 2
Fore
SplineSet
173.5 25.5 m 128,-1,1
 111 63 111 63 75 128 c 128,-1,2
 39 193 39 193 39 272 c 256,3,4
 39 351 39 351 75 416 c 128,-1,5
 111 481 111 481 174 518.5 c 128,-1,6
 237 556 237 556 313 556 c 0,7,8
 365 556 365 556 408 538.5 c 128,-1,9
 451 521 451 521 480 489 c 1,10,-1
 480 745 l 1,11,-1
 611 745 l 1,12,-1
 611 0 l 1,13,-1
 487 0 l 1,14,-1
 487 60 l 1,15,16
 457 25 457 25 412 6.5 c 128,-1,17
 367 -12 367 -12 314 -12 c 0,18,0
 236 -12 236 -12 173.5 25.5 c 128,-1,1
194.5 187.5 m 128,-1,20
 214 150 214 150 249 129 c 128,-1,21
 284 108 284 108 328 108 c 256,22,23
 372 108 372 108 406.5 129 c 128,-1,24
 441 150 441 150 460.5 187.5 c 128,-1,25
 480 225 480 225 480 272 c 256,26,27
 480 319 480 319 460.5 356.5 c 128,-1,28
 441 394 441 394 406 415 c 128,-1,29
 371 436 371 436 328 436 c 0,30,31
 284 436 284 436 249 414.5 c 128,-1,32
 214 393 214 393 194.5 355.5 c 128,-1,33
 175 318 175 318 175 272 c 0,34,19
 175 225 175 225 194.5 187.5 c 128,-1,20
685 106 m 1,35,-1
 963 427 l 1,36,-1
 699 427 l 1,37,-1
 699 544 l 1,38,-1
 1138 544 l 1,39,-1
 1138 437 l 1,40,-1
 866 116 l 1,41,-1
 1139 116 l 1,42,-1
 1139 0 l 1,43,-1
 685 0 l 1,44,-1
 685 106 l 1,35,-1
849 784 m 1,45,-1
 916 705 l 1,46,-1
 983 784 l 1,47,-1
 1103 784 l 1,48,-1
 983 640 l 1,49,-1
 847 640 l 1,50,-1
 727 784 l 1,51,-1
 849 784 l 1,45,-1
EndSplineSet
Validated: 1
EndChar

StartChar: e
Encoding: 101 101 419
Width: 612
GlyphClass: 2
Flags: W
AnchorPoint: "Anchor-6" 307 544 basechar 0
AnchorPoint: "Anchor-5" 319 41 basechar 0
AnchorPoint: "Anchor-4" 307 0 basechar 0
LayerCount: 2
Fore
SplineSet
173.5 26 m 128,-1,1
 110 64 110 64 74.5 129 c 128,-1,2
 39 194 39 194 39 273 c 0,3,4
 39 353 39 353 74.5 417.5 c 128,-1,5
 110 482 110 482 171.5 519 c 128,-1,6
 233 556 233 556 309 556 c 0,7,8
 391 556 391 556 451 520.5 c 128,-1,9
 511 485 511 485 542.5 424 c 128,-1,10
 574 363 574 363 574 290 c 0,11,12
 574 256 574 256 567 235 c 1,13,-1
 175 235 l 1,14,15
 181 175 181 175 221 139 c 128,-1,16
 261 103 261 103 320 103 c 0,17,18
 364 103 364 103 395.5 121.5 c 128,-1,19
 427 140 427 140 446 173 c 1,20,-1
 552 121 l 1,21,22
 527 61 527 61 464 24.5 c 128,-1,23
 401 -12 401 -12 319 -12 c 256,24,0
 237 -12 237 -12 173.5 26 c 128,-1,1
434 335 m 1,25,26
 429 385 429 385 395 416.5 c 128,-1,27
 361 448 361 448 309 448 c 0,28,29
 259 448 259 448 224 418.5 c 128,-1,30
 189 389 189 389 178 335 c 1,31,-1
 434 335 l 1,25,26
EndSplineSet
Validated: 1
Substitution2: "'ss03' Style Set 3 in Latin lookup 22 subtable" e.ss03
Substitution2: "'aalt' Access All Alternates in Latin lookup 0 subtable" e.ss03
EndChar

StartChar: e.ss03
Encoding: 65679 -1 420
Width: 612
GlyphClass: 2
Flags: W
AnchorPoint: "Anchor-6" 307 544 basechar 0
AnchorPoint: "Anchor-5" 319 41 basechar 0
AnchorPoint: "Anchor-4" 307 0 basechar 0
LayerCount: 2
Fore
SplineSet
175 25.5 m 128,-1,1
 110 63 110 63 74.5 128.5 c 128,-1,2
 39 194 39 194 39 273 c 0,3,4
 39 353 39 353 74.5 417.5 c 128,-1,5
 110 482 110 482 171.5 519 c 128,-1,6
 233 556 233 556 309 556 c 0,7,8
 391 556 391 556 451 520.5 c 128,-1,9
 511 485 511 485 542.5 424 c 128,-1,10
 574 363 574 363 574 290 c 0,11,12
 574 256 574 256 567 235 c 1,13,-1
 175 235 l 1,14,15
 180 175 180 175 220.5 139 c 128,-1,16
 261 103 261 103 324 103 c 2,17,-1
 521 103 l 1,18,-1
 521 -12 l 1,19,-1
 324 -12 l 2,20,0
 240 -12 240 -12 175 25.5 c 128,-1,1
434 335 m 1,21,22
 429 385 429 385 395 416.5 c 128,-1,23
 361 448 361 448 309 448 c 0,24,25
 259 448 259 448 224 418.5 c 128,-1,26
 189 389 189 389 178 335 c 1,27,-1
 434 335 l 1,21,22
EndSplineSet
Validated: 1
EndChar

StartChar: uni1E1D
Encoding: 7709 7709 427
Width: 612
GlyphClass: 2
Flags: W
AnchorPoint: "Anchor-5" 319 41 basechar 0
AnchorPoint: "Anchor-4" 307 0 basechar 0
LayerCount: 2
Fore
SplineSet
218 -240 m 1,1,-1
 230 -172 l 1,2,3
 254 -181 254 -181 292 -181 c 0,4,5
 316 -181 316 -181 329.5 -172.5 c 128,-1,6
 343 -164 343 -164 343 -148 c 0,7,8
 343 -135 343 -135 334.5 -127.5 c 128,-1,9
 326 -120 326 -120 310 -120 c 0,10,11
 286 -120 286 -120 271 -125 c 1,12,-1
 248 -114 l 1,13,-1
 262 -7 l 1,14,15
 196 5 196 5 145 45 c 128,-1,16
 94 85 94 85 66.5 144 c 128,-1,17
 39 203 39 203 39 273 c 0,18,19
 39 353 39 353 74.5 417.5 c 128,-1,20
 110 482 110 482 171.5 519 c 128,-1,21
 233 556 233 556 309 556 c 0,22,23
 391 556 391 556 451 520.5 c 128,-1,24
 511 485 511 485 542.5 424 c 128,-1,25
 574 363 574 363 574 290 c 0,26,27
 574 256 574 256 567 235 c 1,28,-1
 175 235 l 1,29,30
 181 175 181 175 221 139 c 128,-1,31
 261 103 261 103 320 103 c 0,32,33
 364 103 364 103 395.5 121.5 c 128,-1,34
 427 140 427 140 446 173 c 1,35,-1
 552 121 l 1,36,37
 529 67 529 67 475 31.5 c 128,-1,38
 421 -4 421 -4 349 -11 c 1,39,-1
 345 -62 l 1,40,41
 350 -61 350 -61 360 -61 c 0,42,43
 399 -61 399 -61 424 -84 c 128,-1,44
 449 -107 449 -107 449 -145 c 0,45,46
 449 -191 449 -191 411 -221 c 128,-1,47
 373 -251 373 -251 302 -251 c 0,48,0
 254 -251 254 -251 218 -240 c 1,1,-1
249 786 m 1,49,50
 249 763 249 763 265.5 747.5 c 128,-1,51
 282 732 282 732 307 732 c 256,52,53
 332 732 332 732 348.5 747.5 c 128,-1,54
 365 763 365 763 365 786 c 1,55,-1
 468 786 l 1,56,57
 468 747 468 747 446.5 713.5 c 128,-1,58
 425 680 425 680 388 660 c 128,-1,59
 351 640 351 640 307 640 c 0,60,61
 264 640 264 640 227 660 c 128,-1,62
 190 680 190 680 168 714 c 128,-1,63
 146 748 146 748 146 786 c 1,64,-1
 249 786 l 1,49,50
434 335 m 1,65,66
 429 385 429 385 395 416.5 c 128,-1,67
 361 448 361 448 309 448 c 0,68,69
 259 448 259 448 224 418.5 c 128,-1,70
 189 389 189 389 178 335 c 1,71,-1
 434 335 l 1,65,66
EndSplineSet
Validated: 1
Substitution2: "'ss03' Style Set 3 in Latin lookup 22 subtable" uni1E1D.ss03
Substitution2: "'aalt' Access All Alternates in Latin lookup 0 subtable" uni1E1D.ss03
EndChar

StartChar: uni1E1D.ss03
Encoding: 65683 -1 428
Width: 612
GlyphClass: 2
Flags: W
AnchorPoint: "Anchor-5" 319 41 basechar 0
AnchorPoint: "Anchor-4" 307 0 basechar 0
LayerCount: 2
Fore
SplineSet
218 -240 m 1,1,-1
 230 -172 l 1,2,3
 254 -181 254 -181 292 -181 c 0,4,5
 316 -181 316 -181 329.5 -172.5 c 128,-1,6
 343 -164 343 -164 343 -148 c 0,7,8
 343 -135 343 -135 334.5 -127.5 c 128,-1,9
 326 -120 326 -120 310 -120 c 0,10,11
 286 -120 286 -120 271 -125 c 1,12,-1
 248 -114 l 1,13,-1
 262 -6 l 1,14,15
 195 7 195 7 144.5 46.5 c 128,-1,16
 94 86 94 86 66.5 145 c 128,-1,17
 39 204 39 204 39 273 c 0,18,19
 39 353 39 353 74.5 417.5 c 128,-1,20
 110 482 110 482 171.5 519 c 128,-1,21
 233 556 233 556 309 556 c 0,22,23
 391 556 391 556 451 520.5 c 128,-1,24
 511 485 511 485 542.5 424 c 128,-1,25
 574 363 574 363 574 290 c 0,26,27
 574 256 574 256 567 235 c 1,28,-1
 175 235 l 1,29,30
 180 175 180 175 220.5 139 c 128,-1,31
 261 103 261 103 324 103 c 2,32,-1
 521 103 l 1,33,-1
 521 -12 l 1,34,-1
 349 -12 l 1,35,-1
 345 -62 l 1,36,37
 350 -61 350 -61 360 -61 c 0,38,39
 399 -61 399 -61 424 -84 c 128,-1,40
 449 -107 449 -107 449 -145 c 0,41,42
 449 -191 449 -191 411 -221 c 128,-1,43
 373 -251 373 -251 302 -251 c 0,44,0
 254 -251 254 -251 218 -240 c 1,1,-1
249 786 m 1,45,46
 249 763 249 763 265.5 747.5 c 128,-1,47
 282 732 282 732 307 732 c 256,48,49
 332 732 332 732 348.5 747.5 c 128,-1,50
 365 763 365 763 365 786 c 1,51,-1
 468 786 l 1,52,53
 468 747 468 747 446.5 713.5 c 128,-1,54
 425 680 425 680 388 660 c 128,-1,55
 351 640 351 640 307 640 c 0,56,57
 264 640 264 640 227 660 c 128,-1,58
 190 680 190 680 168 714 c 128,-1,59
 146 748 146 748 146 786 c 1,60,-1
 249 786 l 1,45,46
434 335 m 1,61,62
 429 385 429 385 395 416.5 c 128,-1,63
 361 448 361 448 309 448 c 0,64,65
 259 448 259 448 224 418.5 c 128,-1,66
 189 389 189 389 178 335 c 1,67,-1
 434 335 l 1,61,62
EndSplineSet
Validated: 1
EndChar

StartChar: eogonek
Encoding: 281 281 461
Width: 612
GlyphClass: 2
Flags: W
AnchorPoint: "Anchor-6" 307 544 basechar 0
AnchorPoint: "Anchor-5" 319 41 basechar 0
AnchorPoint: "Anchor-4" 307 0 basechar 0
LayerCount: 2
Fore
SplineSet
289 -11 m 1,1,2
 243 -34 243 -34 243 -69 c 0,3,4
 243 -90 243 -90 258.5 -102.5 c 128,-1,5
 274 -115 274 -115 303 -115 c 0,6,7
 346 -115 346 -115 390 -87 c 1,8,-1
 430 -155 l 1,9,10
 366 -206 366 -206 290 -206 c 0,11,12
 226 -206 226 -206 185 -176 c 128,-1,13
 144 -146 144 -146 144 -95 c 0,14,15
 144 -63 144 -63 160.5 -36 c 128,-1,16
 177 -9 177 -9 206 10 c 1,17,18
 129 41 129 41 84 112 c 128,-1,19
 39 183 39 183 39 273 c 0,20,21
 39 353 39 353 74.5 417.5 c 128,-1,22
 110 482 110 482 171.5 519 c 128,-1,23
 233 556 233 556 309 556 c 0,24,25
 391 556 391 556 451 520.5 c 128,-1,26
 511 485 511 485 542.5 424 c 128,-1,27
 574 363 574 363 574 290 c 0,28,29
 574 256 574 256 567 235 c 1,30,-1
 175 235 l 1,31,32
 181 175 181 175 221 139 c 128,-1,33
 261 103 261 103 320 103 c 0,34,35
 364 103 364 103 395.5 121.5 c 128,-1,36
 427 140 427 140 446 173 c 1,37,-1
 552 121 l 1,38,39
 527 61 527 61 464 24.5 c 128,-1,40
 401 -12 401 -12 319 -12 c 0,41,0
 299 -12 299 -12 289 -11 c 1,1,2
434 335 m 1,42,43
 429 385 429 385 395 416.5 c 128,-1,44
 361 448 361 448 309 448 c 0,45,46
 259 448 259 448 224 418.5 c 128,-1,47
 189 389 189 389 178 335 c 1,48,-1
 434 335 l 1,42,43
EndSplineSet
Validated: 1
Substitution2: "'ss03' Style Set 3 in Latin lookup 22 subtable" eogonek.ss03
Substitution2: "'aalt' Access All Alternates in Latin lookup 0 subtable" eogonek.ss03
EndChar

StartChar: eogonek.ss03
Encoding: 65700 -1 462
Width: 612
GlyphClass: 2
Flags: W
AnchorPoint: "Anchor-6" 307 544 basechar 0
AnchorPoint: "Anchor-5" 319 41 basechar 0
AnchorPoint: "Anchor-4" 307 0 basechar 0
LayerCount: 2
Fore
SplineSet
290 -10 m 1,1,2
 243 -34 243 -34 243 -69 c 0,3,4
 243 -90 243 -90 258.5 -102.5 c 128,-1,5
 274 -115 274 -115 303 -115 c 0,6,7
 346 -115 346 -115 390 -87 c 1,8,-1
 430 -155 l 1,9,10
 366 -206 366 -206 290 -206 c 0,11,12
 226 -206 226 -206 185 -176 c 128,-1,13
 144 -146 144 -146 144 -95 c 0,14,15
 144 -63 144 -63 161 -36 c 128,-1,16
 178 -9 178 -9 207 10 c 1,17,18
 129 42 129 42 84 113 c 128,-1,19
 39 184 39 184 39 273 c 0,20,21
 39 353 39 353 74.5 417.5 c 128,-1,22
 110 482 110 482 171.5 519 c 128,-1,23
 233 556 233 556 309 556 c 0,24,25
 391 556 391 556 451 520.5 c 128,-1,26
 511 485 511 485 542.5 424 c 128,-1,27
 574 363 574 363 574 290 c 0,28,29
 574 256 574 256 567 235 c 1,30,-1
 175 235 l 1,31,32
 180 175 180 175 220.5 139 c 128,-1,33
 261 103 261 103 324 103 c 2,34,-1
 521 103 l 1,35,-1
 521 -12 l 1,36,-1
 324 -12 l 2,37,0
 312 -12 312 -12 290 -10 c 1,1,2
434 335 m 1,38,39
 429 385 429 385 395 416.5 c 128,-1,40
 361 448 361 448 309 448 c 0,41,42
 259 448 259 448 224 418.5 c 128,-1,43
 189 389 189 389 178 335 c 1,44,-1
 434 335 l 1,38,39
EndSplineSet
Validated: 1
EndChar

StartChar: uni0259
Encoding: 601 601 465
Width: 612
GlyphClass: 1
Flags: W
LayerCount: 2
Fore
SplineSet
161.5 23.5 m 128,-1,1
 102 59 102 59 70.5 119.5 c 128,-1,2
 39 180 39 180 39 254 c 0,3,4
 39 291 39 291 45 309 c 1,5,-1
 437 309 l 1,6,7
 431 369 431 369 391 405 c 128,-1,8
 351 441 351 441 292 441 c 0,9,10
 249 441 249 441 217 422.5 c 128,-1,11
 185 404 185 404 166 371 c 1,12,-1
 60 422 l 1,13,14
 85 482 85 482 148 519 c 128,-1,15
 211 556 211 556 293 556 c 256,16,17
 375 556 375 556 439 518 c 128,-1,18
 503 480 503 480 538.5 415 c 128,-1,19
 574 350 574 350 574 271 c 0,20,21
 574 191 574 191 538.5 126 c 128,-1,22
 503 61 503 61 441 24.5 c 128,-1,23
 379 -12 379 -12 303 -12 c 0,24,0
 221 -12 221 -12 161.5 23.5 c 128,-1,1
216.5 127.5 m 128,-1,26
 251 96 251 96 303 96 c 0,27,28
 353 96 353 96 388.5 125.5 c 128,-1,29
 424 155 424 155 434 209 c 1,30,-1
 178 209 l 1,31,25
 182 159 182 159 216.5 127.5 c 128,-1,26
EndSplineSet
Validated: 1
EndChar

StartChar: f
Encoding: 102 102 466
Width: 406
GlyphClass: 2
Flags: W
AnchorPoint: "Anchor-6" 203 784 basechar 0
AnchorPoint: "Anchor-4" 203 0 basechar 0
LayerCount: 2
Fore
SplineSet
124 417 m 1,0,-1
 28 417 l 1,1,-1
 28 533 l 1,2,-1
 124 533 l 1,3,-1
 124 551 l 2,4,5
 124 651 124 651 179.5 708.5 c 128,-1,6
 235 766 235 766 330 766 c 0,7,8
 358 766 358 766 381 761 c 1,9,-1
 381 648 l 1,10,11
 363 651 363 651 347 651 c 0,12,13
 255 651 255 651 255 551 c 2,14,-1
 255 533 l 1,15,-1
 376 533 l 1,16,-1
 376 417 l 1,17,-1
 255 417 l 1,18,-1
 255 0 l 1,19,-1
 124 0 l 1,20,-1
 124 417 l 1,0,-1
EndSplineSet
Validated: 1
Substitution2: "'ss01' Style Set 1 in Latin lookup 20 subtable" f.ss01
Substitution2: "'salt' Stylistic Alternatives in Latin lookup 19 subtable" f.ss01
Substitution2: "'aalt' Access All Alternates in Latin lookup 0 subtable" f.ss01
EndChar

StartChar: f.ss01
Encoding: 65702 -1 467
Width: 406
GlyphClass: 1
Flags: W
LayerCount: 2
Fore
SplineSet
124 427 m 1,0,-1
 28 427 l 1,1,-1
 28 544 l 1,2,-1
 124 544 l 1,3,-1
 124 745 l 1,4,-1
 381 745 l 1,5,-1
 381 638 l 1,6,-1
 255 638 l 1,7,-1
 255 544 l 1,8,-1
 376 544 l 1,9,-1
 376 427 l 1,10,-1
 255 427 l 1,11,-1
 255 0 l 1,12,-1
 124 0 l 1,13,-1
 124 427 l 1,0,-1
EndSplineSet
Validated: 1
EndChar

StartChar: g
Encoding: 103 103 468
Width: 652
GlyphClass: 2
Flags: W
AnchorPoint: "Anchor-6" 326 544 basechar 0
AnchorPoint: "Anchor-4" 326 -240 basechar 0
LayerCount: 2
Fore
SplineSet
163.5 -176.5 m 128,-1,1
 94 -133 94 -133 68 -61 c 1,2,-1
 190 -15 l 1,3,4
 202 -54 202 -54 238 -77 c 128,-1,5
 274 -100 274 -100 325 -100 c 0,6,7
 385 -100 385 -100 422.5 -66 c 128,-1,8
 460 -32 460 -32 460 27 c 2,9,-1
 460 86 l 1,10,11
 402 22 402 22 303 22 c 0,12,13
 228 22 228 22 167.5 57 c 128,-1,14
 107 92 107 92 73 153 c 128,-1,15
 39 214 39 214 39 290 c 256,16,17
 39 366 39 366 72.5 426.5 c 128,-1,18
 106 487 106 487 166 521.5 c 128,-1,19
 226 556 226 556 300 556 c 0,20,21
 405 556 405 556 467 482 c 1,22,-1
 467 544 l 1,23,-1
 591 544 l 1,24,-1
 591 27 l 2,25,26
 591 -44 591 -44 557 -100.5 c 128,-1,27
 523 -157 523 -157 462.5 -188.5 c 128,-1,28
 402 -220 402 -220 325 -220 c 0,29,0
 233 -220 233 -220 163.5 -176.5 c 128,-1,1
215.5 184.5 m 128,-1,31
 256 143 256 143 319 143 c 0,32,33
 381 143 381 143 420.5 184 c 128,-1,34
 460 225 460 225 460 289 c 256,35,36
 460 353 460 353 420 394.5 c 128,-1,37
 380 436 380 436 319 436 c 0,38,39
 257 436 257 436 216 394 c 128,-1,40
 175 352 175 352 175 289 c 256,41,30
 175 226 175 226 215.5 184.5 c 128,-1,31
EndSplineSet
Validated: 1
Substitution2: "'ss03' Style Set 3 in Latin lookup 22 subtable" g.ss03
Substitution2: "'ss01' Style Set 1 in Latin lookup 20 subtable" g.ss01
Substitution2: "'salt' Stylistic Alternatives in Latin lookup 19 subtable" g.ss01
AlternateSubs2: "'aalt' Access All Alternates in Latin lookup 1 subtable" g.ss01 g.ss03
EndChar

StartChar: g.ss01
Encoding: 65703 -1 469
Width: 652
GlyphClass: 2
Flags: W
AnchorPoint: "Anchor-6" 326 544 basechar 0
AnchorPoint: "Anchor-4" 326 -240 basechar 0
LayerCount: 2
Fore
SplineSet
108 -104 m 1,0,-1
 460 -104 l 1,1,-1
 460 86 l 1,2,3
 402 22 402 22 303 22 c 0,4,5
 228 22 228 22 167.5 57 c 128,-1,6
 107 92 107 92 73 153 c 128,-1,7
 39 214 39 214 39 290 c 256,8,9
 39 366 39 366 72.5 426.5 c 128,-1,10
 106 487 106 487 166 521.5 c 128,-1,11
 226 556 226 556 300 556 c 0,12,13
 405 556 405 556 467 482 c 1,14,-1
 467 544 l 1,15,-1
 591 544 l 1,16,-1
 591 -220 l 1,17,-1
 108 -220 l 1,18,-1
 108 -104 l 1,0,-1
215.5 184.5 m 128,-1,20
 256 143 256 143 319 143 c 0,21,22
 381 143 381 143 420.5 184 c 128,-1,23
 460 225 460 225 460 289 c 256,24,25
 460 353 460 353 420 394.5 c 128,-1,26
 380 436 380 436 319 436 c 0,27,28
 257 436 257 436 216 394 c 128,-1,29
 175 352 175 352 175 289 c 256,30,19
 175 226 175 226 215.5 184.5 c 128,-1,20
EndSplineSet
Validated: 1
EndChar

StartChar: g.ss03
Encoding: 65704 -1 470
Width: 652
GlyphClass: 2
Flags: W
AnchorPoint: "Anchor-6" 326 544 basechar 0
AnchorPoint: "Anchor-4" 326 -240 basechar 0
LayerCount: 2
Fore
SplineSet
123 -104 m 1,0,-1
 325 -104 l 2,1,2
 388 -104 388 -104 424 -73.5 c 128,-1,3
 460 -43 460 -43 460 10 c 2,4,-1
 460 86 l 1,5,6
 402 22 402 22 303 22 c 0,7,8
 228 22 228 22 167.5 57 c 128,-1,9
 107 92 107 92 73 153 c 128,-1,10
 39 214 39 214 39 290 c 256,11,12
 39 366 39 366 72.5 426.5 c 128,-1,13
 106 487 106 487 166 521.5 c 128,-1,14
 226 556 226 556 300 556 c 0,15,16
 405 556 405 556 467 482 c 1,17,-1
 467 544 l 1,18,-1
 591 544 l 1,19,-1
 591 10 l 2,20,21
 591 -97 591 -97 520 -158.5 c 128,-1,22
 449 -220 449 -220 325 -220 c 2,23,-1
 123 -220 l 1,24,-1
 123 -104 l 1,0,-1
215.5 184.5 m 128,-1,26
 256 143 256 143 319 143 c 0,27,28
 381 143 381 143 420.5 184 c 128,-1,29
 460 225 460 225 460 289 c 256,30,31
 460 353 460 353 420 394.5 c 128,-1,32
 380 436 380 436 319 436 c 0,33,34
 257 436 257 436 216 394 c 128,-1,35
 175 352 175 352 175 289 c 256,36,25
 175 226 175 226 215.5 184.5 c 128,-1,26
EndSplineSet
Validated: 1
EndChar

StartChar: h
Encoding: 104 104 489
Width: 593
GlyphClass: 2
Flags: W
AnchorPoint: "Anchor-6" 126 754 basechar 0
AnchorPoint: "Anchor-4" 297 0 basechar 0
LayerCount: 2
Fore
SplineSet
61 757 m 1,0,-1
 192 757 l 1,1,-1
 192 490 l 1,2,3
 215 522 215 522 253 539 c 128,-1,4
 291 556 291 556 338 556 c 0,5,6
 397 556 397 556 444 530 c 128,-1,7
 491 504 491 504 517 457 c 128,-1,8
 543 410 543 410 543 350 c 2,9,-1
 543 0 l 1,10,-1
 412 0 l 1,11,-1
 412 319 l 2,12,13
 412 372 412 372 381.5 404 c 128,-1,14
 351 436 351 436 302 436 c 0,15,16
 254 436 254 436 223 404 c 128,-1,17
 192 372 192 372 192 319 c 2,18,-1
 192 0 l 1,19,-1
 61 0 l 1,20,-1
 61 757 l 1,0,-1
EndSplineSet
Validated: 1
Substitution2: "'ss03' Style Set 3 in Latin lookup 22 subtable" h.ss03
Substitution2: "'ss01' Style Set 1 in Latin lookup 20 subtable" h.ss01
Substitution2: "'salt' Stylistic Alternatives in Latin lookup 19 subtable" h.ss01
AlternateSubs2: "'aalt' Access All Alternates in Latin lookup 1 subtable" h.ss01 h.ss03
EndChar

StartChar: h.ss01
Encoding: 65717 -1 490
Width: 593
GlyphClass: 2
Flags: W
AnchorPoint: "Anchor-6" 126 754 basechar 0
AnchorPoint: "Anchor-4" 297 0 basechar 0
LayerCount: 2
Fore
SplineSet
412 427 m 1,0,-1
 192 427 l 1,1,-1
 192 0 l 1,2,-1
 61 0 l 1,3,-1
 61 757 l 1,4,-1
 192 757 l 1,5,-1
 192 544 l 1,6,-1
 543 544 l 1,7,-1
 543 0 l 1,8,-1
 412 0 l 1,9,-1
 412 427 l 1,0,-1
EndSplineSet
Validated: 1
EndChar

StartChar: h.ss03
Encoding: 65718 -1 491
Width: 593
GlyphClass: 2
Flags: W
AnchorPoint: "Anchor-6" 126 754 basechar 0
AnchorPoint: "Anchor-4" 297 0 basechar 0
LayerCount: 2
Fore
SplineSet
61 757 m 1,0,-1
 192 757 l 1,1,-1
 192 544 l 1,2,-1
 309 544 l 2,3,4
 418 544 418 544 480.5 487 c 128,-1,5
 543 430 543 430 543 331 c 2,6,-1
 543 0 l 1,7,-1
 412 0 l 1,8,-1
 412 325 l 2,9,10
 412 372 412 372 384 399.5 c 128,-1,11
 356 427 356 427 309 427 c 2,12,-1
 192 427 l 1,13,-1
 192 0 l 1,14,-1
 61 0 l 1,15,-1
 61 757 l 1,0,-1
EndSplineSet
Validated: 1
EndChar

StartChar: hbar
Encoding: 295 295 492
Width: 593
GlyphClass: 2
Flags: W
AnchorPoint: "Anchor-6" 126 754 basechar 0
AnchorPoint: "Anchor-4" 297 0 basechar 0
LayerCount: 2
Fore
SplineSet
61 598 m 1,0,-1
 -37 598 l 1,1,-1
 -37 682 l 1,2,-1
 61 682 l 1,3,-1
 61 757 l 1,4,-1
 192 757 l 1,5,-1
 192 682 l 1,6,-1
 289 682 l 1,7,-1
 289 598 l 1,8,-1
 192 598 l 1,9,-1
 192 490 l 1,10,11
 215 522 215 522 253 539 c 128,-1,12
 291 556 291 556 338 556 c 0,13,14
 397 556 397 556 444 530 c 128,-1,15
 491 504 491 504 517 457 c 128,-1,16
 543 410 543 410 543 350 c 2,17,-1
 543 0 l 1,18,-1
 412 0 l 1,19,-1
 412 319 l 2,20,21
 412 372 412 372 381.5 404 c 128,-1,22
 351 436 351 436 302 436 c 0,23,24
 254 436 254 436 223 404 c 128,-1,25
 192 372 192 372 192 319 c 2,26,-1
 192 0 l 1,27,-1
 61 0 l 1,28,-1
 61 598 l 1,0,-1
EndSplineSet
Validated: 1
Substitution2: "'ss03' Style Set 3 in Latin lookup 22 subtable" hbar.ss03
Substitution2: "'ss01' Style Set 1 in Latin lookup 20 subtable" hbar.ss01
Substitution2: "'salt' Stylistic Alternatives in Latin lookup 19 subtable" hbar.ss01
AlternateSubs2: "'aalt' Access All Alternates in Latin lookup 1 subtable" hbar.ss01 hbar.ss03
EndChar

StartChar: hbar.ss01
Encoding: 65719 -1 493
Width: 593
GlyphClass: 2
Flags: W
AnchorPoint: "Anchor-6" 126 754 basechar 0
AnchorPoint: "Anchor-4" 297 0 basechar 0
LayerCount: 2
Fore
SplineSet
412 427 m 1,0,-1
 192 427 l 1,1,-1
 192 0 l 1,2,-1
 61 0 l 1,3,-1
 61 598 l 1,4,-1
 -37 598 l 1,5,-1
 -37 682 l 1,6,-1
 61 682 l 1,7,-1
 61 757 l 1,8,-1
 192 757 l 1,9,-1
 192 682 l 1,10,-1
 289 682 l 1,11,-1
 289 598 l 1,12,-1
 192 598 l 1,13,-1
 192 544 l 1,14,-1
 543 544 l 1,15,-1
 543 0 l 1,16,-1
 412 0 l 1,17,-1
 412 427 l 1,0,-1
EndSplineSet
Validated: 1
EndChar

StartChar: hbar.ss03
Encoding: 65720 -1 494
Width: 593
GlyphClass: 2
Flags: W
AnchorPoint: "Anchor-6" 126 754 basechar 0
AnchorPoint: "Anchor-4" 297 0 basechar 0
LayerCount: 2
Fore
SplineSet
61 598 m 1,0,-1
 -37 598 l 1,1,-1
 -37 682 l 1,2,-1
 61 682 l 1,3,-1
 61 757 l 1,4,-1
 192 757 l 1,5,-1
 192 682 l 1,6,-1
 289 682 l 1,7,-1
 289 598 l 1,8,-1
 192 598 l 1,9,-1
 192 544 l 1,10,-1
 309 544 l 2,11,12
 418 544 418 544 480.5 487 c 128,-1,13
 543 430 543 430 543 331 c 2,14,-1
 543 0 l 1,15,-1
 412 0 l 1,16,-1
 412 325 l 2,17,18
 412 372 412 372 384 399.5 c 128,-1,19
 356 427 356 427 309 427 c 2,20,-1
 192 427 l 1,21,-1
 192 0 l 1,22,-1
 61 0 l 1,23,-1
 61 598 l 1,0,-1
EndSplineSet
Validated: 1
EndChar

StartChar: i
Encoding: 105 105 504
Width: 252
GlyphClass: 2
Flags: W
AnchorPoint: "Anchor-4" 126 0 basechar 0
LayerCount: 2
Fore
SplineSet
61 544 m 1,0,-1
 192 544 l 1,1,-1
 192 0 l 1,2,-1
 61 0 l 1,3,-1
 61 544 l 1,0,-1
71 750 m 128,-1,5
 91 770 91 770 126 770 c 0,6,7
 162 770 162 770 182 750 c 128,-1,8
 202 730 202 730 202 694 c 0,9,10
 202 659 202 659 182.5 639 c 128,-1,11
 163 619 163 619 126 619 c 0,12,13
 91 619 91 619 71 639 c 128,-1,14
 51 659 51 659 51 694 c 0,15,4
 51 730 51 730 71 750 c 128,-1,5
EndSplineSet
Validated: 1
Substitution2: "Single Substitution lookup 25 subtable" dotlessi
Substitution2: "'ss01' Style Set 1 in Latin lookup 20 subtable" i.ss01
Substitution2: "'salt' Stylistic Alternatives in Latin lookup 19 subtable" i.ss01
Substitution2: "'locl' Localized Forms in Latin lookup 5 subtable" i.loclTRK
AlternateSubs2: "'aalt' Access All Alternates in Latin lookup 1 subtable" i.loclTRK i.ss01
EndChar

StartChar: i.ss01
Encoding: 65727 -1 505
Width: 309
GlyphClass: 2
Flags: W
AnchorPoint: "Anchor-4" 183 0 basechar 0
LayerCount: 2
Fore
SplineSet
117 427 m 1,0,-1
 31 427 l 1,1,-1
 31 544 l 1,2,-1
 248 544 l 1,3,-1
 248 0 l 1,4,-1
 117 0 l 1,5,-1
 117 427 l 1,0,-1
117 745 m 1,6,-1
 248 745 l 1,7,-1
 248 605 l 1,8,-1
 117 605 l 1,9,-1
 117 745 l 1,6,-1
EndSplineSet
Validated: 1
EndChar

StartChar: dotlessi
Encoding: 305 305 506
Width: 228
GlyphClass: 2
Flags: W
AnchorPoint: "Anchor-6" 114 544 basechar 0
AnchorPoint: "Anchor-5" 114 41 basechar 0
AnchorPoint: "Anchor-4" 114 0 basechar 0
LayerCount: 2
Fore
SplineSet
49 544 m 1,0,-1
 180 544 l 1,1,-1
 180 0 l 1,2,-1
 49 0 l 1,3,-1
 49 544 l 1,0,-1
EndSplineSet
Validated: 1
Substitution2: "'ss01' Style Set 1 in Latin lookup 20 subtable" dotlessi.ss01
Substitution2: "'salt' Stylistic Alternatives in Latin lookup 19 subtable" dotlessi.ss01
Substitution2: "'aalt' Access All Alternates in Latin lookup 0 subtable" dotlessi.ss01
EndChar

StartChar: dotlessi.ss01
Encoding: 65728 -1 507
Width: 290
GlyphClass: 2
Flags: W
AnchorPoint: "Anchor-6" 176 544 basechar 0
AnchorPoint: "Anchor-5" 176 41 basechar 0
AnchorPoint: "Anchor-4" 176 0 basechar 0
LayerCount: 2
Fore
SplineSet
111 427 m 1,0,-1
 24 427 l 1,1,-1
 24 544 l 1,2,-1
 242 544 l 1,3,-1
 242 0 l 1,4,-1
 111 0 l 1,5,-1
 111 427 l 1,0,-1
EndSplineSet
Validated: 1
EndChar

StartChar: iogonek
Encoding: 303 303 532
Width: 228
GlyphClass: 2
Flags: W
AnchorPoint: "Anchor-6" 114 544 basechar 0
AnchorPoint: "Anchor-5" 114 41 basechar 0
AnchorPoint: "Anchor-4" 114 0 basechar 0
LayerCount: 2
Fore
SplineSet
62 666.5 m 128,-1,1
 41 688 41 688 41 718 c 256,2,3
 41 748 41 748 62 769 c 128,-1,4
 83 790 83 790 114 790 c 0,5,6
 143 790 143 790 164.5 769 c 128,-1,7
 186 748 186 748 186 718 c 256,8,9
 186 688 186 688 165 666.5 c 128,-1,10
 144 645 144 645 114 645 c 0,11,0
 83 645 83 645 62 666.5 c 128,-1,1
-31.5 -17.5 m 128,-1,13
 -1 16 -1 16 49 32 c 1,14,-1
 49 544 l 1,15,-1
 180 544 l 1,16,-1
 180 0 l 1,17,-1
 108 0 l 1,18,19
 38 -26 38 -26 38 -69 c 0,20,21
 38 -90 38 -90 53.5 -102.5 c 128,-1,22
 69 -115 69 -115 98 -115 c 0,23,24
 141 -115 141 -115 185 -87 c 1,25,-1
 225 -155 l 1,26,27
 161 -206 161 -206 85 -206 c 0,28,29
 21 -206 21 -206 -20.5 -176 c 128,-1,30
 -62 -146 -62 -146 -62 -95 c 0,31,12
 -62 -51 -62 -51 -31.5 -17.5 c 128,-1,13
EndSplineSet
Validated: 1
Substitution2: "'ss01' Style Set 1 in Latin lookup 20 subtable" iogonek.ss01
Substitution2: "'salt' Stylistic Alternatives in Latin lookup 19 subtable" iogonek.ss01
Substitution2: "'aalt' Access All Alternates in Latin lookup 0 subtable" iogonek.ss01
EndChar

StartChar: iogonek.ss01
Encoding: 65742 -1 533
Width: 290
GlyphClass: 2
Flags: W
AnchorPoint: "Anchor-6" 176 544 basechar 0
AnchorPoint: "Anchor-5" 176 41 basechar 0
AnchorPoint: "Anchor-4" 176 0 basechar 0
LayerCount: 2
Fore
SplineSet
125 666.5 m 128,-1,1
 104 688 104 688 104 718 c 256,2,3
 104 748 104 748 125 769 c 128,-1,4
 146 790 146 790 177 790 c 0,5,6
 206 790 206 790 227.5 769 c 128,-1,7
 249 748 249 748 249 718 c 256,8,9
 249 688 249 688 228 666.5 c 128,-1,10
 207 645 207 645 177 645 c 0,11,0
 146 645 146 645 125 666.5 c 128,-1,1
31 -17.5 m 128,-1,13
 61 16 61 16 111 32 c 1,14,-1
 111 427 l 1,15,-1
 24 427 l 1,16,-1
 24 544 l 1,17,-1
 242 544 l 1,18,-1
 242 0 l 1,19,-1
 170 0 l 1,20,21
 100 -26 100 -26 100 -69 c 0,22,23
 100 -90 100 -90 115.5 -102.5 c 128,-1,24
 131 -115 131 -115 160 -115 c 0,25,26
 203 -115 203 -115 247 -87 c 1,27,-1
 287 -155 l 1,28,29
 223 -206 223 -206 147 -206 c 0,30,31
 83 -206 83 -206 42 -176 c 128,-1,32
 1 -146 1 -146 1 -95 c 0,33,12
 1 -51 1 -51 31 -17.5 c 128,-1,13
EndSplineSet
Validated: 1
EndChar

StartChar: j
Encoding: 106 106 536
Width: 252
GlyphClass: 1
Flags: W
LayerCount: 2
Fore
SplineSet
-65 -217 m 1,1,-1
 -65 -104 l 1,2,3
 -47 -107 -47 -107 -29 -107 c 0,4,5
 14 -107 14 -107 37.5 -87 c 128,-1,6
 61 -67 61 -67 61 -28 c 2,7,-1
 61 544 l 1,8,-1
 192 544 l 1,9,-1
 192 -28 l 2,10,11
 192 -120 192 -120 137 -171 c 128,-1,12
 82 -222 82 -222 -14 -222 c 0,13,0
 -43 -222 -43 -222 -65 -217 c 1,1,-1
71 750 m 128,-1,15
 91 770 91 770 126 770 c 0,16,17
 162 770 162 770 182 750 c 128,-1,18
 202 730 202 730 202 694 c 0,19,20
 202 659 202 659 182.5 639 c 128,-1,21
 163 619 163 619 126 619 c 0,22,23
 91 619 91 619 71 639 c 128,-1,24
 51 659 51 659 51 694 c 0,25,14
 51 730 51 730 71 750 c 128,-1,15
EndSplineSet
Validated: 1
Substitution2: "Single Substitution lookup 25 subtable" uni0237
Substitution2: "'ss02' Style Set 2 in Latin lookup 21 subtable" j.ss02
Substitution2: "'ss01' Style Set 1 in Latin lookup 20 subtable" j.ss01
Substitution2: "'salt' Stylistic Alternatives in Latin lookup 19 subtable" j.ss01
AlternateSubs2: "'aalt' Access All Alternates in Latin lookup 1 subtable" j.ss01 j.ss02
EndChar

StartChar: j.ss01
Encoding: 65744 -1 537
Width: 240
GlyphClass: 1
Flags: W
LayerCount: 2
Fore
SplineSet
-65 -107 m 1,0,-1
 48 -107 l 1,1,-1
 48 544 l 1,2,-1
 179 544 l 1,3,-1
 179 -222 l 1,4,-1
 -65 -222 l 1,5,-1
 -65 -107 l 1,0,-1
48 745 m 1,6,-1
 179 745 l 1,7,-1
 179 605 l 1,8,-1
 48 605 l 1,9,-1
 48 745 l 1,6,-1
EndSplineSet
Validated: 1
EndChar

StartChar: j.ss02
Encoding: 65745 -1 538
Width: 285
GlyphClass: 1
Flags: W
LayerCount: 2
Fore
SplineSet
-33 -217 m 1,1,-1
 -33 -104 l 1,2,3
 -15 -107 -15 -107 4 -107 c 0,4,5
 47 -107 47 -107 70 -87 c 128,-1,6
 93 -67 93 -67 93 -28 c 2,7,-1
 93 427 l 1,8,-1
 6 427 l 1,9,-1
 6 544 l 1,10,-1
 225 544 l 1,11,-1
 225 -28 l 2,12,13
 225 -120 225 -120 170 -171 c 128,-1,14
 115 -222 115 -222 19 -222 c 0,15,0
 -13 -222 -13 -222 -33 -217 c 1,1,-1
93 745 m 1,16,-1
 225 745 l 1,17,-1
 225 605 l 1,18,-1
 93 605 l 1,19,-1
 93 745 l 1,16,-1
EndSplineSet
Validated: 1
EndChar

StartChar: uni0237
Encoding: 567 567 539
Width: 252
GlyphClass: 2
Flags: W
AnchorPoint: "Anchor-6" 126 544 basechar 0
AnchorPoint: "Anchor-4" 126 -240 basechar 0
LayerCount: 2
Fore
SplineSet
-65 -217 m 1,1,-1
 -65 -104 l 1,2,3
 -47 -107 -47 -107 -29 -107 c 0,4,5
 14 -107 14 -107 37.5 -87 c 128,-1,6
 61 -67 61 -67 61 -28 c 2,7,-1
 61 544 l 1,8,-1
 192 544 l 1,9,-1
 192 -28 l 2,10,11
 192 -120 192 -120 137 -171 c 128,-1,12
 82 -222 82 -222 -14 -222 c 0,13,0
 -43 -222 -43 -222 -65 -217 c 1,1,-1
EndSplineSet
Validated: 1
Substitution2: "'ss02' Style Set 2 in Latin lookup 21 subtable" uni0237.ss02
Substitution2: "'ss01' Style Set 1 in Latin lookup 20 subtable" uni0237.ss01
Substitution2: "'salt' Stylistic Alternatives in Latin lookup 19 subtable" uni0237.ss01
AlternateSubs2: "'aalt' Access All Alternates in Latin lookup 1 subtable" uni0237.ss01 uni0237.ss02
EndChar

StartChar: uni0237.ss01
Encoding: 65746 -1 540
Width: 240
GlyphClass: 2
Flags: W
AnchorPoint: "Anchor-6" 114 544 basechar 0
AnchorPoint: "Anchor-4" 120 -240 basechar 0
LayerCount: 2
Fore
SplineSet
-65 -107 m 1,0,-1
 48 -107 l 1,1,-1
 48 544 l 1,2,-1
 179 544 l 1,3,-1
 179 -222 l 1,4,-1
 -65 -222 l 1,5,-1
 -65 -107 l 1,0,-1
EndSplineSet
Validated: 1
EndChar

StartChar: uni0237.ss02
Encoding: 65747 -1 541
Width: 295
GlyphClass: 2
Flags: W
AnchorPoint: "Anchor-6" 169 544 basechar 0
AnchorPoint: "Anchor-4" 169 -240 basechar 0
LayerCount: 2
Fore
SplineSet
-22 -217 m 1,1,-1
 -22 -104 l 1,2,3
 -4 -107 -4 -107 14 -107 c 0,4,5
 57 -107 57 -107 80 -87 c 128,-1,6
 103 -67 103 -67 103 -28 c 2,7,-1
 103 427 l 1,8,-1
 17 427 l 1,9,-1
 17 544 l 1,10,-1
 235 544 l 1,11,-1
 235 -28 l 2,12,13
 235 -120 235 -120 180 -171 c 128,-1,14
 125 -222 125 -222 29 -222 c 0,15,0
 -2 -222 -2 -222 -22 -217 c 1,1,-1
EndSplineSet
Validated: 1
EndChar

StartChar: k
Encoding: 107 107 545
Width: 577
GlyphClass: 2
Flags: W
AnchorPoint: "Anchor-6" 288 784 basechar 0
AnchorPoint: "Anchor-4" 288 0 basechar 0
LayerCount: 2
Fore
SplineSet
61 757 m 1,0,-1
 192 757 l 1,1,-1
 192 328 l 1,2,-1
 398 544 l 1,3,-1
 561 544 l 1,4,-1
 360 325 l 1,5,-1
 565 0 l 1,6,-1
 415 0 l 1,7,-1
 262 242 l 1,8,-1
 192 166 l 1,9,-1
 192 0 l 1,10,-1
 61 0 l 1,11,-1
 61 757 l 1,0,-1
EndSplineSet
Validated: 1
Substitution2: "'ss01' Style Set 1 in Latin lookup 20 subtable" k.ss01
Substitution2: "'salt' Stylistic Alternatives in Latin lookup 19 subtable" k.ss01
Substitution2: "'aalt' Access All Alternates in Latin lookup 0 subtable" k.ss01
EndChar

StartChar: k.ss01
Encoding: 65750 -1 546
Width: 577
GlyphClass: 1
Flags: W
LayerCount: 2
Fore
SplineSet
259 225 m 1,0,-1
 192 225 l 1,1,-1
 192 0 l 1,2,-1
 61 0 l 1,3,-1
 61 757 l 1,4,-1
 192 757 l 1,5,-1
 192 342 l 1,6,-1
 266 342 l 1,7,-1
 396 544 l 1,8,-1
 542 544 l 1,9,-1
 374 278 l 1,10,-1
 566 0 l 1,11,-1
 416 0 l 1,12,-1
 259 225 l 1,0,-1
EndSplineSet
Validated: 1
EndChar

StartChar: kgreenlandic
Encoding: 312 312 549
Width: 577
GlyphClass: 1
Flags: W
LayerCount: 2
Fore
SplineSet
259 225 m 1,0,-1
 192 225 l 1,1,-1
 192 0 l 1,2,-1
 61 0 l 1,3,-1
 61 544 l 1,4,-1
 192 544 l 1,5,-1
 192 342 l 1,6,-1
 266 342 l 1,7,-1
 396 544 l 1,8,-1
 542 544 l 1,9,-1
 374 278 l 1,10,-1
 566 0 l 1,11,-1
 416 0 l 1,12,-1
 259 225 l 1,0,-1
EndSplineSet
Validated: 1
EndChar

StartChar: l
Encoding: 108 108 550
Width: 252
GlyphClass: 2
Flags: W
AnchorPoint: "Anchor-7" 252 595 basechar 0
AnchorPoint: "Anchor-6" 126 745 basechar 0
AnchorPoint: "Anchor-4" 126 0 basechar 0
LayerCount: 2
Fore
SplineSet
61 757 m 1,0,-1
 192 757 l 1,1,-1
 192 0 l 1,2,-1
 61 0 l 1,3,-1
 61 757 l 1,0,-1
EndSplineSet
Validated: 1
Substitution2: "'ss03' Style Set 3 in Latin lookup 22 subtable" l.ss03
Substitution2: "'ss01' Style Set 1 in Latin lookup 20 subtable" l.ss01
Substitution2: "'salt' Stylistic Alternatives in Latin lookup 19 subtable" l.ss01
AlternateSubs2: "'aalt' Access All Alternates in Latin lookup 1 subtable" l.ss01 l.ss03
EndChar

StartChar: l.ss01
Encoding: 65752 -1 551
Width: 294
GlyphClass: 2
Flags: W
AnchorPoint: "Anchor-7" 252 595 basechar 0
AnchorPoint: "Anchor-6" 126 745 basechar 0
AnchorPoint: "Anchor-4" 126 0 basechar 0
LayerCount: 2
Fore
SplineSet
61 757 m 1,0,-1
 192 757 l 1,1,-1
 192 115 l 1,2,-1
 263 115 l 1,3,-1
 263 0 l 1,4,-1
 61 0 l 1,5,-1
 61 757 l 1,0,-1
EndSplineSet
Validated: 1
EndChar

StartChar: l.ss03
Encoding: 65753 -1 552
Width: 294
GlyphClass: 2
Flags: W
AnchorPoint: "Anchor-7" 252 595 basechar 0
AnchorPoint: "Anchor-6" 126 745 basechar 0
AnchorPoint: "Anchor-4" 126 0 basechar 0
LayerCount: 2
Fore
SplineSet
104.5 34 m 128,-1,1
 61 74 61 74 61 159 c 2,2,-1
 61 757 l 1,3,-1
 192 757 l 1,4,-1
 192 169 l 2,5,6
 192 139 192 139 209 123.5 c 128,-1,7
 226 108 226 108 258 108 c 2,8,-1
 263 108 l 1,9,-1
 263 -6 l 1,10,-1
 239 -6 l 2,11,0
 148 -6 148 -6 104.5 34 c 128,-1,1
EndSplineSet
Validated: 1
EndChar

StartChar: ldot
Encoding: 320 320 562
Width: 428
GlyphClass: 2
Flags: W
AnchorPoint: "Anchor-7" 252 595 basechar 0
AnchorPoint: "Anchor-6" 126 745 basechar 0
AnchorPoint: "Anchor-4" 126 0 basechar 0
LayerCount: 2
Fore
SplineSet
61 757 m 1,0,-1
 192 757 l 1,1,-1
 192 0 l 1,2,-1
 61 0 l 1,3,-1
 61 757 l 1,0,-1
273.5 423 m 128,-1,5
 295 444 295 444 325 444 c 256,6,7
 355 444 355 444 376 423 c 128,-1,8
 397 402 397 402 397 372 c 0,9,10
 397 341 397 341 376 320 c 128,-1,11
 355 299 355 299 325 299 c 256,12,13
 295 299 295 299 273.5 320.5 c 128,-1,14
 252 342 252 342 252 372 c 256,15,4
 252 402 252 402 273.5 423 c 128,-1,5
EndSplineSet
Validated: 1
Substitution2: "'ss03' Style Set 3 in Latin lookup 22 subtable" ldot.ss03
Substitution2: "'ss01' Style Set 1 in Latin lookup 20 subtable" ldot.ss01
Substitution2: "'salt' Stylistic Alternatives in Latin lookup 19 subtable" ldot.ss01
AlternateSubs2: "'aalt' Access All Alternates in Latin lookup 1 subtable" ldot.ss01 ldot.ss03
EndChar

StartChar: ldot.ss01
Encoding: 65760 -1 563
Width: 428
GlyphClass: 2
Flags: W
AnchorPoint: "Anchor-7" 252 595 basechar 0
AnchorPoint: "Anchor-6" 126 745 basechar 0
AnchorPoint: "Anchor-4" 126 0 basechar 0
LayerCount: 2
Fore
SplineSet
61 757 m 1,0,-1
 192 757 l 1,1,-1
 192 115 l 1,2,-1
 263 115 l 1,3,-1
 263 0 l 1,4,-1
 61 0 l 1,5,-1
 61 757 l 1,0,-1
273.5 423 m 128,-1,7
 295 444 295 444 325 444 c 256,8,9
 355 444 355 444 376 423 c 128,-1,10
 397 402 397 402 397 372 c 0,11,12
 397 341 397 341 376 320 c 128,-1,13
 355 299 355 299 325 299 c 256,14,15
 295 299 295 299 273.5 320.5 c 128,-1,16
 252 342 252 342 252 372 c 256,17,6
 252 402 252 402 273.5 423 c 128,-1,7
EndSplineSet
Validated: 1
EndChar

StartChar: ldot.ss03
Encoding: 65761 -1 564
Width: 428
GlyphClass: 2
Flags: W
AnchorPoint: "Anchor-7" 252 595 basechar 0
AnchorPoint: "Anchor-6" 126 745 basechar 0
AnchorPoint: "Anchor-4" 126 0 basechar 0
LayerCount: 2
Fore
SplineSet
104.5 34 m 128,-1,1
 61 74 61 74 61 159 c 2,2,-1
 61 757 l 1,3,-1
 192 757 l 1,4,-1
 192 169 l 2,5,6
 192 139 192 139 209 123.5 c 128,-1,7
 226 108 226 108 258 108 c 2,8,-1
 263 108 l 1,9,-1
 263 -6 l 1,10,-1
 239 -6 l 2,11,0
 148 -6 148 -6 104.5 34 c 128,-1,1
273.5 423 m 128,-1,13
 295 444 295 444 325 444 c 256,14,15
 355 444 355 444 376 423 c 128,-1,16
 397 402 397 402 397 372 c 0,17,18
 397 341 397 341 376 320 c 128,-1,19
 355 299 355 299 325 299 c 256,20,21
 295 299 295 299 273.5 320.5 c 128,-1,22
 252 342 252 342 252 372 c 256,23,12
 252 402 252 402 273.5 423 c 128,-1,13
EndSplineSet
Validated: 1
EndChar

StartChar: lslash
Encoding: 322 322 572
Width: 252
GlyphClass: 2
Flags: W
AnchorPoint: "Anchor-7" 252 595 basechar 0
AnchorPoint: "Anchor-6" 126 745 basechar 0
AnchorPoint: "Anchor-4" 126 0 basechar 0
LayerCount: 2
Fore
SplineSet
61 324 m 1,0,-1
 -18 297 l 1,1,-1
 -18 386 l 1,2,-1
 61 413 l 1,3,-1
 61 757 l 1,4,-1
 192 757 l 1,5,-1
 192 459 l 1,6,-1
 270 486 l 1,7,-1
 270 397 l 1,8,-1
 192 370 l 1,9,-1
 192 0 l 1,10,-1
 61 0 l 1,11,-1
 61 324 l 1,0,-1
EndSplineSet
Validated: 1
Substitution2: "'ss03' Style Set 3 in Latin lookup 22 subtable" lslash.ss03
Substitution2: "'ss01' Style Set 1 in Latin lookup 20 subtable" lslash.ss01
Substitution2: "'salt' Stylistic Alternatives in Latin lookup 19 subtable" lslash.ss01
AlternateSubs2: "'aalt' Access All Alternates in Latin lookup 1 subtable" lslash.ss01 lslash.ss03
EndChar

StartChar: lslash.ss01
Encoding: 65766 -1 573
Width: 294
GlyphClass: 2
Flags: W
AnchorPoint: "Anchor-7" 252 595 basechar 0
AnchorPoint: "Anchor-6" 126 745 basechar 0
AnchorPoint: "Anchor-4" 126 0 basechar 0
LayerCount: 2
Fore
SplineSet
61 324 m 1,0,-1
 -18 297 l 1,1,-1
 -18 386 l 1,2,-1
 61 413 l 1,3,-1
 61 757 l 1,4,-1
 192 757 l 1,5,-1
 192 459 l 1,6,-1
 270 486 l 1,7,-1
 270 397 l 1,8,-1
 192 370 l 1,9,-1
 192 115 l 1,10,-1
 263 115 l 1,11,-1
 263 0 l 1,12,-1
 61 0 l 1,13,-1
 61 324 l 1,0,-1
EndSplineSet
Validated: 1
EndChar

StartChar: lslash.ss03
Encoding: 65767 -1 574
Width: 294
GlyphClass: 2
Flags: W
AnchorPoint: "Anchor-7" 252 595 basechar 0
AnchorPoint: "Anchor-6" 126 745 basechar 0
AnchorPoint: "Anchor-4" 126 0 basechar 0
LayerCount: 2
Fore
SplineSet
104.5 34 m 128,-1,1
 61 74 61 74 61 159 c 2,2,-1
 61 324 l 1,3,-1
 -18 297 l 1,4,-1
 -18 386 l 1,5,-1
 61 413 l 1,6,-1
 61 757 l 1,7,-1
 192 757 l 1,8,-1
 192 459 l 1,9,-1
 270 486 l 1,10,-1
 270 397 l 1,11,-1
 192 370 l 1,12,-1
 192 169 l 2,13,14
 192 139 192 139 209 123.5 c 128,-1,15
 226 108 226 108 258 108 c 2,16,-1
 263 108 l 1,17,-1
 263 -6 l 1,18,-1
 239 -6 l 2,19,0
 148 -6 148 -6 104.5 34 c 128,-1,1
EndSplineSet
Validated: 1
EndChar

StartChar: m
Encoding: 109 109 575
Width: 924
GlyphClass: 2
Flags: W
AnchorPoint: "Anchor-6" 462 544 basechar 0
AnchorPoint: "Anchor-4" 462 0 basechar 0
LayerCount: 2
Fore
SplineSet
61 544 m 1,0,-1
 184 544 l 1,1,-1
 184 476 l 1,2,3
 205 515 205 515 244.5 535.5 c 128,-1,4
 284 556 284 556 336 556 c 0,5,6
 390 556 390 556 435 532.5 c 128,-1,7
 480 509 480 509 504 468 c 1,8,9
 531 512 531 512 574.5 534 c 128,-1,10
 618 556 618 556 673 556 c 0,11,12
 730 556 730 556 776 530 c 128,-1,13
 822 504 822 504 848 457 c 128,-1,14
 874 410 874 410 874 350 c 2,15,-1
 874 0 l 1,16,-1
 743 0 l 1,17,-1
 743 319 l 2,18,19
 743 373 743 373 714.5 404.5 c 128,-1,20
 686 436 686 436 638 436 c 0,21,22
 591 436 591 436 562 404 c 128,-1,23
 533 372 533 372 533 319 c 2,24,-1
 533 0 l 1,25,-1
 402 0 l 1,26,-1
 402 319 l 2,27,28
 402 373 402 373 373.5 404.5 c 128,-1,29
 345 436 345 436 297 436 c 0,30,31
 250 436 250 436 221 404 c 128,-1,32
 192 372 192 372 192 319 c 2,33,-1
 192 0 l 1,34,-1
 61 0 l 1,35,-1
 61 544 l 1,0,-1
EndSplineSet
Validated: 1
Substitution2: "'ss03' Style Set 3 in Latin lookup 22 subtable" m.ss03
Substitution2: "'ss01' Style Set 1 in Latin lookup 20 subtable" m.ss01
Substitution2: "'salt' Stylistic Alternatives in Latin lookup 19 subtable" m.ss01
AlternateSubs2: "'aalt' Access All Alternates in Latin lookup 1 subtable" m.ss01 m.ss03
EndChar

StartChar: m.ss01
Encoding: 65768 -1 576
Width: 924
GlyphClass: 1
Flags: W
LayerCount: 2
Fore
SplineSet
61 544 m 1,0,-1
 874 544 l 1,1,-1
 874 0 l 1,2,-1
 743 0 l 1,3,-1
 743 427 l 1,4,-1
 533 427 l 1,5,-1
 533 0 l 1,6,-1
 402 0 l 1,7,-1
 402 427 l 1,8,-1
 192 427 l 1,9,-1
 192 0 l 1,10,-1
 61 0 l 1,11,-1
 61 544 l 1,0,-1
EndSplineSet
Validated: 1
EndChar

StartChar: m.ss03
Encoding: 65769 -1 577
Width: 924
GlyphClass: 2
Flags: W
AnchorPoint: "Anchor-6" 462 544 basechar 0
AnchorPoint: "Anchor-4" 462 0 basechar 0
LayerCount: 2
Fore
SplineSet
61 544 m 1,0,-1
 641 544 l 2,1,2
 750 544 750 544 812 487 c 128,-1,3
 874 430 874 430 874 331 c 2,4,-1
 874 0 l 1,5,-1
 743 0 l 1,6,-1
 743 325 l 2,7,8
 743 372 743 372 715.5 399.5 c 128,-1,9
 688 427 688 427 641 427 c 2,10,-1
 533 427 l 1,11,-1
 533 0 l 1,12,-1
 402 0 l 1,13,-1
 402 427 l 1,14,-1
 192 427 l 1,15,-1
 192 0 l 1,16,-1
 61 0 l 1,17,-1
 61 544 l 1,0,-1
EndSplineSet
Validated: 1
EndChar

StartChar: n
Encoding: 110 110 581
Width: 593
GlyphClass: 2
Flags: W
AnchorPoint: "Anchor-6" 297 544 basechar 0
AnchorPoint: "Anchor-4" 297 0 basechar 0
LayerCount: 2
Fore
SplineSet
61 544 m 1,0,-1
 184 544 l 1,1,-1
 184 477 l 1,2,3
 205 515 205 515 245.5 535.5 c 128,-1,4
 286 556 286 556 338 556 c 0,5,6
 397 556 397 556 444 530 c 128,-1,7
 491 504 491 504 517 457 c 128,-1,8
 543 410 543 410 543 350 c 2,9,-1
 543 0 l 1,10,-1
 412 0 l 1,11,-1
 412 319 l 2,12,13
 412 372 412 372 381.5 404 c 128,-1,14
 351 436 351 436 302 436 c 256,15,16
 253 436 253 436 222.5 404 c 128,-1,17
 192 372 192 372 192 319 c 2,18,-1
 192 0 l 1,19,-1
 61 0 l 1,20,-1
 61 544 l 1,0,-1
EndSplineSet
Validated: 1
Substitution2: "'ss03' Style Set 3 in Latin lookup 22 subtable" n.ss03
Substitution2: "'ss01' Style Set 1 in Latin lookup 20 subtable" n.ss01
Substitution2: "'salt' Stylistic Alternatives in Latin lookup 19 subtable" n.ss01
AlternateSubs2: "'aalt' Access All Alternates in Latin lookup 1 subtable" n.ss01 n.ss03
EndChar

StartChar: n.ss01
Encoding: 65772 -1 582
Width: 604
GlyphClass: 2
Flags: W
AnchorPoint: "Anchor-6" 302 544 basechar 0
AnchorPoint: "Anchor-4" 302 0 basechar 0
LayerCount: 2
Fore
SplineSet
61 544 m 1,0,-1
 543 544 l 1,1,-1
 543 0 l 1,2,-1
 412 0 l 1,3,-1
 412 427 l 1,4,-1
 192 427 l 1,5,-1
 192 0 l 1,6,-1
 61 0 l 1,7,-1
 61 544 l 1,0,-1
EndSplineSet
Validated: 1
EndChar

StartChar: n.ss03
Encoding: 65773 -1 583
Width: 593
GlyphClass: 2
Flags: W
AnchorPoint: "Anchor-6" 297 544 basechar 0
AnchorPoint: "Anchor-4" 297 0 basechar 0
LayerCount: 2
Fore
SplineSet
61 544 m 1,0,-1
 309 544 l 2,1,2
 418 544 418 544 480.5 487 c 128,-1,3
 543 430 543 430 543 331 c 2,4,-1
 543 0 l 1,5,-1
 412 0 l 1,6,-1
 412 325 l 2,7,8
 412 372 412 372 384 399.5 c 128,-1,9
 356 427 356 427 309 427 c 2,10,-1
 192 427 l 1,11,-1
 192 0 l 1,12,-1
 61 0 l 1,13,-1
 61 544 l 1,0,-1
EndSplineSet
Validated: 1
EndChar

StartChar: eng
Encoding: 331 331 608
Width: 600
GlyphClass: 1
Flags: W
LayerCount: 2
Fore
SplineSet
280 -217 m 1,1,-1
 280 -104 l 1,2,3
 298 -107 298 -107 316 -107 c 0,4,5
 358 -107 358 -107 381.5 -87 c 128,-1,6
 405 -67 405 -67 405 -28 c 2,7,-1
 405 319 l 2,8,9
 405 372 405 372 374.5 404 c 128,-1,10
 344 436 344 436 295 436 c 0,11,12
 247 436 247 436 216 404 c 128,-1,13
 185 372 185 372 185 319 c 2,14,-1
 185 0 l 1,15,-1
 54 0 l 1,16,-1
 54 544 l 1,17,-1
 178 544 l 1,18,-1
 178 479 l 1,19,20
 200 517 200 517 239.5 536.5 c 128,-1,21
 279 556 279 556 331 556 c 0,22,23
 390 556 390 556 437 530 c 128,-1,24
 484 504 484 504 510 457 c 128,-1,25
 536 410 536 410 536 350 c 2,26,-1
 536 -28 l 2,27,28
 536 -120 536 -120 481 -171 c 128,-1,29
 426 -222 426 -222 331 -222 c 0,30,0
 300 -222 300 -222 280 -217 c 1,1,-1
EndSplineSet
Validated: 1
Substitution2: "'ss03' Style Set 3 in Latin lookup 22 subtable" eng.ss03
Substitution2: "'ss01' Style Set 1 in Latin lookup 20 subtable" eng.ss01
Substitution2: "'salt' Stylistic Alternatives in Latin lookup 19 subtable" eng.ss01
AlternateSubs2: "'aalt' Access All Alternates in Latin lookup 1 subtable" eng.ss01 eng.ss03
EndChar

StartChar: eng.ss01
Encoding: 65790 -1 609
Width: 593
GlyphClass: 1
Flags: W
LayerCount: 2
Fore
SplineSet
287 -217 m 1,1,-1
 287 -104 l 1,2,3
 305 -107 305 -107 323 -107 c 0,4,5
 365 -107 365 -107 388.5 -87 c 128,-1,6
 412 -67 412 -67 412 -28 c 2,7,-1
 412 427 l 1,8,-1
 192 427 l 1,9,-1
 192 0 l 1,10,-1
 61 0 l 1,11,-1
 61 544 l 1,12,-1
 543 544 l 1,13,-1
 543 -28 l 2,14,15
 543 -120 543 -120 488 -171 c 128,-1,16
 433 -222 433 -222 337 -222 c 0,17,0
 307 -222 307 -222 287 -217 c 1,1,-1
EndSplineSet
Validated: 1
EndChar

StartChar: eng.ss03
Encoding: 65791 -1 610
Width: 593
GlyphClass: 1
Flags: W
LayerCount: 2
Fore
SplineSet
287 -217 m 1,1,-1
 287 -104 l 1,2,3
 305 -107 305 -107 323 -107 c 0,4,5
 365 -107 365 -107 388.5 -87 c 128,-1,6
 412 -67 412 -67 412 -28 c 2,7,-1
 412 325 l 2,8,9
 412 372 412 372 384 399.5 c 128,-1,10
 356 427 356 427 309 427 c 2,11,-1
 192 427 l 1,12,-1
 192 0 l 1,13,-1
 61 0 l 1,14,-1
 61 544 l 1,15,-1
 309 544 l 2,16,17
 418 544 418 544 480.5 487 c 128,-1,18
 543 430 543 430 543 331 c 2,19,-1
 543 -28 l 2,20,21
 543 -120 543 -120 488 -171 c 128,-1,22
 433 -222 433 -222 337 -222 c 0,23,0
 307 -222 307 -222 287 -217 c 1,1,-1
EndSplineSet
Validated: 1
EndChar

StartChar: o
Encoding: 111 111 611
Width: 652
GlyphClass: 2
Flags: W
AnchorPoint: "Anchor-7" 632 544 basechar 0
AnchorPoint: "Anchor-6" 327 544 basechar 0
AnchorPoint: "Anchor-5" 339 41 basechar 0
AnchorPoint: "Anchor-4" 327 0 basechar 0
LayerCount: 2
Fore
SplineSet
182 25 m 128,-1,1
 116 62 116 62 77.5 127 c 128,-1,2
 39 192 39 192 39 272 c 256,3,4
 39 352 39 352 77 417 c 128,-1,5
 115 482 115 482 181 519 c 128,-1,6
 247 556 247 556 327 556 c 0,7,8
 406 556 406 556 471.5 519 c 128,-1,9
 537 482 537 482 575.5 417 c 128,-1,10
 614 352 614 352 614 272 c 0,11,12
 614 191 614 191 575.5 126 c 128,-1,13
 537 61 537 61 471 24.5 c 128,-1,14
 405 -12 405 -12 327 -12 c 0,15,0
 248 -12 248 -12 182 25 c 128,-1,1
217.5 154.5 m 128,-1,17
 260 108 260 108 327 108 c 0,18,19
 370 108 370 108 404 129 c 128,-1,20
 438 150 438 150 457.5 187.5 c 128,-1,21
 477 225 477 225 477 272 c 0,22,23
 477 318 477 318 457.5 355.5 c 128,-1,24
 438 393 438 393 404 414.5 c 128,-1,25
 370 436 370 436 327 436 c 0,26,27
 283 436 283 436 248.5 414.5 c 128,-1,28
 214 393 214 393 194.5 356 c 128,-1,29
 175 319 175 319 175 272 c 0,30,16
 175 201 175 201 217.5 154.5 c 128,-1,17
EndSplineSet
Validated: 1
Substitution2: "Single Substitution lookup 28 subtable" ordmasculine
Substitution2: "'aalt' Access All Alternates in Latin lookup 0 subtable" ordmasculine
EndChar

StartChar: ohorn
Encoding: 417 417 627
Width: 652
GlyphClass: 2
Flags: W
AnchorPoint: "Anchor-7" 632 544 basechar 0
AnchorPoint: "Anchor-6" 327 544 basechar 0
AnchorPoint: "Anchor-5" 339 41 basechar 0
AnchorPoint: "Anchor-4" 327 0 basechar 0
LayerCount: 2
Fore
SplineSet
182 25 m 128,-1,1
 116 62 116 62 77.5 127 c 128,-1,2
 39 192 39 192 39 272 c 256,3,4
 39 352 39 352 77 417 c 128,-1,5
 115 482 115 482 181 519 c 128,-1,6
 247 556 247 556 327 556 c 2,7,-1
 433 556 l 2,8,9
 453 556 453 556 467 565 c 128,-1,10
 481 574 481 574 481 606 c 0,11,12
 481 633 481 633 460 683 c 1,13,-1
 573 683 l 1,14,15
 584 658 584 658 590 638 c 128,-1,16
 596 618 596 618 596 594 c 0,17,18
 596 508 596 508 528 477 c 1,19,20
 569 439 569 439 591.5 386 c 128,-1,21
 614 333 614 333 614 272 c 0,22,23
 614 191 614 191 575.5 126 c 128,-1,24
 537 61 537 61 471 24.5 c 128,-1,25
 405 -12 405 -12 327 -12 c 0,26,0
 248 -12 248 -12 182 25 c 128,-1,1
217.5 154.5 m 128,-1,28
 260 108 260 108 327 108 c 0,29,30
 370 108 370 108 404 129 c 128,-1,31
 438 150 438 150 457.5 187.5 c 128,-1,32
 477 225 477 225 477 272 c 0,33,34
 477 318 477 318 457.5 355.5 c 128,-1,35
 438 393 438 393 404 414.5 c 128,-1,36
 370 436 370 436 327 436 c 0,37,38
 283 436 283 436 248.5 414.5 c 128,-1,39
 214 393 214 393 194.5 356 c 128,-1,40
 175 319 175 319 175 272 c 0,41,27
 175 201 175 201 217.5 154.5 c 128,-1,28
EndSplineSet
Validated: 1
EndChar

StartChar: uni1EE1
Encoding: 7905 7905 632
Width: 652
GlyphClass: 2
Flags: W
AnchorPoint: "Anchor-7" 632 544 basechar 0
AnchorPoint: "Anchor-6" 327 544 basechar 0
AnchorPoint: "Anchor-5" 339 41 basechar 0
LayerCount: 2
Fore
SplineSet
182 25 m 128,-1,1
 116 62 116 62 77.5 127 c 128,-1,2
 39 192 39 192 39 272 c 256,3,4
 39 352 39 352 77 417 c 128,-1,5
 115 482 115 482 181 519 c 128,-1,6
 247 556 247 556 327 556 c 2,7,-1
 433 556 l 2,8,9
 453 556 453 556 467 565 c 128,-1,10
 481 574 481 574 481 606 c 0,11,12
 481 632 481 632 462 679 c 1,13,14
 441 652 441 652 399 652 c 0,15,16
 374 652 374 652 358 659 c 128,-1,17
 342 666 342 666 321 681 c 0,18,19
 309 691 309 691 300 695.5 c 128,-1,20
 291 700 291 700 281 700 c 0,21,22
 253 700 253 700 249 656 c 1,23,-1
 166 656 l 1,24,25
 166 724 166 724 192.5 756.5 c 128,-1,26
 219 789 219 789 262 789 c 0,27,28
 285 789 285 789 301 781.5 c 128,-1,29
 317 774 317 774 334 760 c 0,30,31
 347 750 347 750 355 745.5 c 128,-1,32
 363 741 363 741 374 741 c 0,33,34
 388 741 388 741 396 753.5 c 128,-1,35
 404 766 404 766 404 784 c 1,36,-1
 488 784 l 1,37,38
 488 715 488 715 465 683 c 1,39,-1
 573 683 l 1,40,41
 584 658 584 658 590 638 c 128,-1,42
 596 618 596 618 596 594 c 0,43,44
 596 508 596 508 528 477 c 1,45,46
 569 439 569 439 591.5 386 c 128,-1,47
 614 333 614 333 614 272 c 0,48,49
 614 191 614 191 575.5 126 c 128,-1,50
 537 61 537 61 471 24.5 c 128,-1,51
 405 -12 405 -12 327 -12 c 0,52,0
 248 -12 248 -12 182 25 c 128,-1,1
217.5 154.5 m 128,-1,54
 260 108 260 108 327 108 c 0,55,56
 370 108 370 108 404 129 c 128,-1,57
 438 150 438 150 457.5 187.5 c 128,-1,58
 477 225 477 225 477 272 c 0,59,60
 477 318 477 318 457.5 355.5 c 128,-1,61
 438 393 438 393 404 414.5 c 128,-1,62
 370 436 370 436 327 436 c 0,63,64
 283 436 283 436 248.5 414.5 c 128,-1,65
 214 393 214 393 194.5 356 c 128,-1,66
 175 319 175 319 175 272 c 0,67,53
 175 201 175 201 217.5 154.5 c 128,-1,54
EndSplineSet
Validated: 1
EndChar

StartChar: uni01EB
Encoding: 491 491 638
Width: 652
GlyphClass: 2
Flags: W
AnchorPoint: "Anchor-7" 632 544 basechar 0
AnchorPoint: "Anchor-6" 327 544 basechar 0
AnchorPoint: "Anchor-5" 339 41 basechar 0
AnchorPoint: "Anchor-4" 327 0 basechar 0
LayerCount: 2
Fore
SplineSet
307 -11 m 1,0,1
 263 -35 263 -35 263 -69 c 0,2,3
 263 -90 263 -90 278.5 -102.5 c 128,-1,4
 294 -115 294 -115 323 -115 c 0,5,6
 366 -115 366 -115 410 -87 c 1,7,-1
 450 -155 l 1,8,9
 386 -206 386 -206 310 -206 c 0,10,11
 246 -206 246 -206 205 -176 c 128,-1,12
 164 -146 164 -146 164 -95 c 0,13,14
 164 -64 164 -64 179 -38 c 128,-1,15
 194 -12 194 -12 222 6 c 1,16,17
 139 37 139 37 89 108 c 128,-1,18
 39 179 39 179 39 272 c 0,19,20
 39 352 39 352 77 417 c 128,-1,21
 115 482 115 482 181 519 c 128,-1,22
 247 556 247 556 327 556 c 0,23,24
 406 556 406 556 471.5 519 c 128,-1,25
 537 482 537 482 575.5 417 c 128,-1,26
 614 352 614 352 614 272 c 0,27,28
 614 191 614 191 575.5 126 c 128,-1,29
 537 61 537 61 471 24.5 c 128,-1,30
 405 -12 405 -12 327 -12 c 2,31,-1
 307 -11 l 1,0,1
217.5 154.5 m 128,-1,33
 260 108 260 108 327 108 c 0,34,35
 370 108 370 108 404 129 c 128,-1,36
 438 150 438 150 457.5 187.5 c 128,-1,37
 477 225 477 225 477 272 c 0,38,39
 477 318 477 318 457.5 355.5 c 128,-1,40
 438 393 438 393 404 414.5 c 128,-1,41
 370 436 370 436 327 436 c 0,42,43
 283 436 283 436 248.5 414.5 c 128,-1,44
 214 393 214 393 194.5 356 c 128,-1,45
 175 319 175 319 175 272 c 0,46,32
 175 201 175 201 217.5 154.5 c 128,-1,33
EndSplineSet
Validated: 1
EndChar

StartChar: oslash
Encoding: 248 248 639
Width: 652
GlyphClass: 2
Flags: W
AnchorPoint: "Anchor-7" 632 544 basechar 0
AnchorPoint: "Anchor-6" 327 544 basechar 0
AnchorPoint: "Anchor-5" 339 41 basechar 0
AnchorPoint: "Anchor-4" 327 0 basechar 0
LayerCount: 2
Fore
SplineSet
187 22 m 1,1,-1
 169 0 l 1,2,-1
 36 0 l 1,3,-1
 107 86 l 1,4,5
 74 123 74 123 56.5 170.5 c 128,-1,6
 39 218 39 218 39 272 c 0,7,8
 39 352 39 352 77 417 c 128,-1,9
 115 482 115 482 181 519 c 128,-1,10
 247 556 247 556 327 556 c 0,11,12
 402 556 402 556 465 522 c 1,13,-1
 483 544 l 1,14,-1
 616 544 l 1,15,-1
 546 459 l 1,16,17
 578 421 578 421 596 373.5 c 128,-1,18
 614 326 614 326 614 272 c 0,19,20
 614 191 614 191 575.5 126 c 128,-1,21
 537 61 537 61 471 24.5 c 128,-1,22
 405 -12 405 -12 327 -12 c 0,23,0
 250 -12 250 -12 187 22 c 1,1,-1
193 191 m 1,25,-1
 385 425 l 1,26,27
 357 436 357 436 327 436 c 0,28,29
 283 436 283 436 248.5 414.5 c 128,-1,30
 214 393 214 393 194.5 356 c 128,-1,31
 175 319 175 319 175 272 c 0,32,24
 175 226 175 226 193 191 c 1,25,-1
327 108 m 0,34,35
 370 108 370 108 404 129 c 128,-1,36
 438 150 438 150 457.5 187.5 c 128,-1,37
 477 225 477 225 477 272 c 0,38,39
 477 317 477 317 459 353 c 1,40,-1
 267 120 l 1,41,33
 294 108 294 108 327 108 c 0,34,35
EndSplineSet
Validated: 1
EndChar

StartChar: oe
Encoding: 339 339 645
Width: 1055
GlyphClass: 1
Flags: W
LayerCount: 2
Fore
SplineSet
182 25 m 128,-1,1
 116 62 116 62 77.5 127 c 128,-1,2
 39 192 39 192 39 272 c 256,3,4
 39 352 39 352 77 417 c 128,-1,5
 115 482 115 482 181 519 c 128,-1,6
 247 556 247 556 327 556 c 0,7,8
 392 556 392 556 449 530 c 128,-1,9
 506 504 506 504 545 458 c 1,10,11
 582 504 582 504 635.5 530 c 128,-1,12
 689 556 689 556 752 556 c 0,13,14
 834 556 834 556 894 520.5 c 128,-1,15
 954 485 954 485 985.5 424 c 128,-1,16
 1017 363 1017 363 1017 290 c 0,17,18
 1017 256 1017 256 1010 235 c 1,19,-1
 618 235 l 1,20,21
 624 175 624 175 663.5 139 c 128,-1,22
 703 103 703 103 763 103 c 0,23,24
 807 103 807 103 838.5 121.5 c 128,-1,25
 870 140 870 140 889 173 c 1,26,-1
 995 121 l 1,27,28
 970 61 970 61 907 24.5 c 128,-1,29
 844 -12 844 -12 762 -12 c 0,30,31
 695 -12 695 -12 639.5 14 c 128,-1,32
 584 40 584 40 545 86 c 1,33,34
 506 40 506 40 449 14 c 128,-1,35
 392 -12 392 -12 327 -12 c 0,36,0
 248 -12 248 -12 182 25 c 128,-1,1
217.5 154.5 m 128,-1,38
 260 108 260 108 327 108 c 0,39,40
 370 108 370 108 404 129 c 128,-1,41
 438 150 438 150 457.5 187.5 c 128,-1,42
 477 225 477 225 477 272 c 0,43,44
 477 318 477 318 457.5 355.5 c 128,-1,45
 438 393 438 393 404 414.5 c 128,-1,46
 370 436 370 436 327 436 c 0,47,48
 283 436 283 436 248.5 414.5 c 128,-1,49
 214 393 214 393 194.5 356 c 128,-1,50
 175 319 175 319 175 272 c 0,51,37
 175 201 175 201 217.5 154.5 c 128,-1,38
877 335 m 1,52,53
 874 385 874 385 839 416.5 c 128,-1,54
 804 448 804 448 752 448 c 0,55,56
 702 448 702 448 666.5 418 c 128,-1,57
 631 388 631 388 621 335 c 1,58,-1
 877 335 l 1,52,53
EndSplineSet
Validated: 1
EndChar

StartChar: p
Encoding: 112 112 646
Width: 672
GlyphClass: 2
Flags: W
AnchorPoint: "Anchor-6" 336 544 basechar 0
AnchorPoint: "Anchor-4" 336 0 basechar 0
LayerCount: 2
Fore
SplineSet
61 544 m 1,0,-1
 184 544 l 1,1,-1
 184 480 l 1,2,3
 214 516 214 516 258.5 536 c 128,-1,4
 303 556 303 556 359 556 c 0,5,6
 435 556 435 556 498 518.5 c 128,-1,7
 561 481 561 481 597 416 c 128,-1,8
 633 351 633 351 633 272 c 256,9,10
 633 193 633 193 597 128 c 128,-1,11
 561 63 561 63 498.5 25.5 c 128,-1,12
 436 -12 436 -12 358 -12 c 0,13,14
 308 -12 308 -12 265 4.5 c 128,-1,15
 222 21 222 21 192 52 c 1,16,-1
 192 -200 l 1,17,-1
 61 -200 l 1,18,-1
 61 544 l 1,0,-1
211.5 187.5 m 128,-1,20
 231 150 231 150 265.5 129 c 128,-1,21
 300 108 300 108 343 108 c 0,22,23
 410 108 410 108 453.5 154.5 c 128,-1,24
 497 201 497 201 497 272 c 0,25,26
 497 318 497 318 477 355.5 c 128,-1,27
 457 393 457 393 422 414.5 c 128,-1,28
 387 436 387 436 343 436 c 0,29,30
 300 436 300 436 265.5 415 c 128,-1,31
 231 394 231 394 211.5 356.5 c 128,-1,32
 192 319 192 319 192 272 c 256,33,19
 192 225 192 225 211.5 187.5 c 128,-1,20
EndSplineSet
Validated: 1
Substitution2: "'ss02' Style Set 2 in Latin lookup 21 subtable" p.ss02
Substitution2: "'aalt' Access All Alternates in Latin lookup 0 subtable" p.ss02
EndChar

StartChar: p.ss02
Encoding: 65792 -1 647
Width: 712
GlyphClass: 1
Flags: W
LayerCount: 2
Fore
SplineSet
102 429 m 1,0,-1
 31 429 l 1,1,-1
 31 544 l 1,2,-1
 226 544 l 1,3,-1
 226 481 l 1,4,5
 255 517 255 517 300 536.5 c 128,-1,6
 345 556 345 556 400 556 c 0,7,8
 476 556 476 556 538.5 518.5 c 128,-1,9
 601 481 601 481 637.5 416 c 128,-1,10
 674 351 674 351 674 272 c 256,11,12
 674 193 674 193 638 128 c 128,-1,13
 602 63 602 63 539 25.5 c 128,-1,14
 476 -12 476 -12 399 -12 c 0,15,16
 349 -12 349 -12 306 4.5 c 128,-1,17
 263 21 263 21 233 52 c 1,18,-1
 233 -200 l 1,19,-1
 102 -200 l 1,20,-1
 102 429 l 1,0,-1
252.5 187.5 m 128,-1,22
 272 150 272 150 306.5 129 c 128,-1,23
 341 108 341 108 385 108 c 0,24,25
 428 108 428 108 463 129 c 128,-1,26
 498 150 498 150 518 187.5 c 128,-1,27
 538 225 538 225 538 272 c 0,28,29
 538 318 538 318 518 355.5 c 128,-1,30
 498 393 498 393 463 414.5 c 128,-1,31
 428 436 428 436 385 436 c 256,32,33
 342 436 342 436 307 415 c 128,-1,34
 272 394 272 394 252.5 356.5 c 128,-1,35
 233 319 233 319 233 272 c 256,36,21
 233 225 233 225 252.5 187.5 c 128,-1,22
EndSplineSet
Validated: 1
EndChar

StartChar: thorn
Encoding: 254 254 648
Width: 672
GlyphClass: 1
Flags: W
LayerCount: 2
Fore
SplineSet
61 745 m 1,0,-1
 184 745 l 1,1,-1
 184 480 l 1,2,3
 214 516 214 516 258.5 536 c 128,-1,4
 303 556 303 556 359 556 c 0,5,6
 435 556 435 556 498 518.5 c 128,-1,7
 561 481 561 481 597 416 c 128,-1,8
 633 351 633 351 633 272 c 256,9,10
 633 193 633 193 597 128 c 128,-1,11
 561 63 561 63 498.5 25.5 c 128,-1,12
 436 -12 436 -12 358 -12 c 0,13,14
 308 -12 308 -12 265 4.5 c 128,-1,15
 222 21 222 21 192 52 c 1,16,-1
 192 -200 l 1,17,-1
 61 -200 l 1,18,-1
 61 745 l 1,0,-1
211.5 187.5 m 128,-1,20
 231 150 231 150 265.5 129 c 128,-1,21
 300 108 300 108 343 108 c 0,22,23
 410 108 410 108 453.5 154.5 c 128,-1,24
 497 201 497 201 497 272 c 0,25,26
 497 318 497 318 477 355.5 c 128,-1,27
 457 393 457 393 422 414.5 c 128,-1,28
 387 436 387 436 343 436 c 0,29,30
 300 436 300 436 265.5 415 c 128,-1,31
 231 394 231 394 211.5 356.5 c 128,-1,32
 192 319 192 319 192 272 c 256,33,19
 192 225 192 225 211.5 187.5 c 128,-1,20
EndSplineSet
Validated: 1
EndChar

StartChar: q
Encoding: 113 113 649
Width: 672
GlyphClass: 2
Flags: W
AnchorPoint: "Anchor-6" 336 544 basechar 0
AnchorPoint: "Anchor-4" 336 0 basechar 0
LayerCount: 2
Fore
SplineSet
480 52 m 1,0,1
 450 21 450 21 407 4.5 c 128,-1,2
 364 -12 364 -12 314 -12 c 0,3,4
 236 -12 236 -12 173.5 25.5 c 128,-1,5
 111 63 111 63 75 128 c 128,-1,6
 39 193 39 193 39 272 c 256,7,8
 39 351 39 351 75 416 c 128,-1,9
 111 481 111 481 174 518.5 c 128,-1,10
 237 556 237 556 313 556 c 0,11,12
 368 556 368 556 413 536.5 c 128,-1,13
 458 517 458 517 487 481 c 1,14,-1
 487 544 l 1,15,-1
 611 544 l 1,16,-1
 611 -200 l 1,17,-1
 480 -200 l 1,18,-1
 480 52 l 1,0,1
194.5 187.5 m 128,-1,20
 214 150 214 150 249 129 c 128,-1,21
 284 108 284 108 328 108 c 256,22,23
 372 108 372 108 406.5 129 c 128,-1,24
 441 150 441 150 460.5 187.5 c 128,-1,25
 480 225 480 225 480 272 c 256,26,27
 480 319 480 319 460.5 356.5 c 128,-1,28
 441 394 441 394 406 415 c 128,-1,29
 371 436 371 436 328 436 c 0,30,31
 284 436 284 436 249 414.5 c 128,-1,32
 214 393 214 393 194.5 355.5 c 128,-1,33
 175 318 175 318 175 272 c 0,34,19
 175 225 175 225 194.5 187.5 c 128,-1,20
EndSplineSet
Validated: 1
Substitution2: "'ss02' Style Set 2 in Latin lookup 21 subtable" q.ss02
Substitution2: "'aalt' Access All Alternates in Latin lookup 0 subtable" q.ss02
EndChar

StartChar: q.ss02
Encoding: 65793 -1 650
Width: 712
GlyphClass: 1
Flags: W
LayerCount: 2
Fore
SplineSet
479 52 m 1,0,1
 449 21 449 21 406 4.5 c 128,-1,2
 363 -12 363 -12 313 -12 c 0,3,4
 236 -12 236 -12 173.5 25.5 c 128,-1,5
 111 63 111 63 75 128 c 128,-1,6
 39 193 39 193 39 272 c 256,7,8
 39 351 39 351 75 416 c 128,-1,9
 111 481 111 481 173.5 518.5 c 128,-1,10
 236 556 236 556 312 556 c 0,11,12
 368 556 368 556 412.5 536 c 128,-1,13
 457 516 457 516 487 480 c 1,14,-1
 487 544 l 1,15,-1
 682 544 l 1,16,-1
 682 429 l 1,17,-1
 610 429 l 1,18,-1
 610 -200 l 1,19,-1
 479 -200 l 1,20,-1
 479 52 l 1,0,1
194.5 187.5 m 128,-1,22
 214 150 214 150 249 129 c 128,-1,23
 284 108 284 108 328 108 c 0,24,25
 371 108 371 108 405.5 129 c 128,-1,26
 440 150 440 150 459.5 187.5 c 128,-1,27
 479 225 479 225 479 272 c 256,28,29
 479 319 479 319 459.5 356.5 c 128,-1,30
 440 394 440 394 405.5 415 c 128,-1,31
 371 436 371 436 328 436 c 0,32,33
 284 436 284 436 249 414.5 c 128,-1,34
 214 393 214 393 194.5 355.5 c 128,-1,35
 175 318 175 318 175 272 c 0,36,21
 175 225 175 225 194.5 187.5 c 128,-1,22
EndSplineSet
Validated: 1
EndChar

StartChar: r
Encoding: 114 114 651
Width: 374
GlyphClass: 2
Flags: W
AnchorPoint: "Anchor-6" 212 544 basechar 0
AnchorPoint: "Anchor-4" 126 0 basechar 0
LayerCount: 2
Fore
SplineSet
61 544 m 1,0,-1
 184 544 l 1,1,-1
 184 468 l 1,2,3
 204 512 204 512 241 531 c 128,-1,4
 278 550 278 550 331 550 c 2,5,-1
 363 550 l 1,6,-1
 363 434 l 1,7,-1
 316 434 l 2,8,9
 260 434 260 434 226 399 c 128,-1,10
 192 364 192 364 192 303 c 2,11,-1
 192 0 l 1,12,-1
 61 0 l 1,13,-1
 61 544 l 1,0,-1
EndSplineSet
Validated: 1
Substitution2: "'ss02' Style Set 2 in Latin lookup 21 subtable" r.ss02
Substitution2: "'ss01' Style Set 1 in Latin lookup 20 subtable" r.ss01
Substitution2: "'salt' Stylistic Alternatives in Latin lookup 19 subtable" r.ss01
AlternateSubs2: "'aalt' Access All Alternates in Latin lookup 1 subtable" r.ss01 r.ss02
EndChar

StartChar: r.ss01
Encoding: 65794 -1 652
Width: 377
GlyphClass: 2
Flags: W
AnchorPoint: "Anchor-6" 212 544 basechar 0
AnchorPoint: "Anchor-4" 126 0 basechar 0
LayerCount: 2
Fore
SplineSet
61 544 m 1,0,-1
 366 544 l 1,1,-1
 366 427 l 1,2,-1
 192 427 l 1,3,-1
 192 0 l 1,4,-1
 61 0 l 1,5,-1
 61 544 l 1,0,-1
EndSplineSet
Validated: 1
EndChar

StartChar: r.ss02
Encoding: 65795 -1 653
Width: 431
GlyphClass: 2
Flags: W
AnchorPoint: "Anchor-6" 225 544 basechar 0
AnchorPoint: "Anchor-4" 193 0 basechar 0
LayerCount: 2
Fore
SplineSet
31 116 m 1,0,-1
 117 116 l 1,1,-1
 117 427 l 1,2,-1
 31 427 l 1,3,-1
 31 544 l 1,4,-1
 241 544 l 1,5,-1
 241 469 l 1,6,7
 262 512 262 512 298.5 531 c 128,-1,8
 335 550 335 550 387 550 c 2,9,-1
 420 550 l 1,10,-1
 420 434 l 1,11,-1
 373 434 l 2,12,13
 317 434 317 434 282.5 399 c 128,-1,14
 248 364 248 364 248 303 c 2,15,-1
 248 116 l 1,16,-1
 355 116 l 1,17,-1
 355 0 l 1,18,-1
 31 0 l 1,19,-1
 31 116 l 1,0,-1
EndSplineSet
Validated: 1
EndChar

StartChar: s
Encoding: 115 115 675
Width: 514
GlyphClass: 2
Flags: W
AnchorPoint: "Anchor-6" 257 544 basechar 0
AnchorPoint: "Anchor-4" 257 0 basechar 0
LayerCount: 2
Fore
SplineSet
120.5 28 m 128,-1,1
 58 67 58 67 32 135 c 1,2,-1
 129 185 l 1,3,4
 151 141 151 141 187.5 116.5 c 128,-1,5
 224 92 224 92 268 92 c 0,6,7
 306 92 306 92 327.5 107.5 c 128,-1,8
 349 123 349 123 349 150 c 0,9,10
 349 173 349 173 331 188.5 c 128,-1,11
 313 204 313 204 284 209 c 2,12,-1
 195 224 l 1,13,14
 126 242 126 242 88.5 285.5 c 128,-1,15
 51 329 51 329 51 388 c 0,16,17
 51 437 51 437 77 475.5 c 128,-1,18
 103 514 103 514 149.5 535 c 128,-1,19
 196 556 196 556 255 556 c 0,20,21
 330 556 330 556 387 520.5 c 128,-1,22
 444 485 444 485 470 422 c 1,23,-1
 373 372 l 1,24,25
 357 407 357 407 324 428 c 128,-1,26
 291 449 291 449 251 449 c 0,27,28
 218 449 218 449 198.5 434 c 128,-1,29
 179 419 179 419 179 395 c 0,30,31
 179 351 179 351 245 336 c 2,32,-1
 332 320 l 1,33,34
 401 301 401 301 439 258 c 128,-1,35
 477 215 477 215 477 156 c 0,36,37
 477 107 477 107 450.5 69 c 128,-1,38
 424 31 424 31 376 10 c 128,-1,39
 328 -11 328 -11 265 -11 c 0,40,0
 183 -11 183 -11 120.5 28 c 128,-1,1
EndSplineSet
Validated: 1
EndChar

StartChar: scedilla
Encoding: 351 351 680
Width: 514
GlyphClass: 2
Flags: W
AnchorPoint: "Anchor-4" 257 0 basechar 0
LayerCount: 2
Fore
SplineSet
168 -240 m 1,1,-1
 180 -172 l 1,2,3
 204 -181 204 -181 242 -181 c 0,4,5
 266 -181 266 -181 279.5 -172.5 c 128,-1,6
 293 -164 293 -164 293 -148 c 0,7,8
 293 -135 293 -135 284.5 -127.5 c 128,-1,9
 276 -120 276 -120 260 -120 c 0,10,11
 236 -120 236 -120 221 -125 c 1,12,-1
 198 -114 l 1,13,-1
 212 -7 l 1,14,15
 148 4 148 4 100.5 41.5 c 128,-1,16
 53 79 53 79 32 135 c 1,17,-1
 129 185 l 1,18,19
 151 141 151 141 187.5 116.5 c 128,-1,20
 224 92 224 92 268 92 c 0,21,22
 306 92 306 92 327.5 107.5 c 128,-1,23
 349 123 349 123 349 150 c 0,24,25
 349 173 349 173 331 188.5 c 128,-1,26
 313 204 313 204 284 209 c 2,27,-1
 195 224 l 1,28,29
 126 242 126 242 88.5 285.5 c 128,-1,30
 51 329 51 329 51 388 c 0,31,32
 51 437 51 437 77 475.5 c 128,-1,33
 103 514 103 514 149.5 535 c 128,-1,34
 196 556 196 556 255 556 c 0,35,36
 330 556 330 556 387 520.5 c 128,-1,37
 444 485 444 485 470 422 c 1,38,-1
 373 372 l 1,39,40
 357 407 357 407 324 428 c 128,-1,41
 291 449 291 449 251 449 c 0,42,43
 218 449 218 449 198.5 434 c 128,-1,44
 179 419 179 419 179 395 c 0,45,46
 179 351 179 351 245 336 c 2,47,-1
 332 320 l 1,48,49
 401 301 401 301 439 258 c 128,-1,50
 477 215 477 215 477 156 c 0,51,52
 477 88 477 88 429 43 c 128,-1,53
 381 -2 381 -2 299 -10 c 1,54,-1
 295 -62 l 1,55,56
 300 -61 300 -61 310 -61 c 0,57,58
 349 -61 349 -61 374 -84 c 128,-1,59
 399 -107 399 -107 399 -145 c 0,60,61
 399 -191 399 -191 361 -221 c 128,-1,62
 323 -251 323 -251 252 -251 c 0,63,0
 204 -251 204 -251 168 -240 c 1,1,-1
EndSplineSet
Validated: 1
Substitution2: "'locl' Localized Forms in Latin lookup 6 subtable" uni0219
Substitution2: "'aalt' Access All Alternates in Latin lookup 0 subtable" uni0219
EndChar

StartChar: germandbls
Encoding: 223 223 686
Width: 641
GlyphClass: 1
Flags: W
LayerCount: 2
Fore
SplineSet
105 637.5 m 128,-1,1
 138 695 138 695 196.5 726 c 128,-1,2
 255 757 255 757 329 757 c 0,3,4
 401 757 401 757 456 730.5 c 128,-1,5
 511 704 511 704 541.5 656 c 128,-1,6
 572 608 572 608 572 546 c 0,7,8
 572 501 572 501 552 463 c 128,-1,9
 532 425 532 425 495 401 c 1,10,11
 552 373 552 373 577.5 331.5 c 128,-1,12
 603 290 603 290 603 228 c 0,13,14
 603 159 603 159 572.5 107.5 c 128,-1,15
 542 56 542 56 485.5 28 c 128,-1,16
 429 0 429 0 353 0 c 2,17,-1
 285 0 l 1,18,-1
 285 115 l 1,19,-1
 345 115 l 2,20,21
 399 115 399 115 433 146 c 128,-1,22
 467 177 467 177 467 228 c 0,23,24
 467 278 467 278 434 308 c 128,-1,25
 401 338 401 338 345 338 c 2,26,-1
 285 338 l 1,27,-1
 285 453 l 1,28,-1
 336 453 l 2,29,30
 379 453 379 453 407.5 479.5 c 128,-1,31
 436 506 436 506 436 547 c 0,32,33
 436 589 436 589 406.5 615.5 c 128,-1,34
 377 642 377 642 329 642 c 0,35,36
 272 642 272 642 237.5 605 c 128,-1,37
 203 568 203 568 203 503 c 2,38,-1
 203 -158 l 1,39,-1
 72 -158 l 1,40,-1
 72 503 l 2,41,0
 72 580 72 580 105 637.5 c 128,-1,1
EndSplineSet
Validated: 1
EndChar

StartChar: t
Encoding: 116 116 687
Width: 413
GlyphClass: 2
Flags: W
AnchorPoint: "Anchor-7" 310 595 basechar 0
AnchorPoint: "Anchor-6" 181 668 basechar 0
AnchorPoint: "Anchor-4" 302 0 basechar 0
LayerCount: 2
Fore
SplineSet
166.5 44.5 m 128,-1,1
 116 95 116 95 116 187 c 2,2,-1
 116 427 l 1,3,-1
 22 427 l 1,4,-1
 22 544 l 1,5,-1
 32 544 l 2,6,7
 72 544 72 544 94 565 c 128,-1,8
 116 586 116 586 116 626 c 2,9,-1
 116 668 l 1,10,-1
 247 668 l 1,11,-1
 247 544 l 1,12,-1
 372 544 l 1,13,-1
 372 427 l 1,14,-1
 247 427 l 1,15,-1
 247 194 l 2,16,17
 247 109 247 109 339 109 c 0,18,19
 355 109 355 109 374 112 c 1,20,-1
 374 -1 l 1,21,22
 342 -6 342 -6 309 -6 c 0,23,0
 217 -6 217 -6 166.5 44.5 c 128,-1,1
EndSplineSet
Validated: 1
Substitution2: "'ss01' Style Set 1 in Latin lookup 20 subtable" t.ss01
Substitution2: "'salt' Stylistic Alternatives in Latin lookup 19 subtable" t.ss01
Substitution2: "'aalt' Access All Alternates in Latin lookup 0 subtable" t.ss01
EndChar

StartChar: t.ss01
Encoding: 65810 -1 688
Width: 413
GlyphClass: 2
Flags: W
AnchorPoint: "Anchor-7" 310 595 basechar 0
AnchorPoint: "Anchor-6" 181 668 basechar 0
AnchorPoint: "Anchor-4" 245 0 basechar 0
LayerCount: 2
Fore
SplineSet
116 427 m 1,0,-1
 22 427 l 1,1,-1
 22 544 l 1,2,-1
 116 544 l 1,3,-1
 116 668 l 1,4,-1
 247 668 l 1,5,-1
 247 544 l 1,6,-1
 372 544 l 1,7,-1
 372 427 l 1,8,-1
 247 427 l 1,9,-1
 247 116 l 1,10,-1
 374 116 l 1,11,-1
 374 0 l 1,12,-1
 116 0 l 1,13,-1
 116 427 l 1,0,-1
EndSplineSet
Validated: 1
EndChar

StartChar: tbar
Encoding: 359 359 689
Width: 413
GlyphClass: 2
Flags: W
AnchorPoint: "Anchor-7" 310 595 basechar 0
AnchorPoint: "Anchor-6" 181 668 basechar 0
AnchorPoint: "Anchor-4" 302 0 basechar 0
LayerCount: 2
Fore
SplineSet
166.5 44.5 m 128,-1,1
 116 95 116 95 116 187 c 2,2,-1
 116 214 l 1,3,-1
 24 214 l 1,4,-1
 24 330 l 1,5,-1
 116 330 l 1,6,-1
 116 427 l 1,7,-1
 22 427 l 1,8,-1
 22 544 l 1,9,-1
 32 544 l 2,10,11
 72 544 72 544 94 565 c 128,-1,12
 116 586 116 586 116 626 c 2,13,-1
 116 668 l 1,14,-1
 247 668 l 1,15,-1
 247 544 l 1,16,-1
 372 544 l 1,17,-1
 372 427 l 1,18,-1
 247 427 l 1,19,-1
 247 330 l 1,20,-1
 374 330 l 1,21,-1
 374 214 l 1,22,-1
 247 214 l 1,23,-1
 247 194 l 2,24,25
 247 109 247 109 339 109 c 0,26,27
 355 109 355 109 374 112 c 1,28,-1
 374 -1 l 1,29,30
 342 -6 342 -6 309 -6 c 0,31,0
 217 -6 217 -6 166.5 44.5 c 128,-1,1
EndSplineSet
Validated: 1
Substitution2: "'ss01' Style Set 1 in Latin lookup 20 subtable" tbar.ss01
Substitution2: "'salt' Stylistic Alternatives in Latin lookup 19 subtable" tbar.ss01
Substitution2: "'aalt' Access All Alternates in Latin lookup 0 subtable" tbar.ss01
EndChar

StartChar: tbar.ss01
Encoding: 65811 -1 690
Width: 413
GlyphClass: 2
Flags: W
AnchorPoint: "Anchor-7" 310 595 basechar 0
AnchorPoint: "Anchor-6" 181 668 basechar 0
AnchorPoint: "Anchor-4" 245 0 basechar 0
LayerCount: 2
Fore
SplineSet
116 214 m 1,0,-1
 24 214 l 1,1,-1
 24 330 l 1,2,-1
 116 330 l 1,3,-1
 116 427 l 1,4,-1
 22 427 l 1,5,-1
 22 544 l 1,6,-1
 116 544 l 1,7,-1
 116 668 l 1,8,-1
 247 668 l 1,9,-1
 247 544 l 1,10,-1
 372 544 l 1,11,-1
 372 427 l 1,12,-1
 247 427 l 1,13,-1
 247 330 l 1,14,-1
 374 330 l 1,15,-1
 374 214 l 1,16,-1
 247 214 l 1,17,-1
 247 116 l 1,18,-1
 374 116 l 1,19,-1
 374 0 l 1,20,-1
 116 0 l 1,21,-1
 116 214 l 1,0,-1
EndSplineSet
Validated: 1
EndChar

StartChar: uni0163
Encoding: 355 355 693
Width: 413
GlyphClass: 2
Flags: W
AnchorPoint: "Anchor-7" 310 595 basechar 0
AnchorPoint: "Anchor-4" 302 0 basechar 0
LayerCount: 2
Fore
SplineSet
213 -240 m 1,1,-1
 225 -172 l 1,2,3
 249 -181 249 -181 287 -181 c 0,4,5
 311 -181 311 -181 324.5 -172.5 c 128,-1,6
 338 -164 338 -164 338 -148 c 0,7,8
 338 -135 338 -135 329.5 -127.5 c 128,-1,9
 321 -120 321 -120 305 -120 c 0,10,11
 281 -120 281 -120 266 -125 c 1,12,-1
 243 -114 l 1,13,-1
 258 -1 l 1,14,15
 190 12 190 12 153 60.5 c 128,-1,16
 116 109 116 109 116 187 c 2,17,-1
 116 427 l 1,18,-1
 22 427 l 1,19,-1
 22 544 l 1,20,-1
 32 544 l 2,21,22
 72 544 72 544 94 565 c 128,-1,23
 116 586 116 586 116 626 c 2,24,-1
 116 668 l 1,25,-1
 247 668 l 1,26,-1
 247 544 l 1,27,-1
 372 544 l 1,28,-1
 372 427 l 1,29,-1
 247 427 l 1,30,-1
 247 194 l 2,31,32
 247 109 247 109 339 109 c 0,33,34
 355 109 355 109 374 112 c 1,35,-1
 374 -1 l 1,36,37
 347 -4 347 -4 345 -4 c 2,38,-1
 340 -62 l 1,39,40
 345 -61 345 -61 355 -61 c 0,41,42
 394 -61 394 -61 419 -84 c 128,-1,43
 444 -107 444 -107 444 -145 c 0,44,45
 444 -191 444 -191 406 -221 c 128,-1,46
 368 -251 368 -251 297 -251 c 0,47,0
 249 -251 249 -251 213 -240 c 1,1,-1
EndSplineSet
Validated: 1
Substitution2: "'ss01' Style Set 1 in Latin lookup 20 subtable" uni0163.ss01
Substitution2: "'salt' Stylistic Alternatives in Latin lookup 19 subtable" uni0163.ss01
Substitution2: "'locl' Localized Forms in Latin lookup 6 subtable" uni021B
AlternateSubs2: "'aalt' Access All Alternates in Latin lookup 1 subtable" uni021B uni0163.ss01
EndChar

StartChar: u
Encoding: 117 117 703
Width: 593
GlyphClass: 2
Flags: W
AnchorPoint: "Anchor-7" 573 544 basechar 0
AnchorPoint: "Anchor-6" 297 544 basechar 0
AnchorPoint: "Anchor-5" 493 41 basechar 0
AnchorPoint: "Anchor-4" 297 0 basechar 0
LayerCount: 2
Fore
SplineSet
105 49 m 128,-1,1
 50 110 50 110 50 211 c 2,2,-1
 50 544 l 1,3,-1
 181 544 l 1,4,-1
 181 222 l 2,5,6
 181 171 181 171 211.5 139.5 c 128,-1,7
 242 108 242 108 291 108 c 256,8,9
 340 108 340 108 370.5 140 c 128,-1,10
 401 172 401 172 401 225 c 2,11,-1
 401 544 l 1,12,-1
 532 544 l 1,13,-1
 532 0 l 1,14,-1
 408 0 l 1,15,-1
 408 65 l 1,16,17
 386 27 386 27 346.5 7.5 c 128,-1,18
 307 -12 307 -12 255 -12 c 0,19,0
 160 -12 160 -12 105 49 c 128,-1,1
EndSplineSet
Validated: 1
Substitution2: "'ss03' Style Set 3 in Latin lookup 22 subtable" u.ss03
Substitution2: "'ss01' Style Set 1 in Latin lookup 20 subtable" u.ss01
Substitution2: "'salt' Stylistic Alternatives in Latin lookup 19 subtable" u.ss01
AlternateSubs2: "'aalt' Access All Alternates in Latin lookup 1 subtable" u.ss01 u.ss03
EndChar

StartChar: u.ss01
Encoding: 65818 -1 704
Width: 593
GlyphClass: 2
Flags: W
AnchorPoint: "Anchor-7" 573 544 basechar 0
AnchorPoint: "Anchor-6" 297 544 basechar 0
AnchorPoint: "Anchor-5" 291 41 basechar 0
AnchorPoint: "Anchor-4" 297 0 basechar 0
LayerCount: 2
Fore
SplineSet
50 544 m 1,0,-1
 181 544 l 1,1,-1
 181 116 l 1,2,-1
 401 116 l 1,3,-1
 401 544 l 1,4,-1
 532 544 l 1,5,-1
 532 0 l 1,6,-1
 50 0 l 1,7,-1
 50 544 l 1,0,-1
EndSplineSet
Validated: 1
EndChar

StartChar: u.ss03
Encoding: 65819 -1 705
Width: 593
GlyphClass: 2
Flags: W
AnchorPoint: "Anchor-7" 573 544 basechar 0
AnchorPoint: "Anchor-6" 297 544 basechar 0
AnchorPoint: "Anchor-5" 341 41 basechar 0
AnchorPoint: "Anchor-4" 297 0 basechar 0
LayerCount: 2
Fore
SplineSet
164.5 16 m 128,-1,1
 110 44 110 44 80 95.5 c 128,-1,2
 50 147 50 147 50 214 c 2,3,-1
 50 544 l 1,4,-1
 181 544 l 1,5,-1
 181 218 l 2,6,7
 181 168 181 168 211.5 138 c 128,-1,8
 242 108 242 108 291 108 c 256,9,10
 340 108 340 108 370.5 138 c 128,-1,11
 401 168 401 168 401 218 c 2,12,-1
 401 544 l 1,13,-1
 532 544 l 1,14,-1
 532 214 l 2,15,16
 532 147 532 147 502 95.5 c 128,-1,17
 472 44 472 44 417 16 c 128,-1,18
 362 -12 362 -12 291 -12 c 0,19,0
 219 -12 219 -12 164.5 16 c 128,-1,1
EndSplineSet
Validated: 1
EndChar

StartChar: uhorn
Encoding: 432 432 730
Width: 660
GlyphClass: 2
Flags: W
AnchorPoint: "Anchor-7" 573 544 basechar 0
AnchorPoint: "Anchor-6" 297 544 basechar 0
AnchorPoint: "Anchor-5" 493 41 basechar 0
AnchorPoint: "Anchor-4" 297 0 basechar 0
LayerCount: 2
Fore
SplineSet
105 49 m 128,-1,1
 50 110 50 110 50 211 c 2,2,-1
 50 544 l 1,3,-1
 181 544 l 1,4,-1
 181 222 l 2,5,6
 181 171 181 171 211.5 139.5 c 128,-1,7
 242 108 242 108 291 108 c 256,8,9
 340 108 340 108 370.5 140 c 128,-1,10
 401 172 401 172 401 225 c 2,11,-1
 401 544 l 1,12,-1
 488 544 l 2,13,14
 508 544 508 544 522 553 c 128,-1,15
 536 562 536 562 536 594 c 0,16,17
 536 619 536 619 516 671 c 1,18,-1
 629 671 l 1,19,20
 640 646 640 646 646 626 c 128,-1,21
 652 606 652 606 652 582 c 0,22,23
 652 523 652 523 620 490 c 128,-1,24
 588 457 588 457 532 452 c 1,25,-1
 532 0 l 1,26,-1
 408 0 l 1,27,-1
 408 65 l 1,28,29
 386 27 386 27 346.5 7.5 c 128,-1,30
 307 -12 307 -12 255 -12 c 0,31,0
 160 -12 160 -12 105 49 c 128,-1,1
EndSplineSet
Validated: 1
Substitution2: "'ss03' Style Set 3 in Latin lookup 22 subtable" uhorn.ss03
Substitution2: "'ss01' Style Set 1 in Latin lookup 20 subtable" uhorn.ss01
Substitution2: "'salt' Stylistic Alternatives in Latin lookup 19 subtable" uhorn.ss01
AlternateSubs2: "'aalt' Access All Alternates in Latin lookup 1 subtable" uhorn.ss01 uhorn.ss03
EndChar

StartChar: uhorn.ss01
Encoding: 65836 -1 731
Width: 660
GlyphClass: 2
Flags: W
AnchorPoint: "Anchor-6" 297 544 basechar 0
AnchorPoint: "Anchor-4" 297 0 basechar 0
LayerCount: 2
Fore
SplineSet
50 544 m 1,0,-1
 181 544 l 1,1,-1
 181 116 l 1,2,-1
 401 116 l 1,3,-1
 401 544 l 1,4,-1
 488 544 l 2,5,6
 508 544 508 544 522 553 c 128,-1,7
 536 562 536 562 536 594 c 0,8,9
 536 619 536 619 516 671 c 1,10,-1
 629 671 l 1,11,12
 640 646 640 646 646 626 c 128,-1,13
 652 606 652 606 652 582 c 0,14,15
 652 523 652 523 620 490 c 128,-1,16
 588 457 588 457 532 452 c 1,17,-1
 532 0 l 1,18,-1
 50 0 l 1,19,-1
 50 544 l 1,0,-1
EndSplineSet
Validated: 1
EndChar

StartChar: uhorn.ss03
Encoding: 65837 -1 732
Width: 660
GlyphClass: 2
Flags: W
AnchorPoint: "Anchor-7" 573 544 basechar 0
AnchorPoint: "Anchor-6" 297 544 basechar 0
AnchorPoint: "Anchor-5" 341 41 basechar 0
AnchorPoint: "Anchor-4" 297 0 basechar 0
LayerCount: 2
Fore
SplineSet
164.5 16 m 128,-1,1
 110 44 110 44 80 95.5 c 128,-1,2
 50 147 50 147 50 214 c 2,3,-1
 50 544 l 1,4,-1
 181 544 l 1,5,-1
 181 218 l 2,6,7
 181 168 181 168 211.5 138 c 128,-1,8
 242 108 242 108 291 108 c 256,9,10
 340 108 340 108 370.5 138 c 128,-1,11
 401 168 401 168 401 218 c 2,12,-1
 401 544 l 1,13,-1
 488 544 l 2,14,15
 508 544 508 544 522 553 c 128,-1,16
 536 562 536 562 536 594 c 0,17,18
 536 619 536 619 516 671 c 1,19,-1
 629 671 l 1,20,21
 640 646 640 646 646 626 c 128,-1,22
 652 606 652 606 652 582 c 0,23,24
 652 523 652 523 620 490 c 128,-1,25
 588 457 588 457 532 452 c 1,26,-1
 532 214 l 2,27,28
 532 147 532 147 502 95.5 c 128,-1,29
 472 44 472 44 417 16 c 128,-1,30
 362 -12 362 -12 291 -12 c 0,31,0
 219 -12 219 -12 164.5 16 c 128,-1,1
EndSplineSet
Validated: 1
EndChar

StartChar: uogonek
Encoding: 371 371 760
Width: 593
GlyphClass: 2
Flags: W
AnchorPoint: "Anchor-7" 573 544 basechar 0
AnchorPoint: "Anchor-6" 297 544 basechar 0
AnchorPoint: "Anchor-5" 493 41 basechar 0
AnchorPoint: "Anchor-4" 297 0 basechar 0
LayerCount: 2
Fore
SplineSet
105 49 m 128,-1,1
 50 110 50 110 50 211 c 2,2,-1
 50 544 l 1,3,-1
 181 544 l 1,4,-1
 181 222 l 2,5,6
 181 171 181 171 211.5 139.5 c 128,-1,7
 242 108 242 108 291 108 c 256,8,9
 340 108 340 108 370.5 140 c 128,-1,10
 401 172 401 172 401 225 c 2,11,-1
 401 544 l 1,12,-1
 532 544 l 1,13,-1
 532 0 l 1,14,-1
 487 0 l 1,15,16
 417 -26 417 -26 417 -69 c 0,17,18
 417 -90 417 -90 432.5 -102.5 c 128,-1,19
 448 -115 448 -115 477 -115 c 0,20,21
 520 -115 520 -115 564 -87 c 1,22,-1
 604 -155 l 1,23,24
 540 -206 540 -206 464 -206 c 0,25,26
 400 -206 400 -206 359 -176 c 128,-1,27
 318 -146 318 -146 318 -95 c 0,28,29
 318 -56 318 -56 342.5 -25 c 128,-1,30
 367 6 367 6 408 24 c 1,31,-1
 408 65 l 1,32,33
 386 27 386 27 346.5 7.5 c 128,-1,34
 307 -12 307 -12 255 -12 c 0,35,0
 160 -12 160 -12 105 49 c 128,-1,1
EndSplineSet
Validated: 1
Substitution2: "'ss03' Style Set 3 in Latin lookup 22 subtable" uogonek.ss03
Substitution2: "'ss01' Style Set 1 in Latin lookup 20 subtable" uogonek.ss01
Substitution2: "'salt' Stylistic Alternatives in Latin lookup 19 subtable" uogonek.ss01
AlternateSubs2: "'aalt' Access All Alternates in Latin lookup 1 subtable" uogonek.ss01 uogonek.ss03
EndChar

StartChar: uogonek.ss01
Encoding: 65856 -1 761
Width: 593
GlyphClass: 2
Flags: W
AnchorPoint: "Anchor-7" 573 544 basechar 0
AnchorPoint: "Anchor-6" 297 544 basechar 0
AnchorPoint: "Anchor-5" 291 41 basechar 0
AnchorPoint: "Anchor-4" 297 0 basechar 0
LayerCount: 2
Fore
SplineSet
50 544 m 1,0,-1
 181 544 l 1,1,-1
 181 116 l 1,2,-1
 401 116 l 1,3,-1
 401 544 l 1,4,-1
 532 544 l 1,5,-1
 532 0 l 1,6,-1
 285 0 l 1,7,8
 215 -26 215 -26 215 -69 c 0,9,10
 215 -90 215 -90 230.5 -102.5 c 128,-1,11
 246 -115 246 -115 275 -115 c 0,12,13
 318 -115 318 -115 362 -87 c 1,14,-1
 402 -155 l 1,15,16
 338 -206 338 -206 262 -206 c 0,17,18
 198 -206 198 -206 157 -176 c 128,-1,19
 116 -146 116 -146 116 -95 c 0,20,21
 116 -67 116 -67 129 -43 c 128,-1,22
 142 -19 142 -19 165 0 c 1,23,-1
 50 0 l 1,24,-1
 50 544 l 1,0,-1
EndSplineSet
Validated: 1
EndChar

StartChar: uogonek.ss03
Encoding: 65857 -1 762
Width: 593
GlyphClass: 2
Flags: W
AnchorPoint: "Anchor-7" 573 544 basechar 0
AnchorPoint: "Anchor-6" 297 544 basechar 0
AnchorPoint: "Anchor-5" 341 41 basechar 0
AnchorPoint: "Anchor-4" 297 0 basechar 0
LayerCount: 2
Fore
SplineSet
207 -176 m 128,-1,1
 166 -146 166 -146 166 -95 c 0,2,3
 166 -41 166 -41 212 -2 c 1,4,5
 136 18 136 18 93 75 c 128,-1,6
 50 132 50 132 50 214 c 2,7,-1
 50 544 l 1,8,-1
 181 544 l 1,9,-1
 181 218 l 2,10,11
 181 168 181 168 211.5 138 c 128,-1,12
 242 108 242 108 291 108 c 256,13,14
 340 108 340 108 370.5 138 c 128,-1,15
 401 168 401 168 401 218 c 2,16,-1
 401 544 l 1,17,-1
 532 544 l 1,18,-1
 532 214 l 2,19,20
 532 117 532 117 471 55.5 c 128,-1,21
 410 -6 410 -6 309 -12 c 1,22,23
 265 -35 265 -35 265 -69 c 0,24,25
 265 -90 265 -90 280.5 -102.5 c 128,-1,26
 296 -115 296 -115 325 -115 c 0,27,28
 368 -115 368 -115 412 -87 c 1,29,-1
 452 -155 l 1,30,31
 388 -206 388 -206 312 -206 c 0,32,0
 248 -206 248 -206 207 -176 c 128,-1,1
EndSplineSet
Validated: 1
EndChar

StartChar: v
Encoding: 118 118 772
Width: 566
GlyphClass: 2
Flags: W
AnchorPoint: "Anchor-6" 283 544 basechar 0
AnchorPoint: "Anchor-4" 283 0 basechar 0
LayerCount: 2
Fore
SplineSet
11 544 m 1,0,-1
 154 544 l 1,1,-1
 283 189 l 1,2,-1
 412 544 l 1,3,-1
 555 544 l 1,4,-1
 341 0 l 1,5,-1
 225 0 l 1,6,-1
 11 544 l 1,0,-1
EndSplineSet
Validated: 1
EndChar

StartChar: w
Encoding: 119 119 773
Width: 883
GlyphClass: 2
Flags: W
AnchorPoint: "Anchor-6" 442 544 basechar 0
AnchorPoint: "Anchor-4" 442 0 basechar 0
LayerCount: 2
Fore
SplineSet
11 544 m 1,0,-1
 149 544 l 1,1,-1
 263 201 l 1,2,-1
 384 544 l 1,3,-1
 500 544 l 1,4,-1
 620 202 l 1,5,-1
 734 544 l 1,6,-1
 872 544 l 1,7,-1
 685 0 l 1,8,-1
 568 0 l 1,9,-1
 442 367 l 1,10,-1
 314 0 l 1,11,-1
 198 0 l 1,12,-1
 11 544 l 1,0,-1
EndSplineSet
Validated: 1
EndChar

StartChar: x
Encoding: 120 120 778
Width: 558
GlyphClass: 2
Flags: W
AnchorPoint: "Anchor-6" 279 544 basechar 0
AnchorPoint: "Anchor-4" 279 0 basechar 0
LayerCount: 2
Fore
SplineSet
202 273 m 1,0,-1
 11 544 l 1,1,-1
 165 544 l 1,2,-1
 280 375 l 1,3,-1
 394 544 l 1,4,-1
 547 544 l 1,5,-1
 357 273 l 1,6,-1
 546 0 l 1,7,-1
 393 0 l 1,8,-1
 280 169 l 1,9,-1
 166 0 l 1,10,-1
 12 0 l 1,11,-1
 202 273 l 1,0,-1
EndSplineSet
Validated: 1
Substitution2: "Single Substitution lookup 29 subtable" multiply
AlternateSubs2: "'aalt' Access All Alternates in Latin lookup 1 subtable" multiply
EndChar

StartChar: y
Encoding: 121 121 779
Width: 586
GlyphClass: 2
Flags: W
AnchorPoint: "Anchor-6" 293 544 basechar 0
AnchorPoint: "Anchor-4" 536 100 basechar 0
LayerCount: 2
Fore
SplineSet
223 8 m 1,0,-1
 11 544 l 1,1,-1
 152 544 l 1,2,-1
 293 169 l 1,3,-1
 433 544 l 1,4,-1
 575 544 l 1,5,-1
 281 -200 l 1,6,-1
 140 -200 l 1,7,-1
 223 8 l 1,0,-1
EndSplineSet
Validated: 1
Substitution2: "'ss03' Style Set 3 in Latin lookup 22 subtable" y.ss03
Substitution2: "'ss02' Style Set 2 in Latin lookup 21 subtable" y.ss02
Substitution2: "'ss01' Style Set 1 in Latin lookup 20 subtable" y.ss01
Substitution2: "'salt' Stylistic Alternatives in Latin lookup 19 subtable" y.ss01
AlternateSubs2: "'aalt' Access All Alternates in Latin lookup 1 subtable" y.ss01 y.ss02 y.ss03
EndChar

StartChar: y.ss01
Encoding: 65864 -1 780
Width: 586
GlyphClass: 2
Flags: W
AnchorPoint: "Anchor-6" 293 544 basechar 0
AnchorPoint: "Anchor-4" 536 100 basechar 0
LayerCount: 2
Fore
SplineSet
22 -85 m 1,0,-1
 188 -85 l 1,1,-1
 225 4 l 1,2,-1
 11 544 l 1,3,-1
 152 544 l 1,4,-1
 293 169 l 1,5,-1
 433 544 l 1,6,-1
 575 544 l 1,7,-1
 281 -200 l 1,8,-1
 22 -200 l 1,9,-1
 22 -85 l 1,0,-1
EndSplineSet
Validated: 1
EndChar

StartChar: y.ss02
Encoding: 65865 -1 781
Width: 586
GlyphClass: 2
Flags: W
AnchorPoint: "Anchor-6" 293 544 basechar 0
AnchorPoint: "Anchor-4" 536 100 basechar 0
LayerCount: 2
Fore
SplineSet
223 8 m 1,0,-1
 11 544 l 1,1,-1
 152 544 l 1,2,-1
 293 169 l 1,3,-1
 433 544 l 1,4,-1
 575 544 l 1,5,-1
 281 -200 l 1,6,-1
 140 -200 l 1,7,-1
 223 8 l 1,0,-1
EndSplineSet
Validated: 1
EndChar

StartChar: y.ss03
Encoding: 65866 -1 782
Width: 612
GlyphClass: 2
Flags: W
AnchorPoint: "Anchor-6" 306 544 basechar 0
AnchorPoint: "Anchor-4" 644 100 basechar 0
LayerCount: 2
Fore
SplineSet
142.5 -177 m 128,-1,1
 75 -134 75 -134 50 -61 c 1,2,-1
 171 -15 l 1,3,4
 183 -54 183 -54 216.5 -77 c 128,-1,5
 250 -100 250 -100 301 -100 c 0,6,7
 355 -100 355 -100 388 -71.5 c 128,-1,8
 421 -43 421 -43 421 14 c 2,9,-1
 421 89 l 1,10,11
 398 56 398 56 360 39 c 128,-1,12
 322 22 322 22 274 22 c 0,13,14
 179 22 179 22 124 83 c 128,-1,15
 69 144 69 144 69 245 c 2,16,-1
 69 544 l 1,17,-1
 200 544 l 1,18,-1
 200 256 l 2,19,20
 200 205 200 205 230.5 173.5 c 128,-1,21
 261 142 261 142 310 142 c 256,22,23
 359 142 359 142 389.5 174 c 128,-1,24
 420 206 420 206 420 259 c 2,25,-1
 420 544 l 1,26,-1
 551 544 l 1,27,-1
 551 14 l 2,28,29
 551 -56 551 -56 519 -109 c 128,-1,30
 487 -162 487 -162 430 -191 c 128,-1,31
 373 -220 373 -220 301 -220 c 0,32,0
 210 -220 210 -220 142.5 -177 c 128,-1,1
EndSplineSet
Validated: 1
EndChar

StartChar: z
Encoding: 122 122 819
Width: 481
GlyphClass: 2
Flags: W
AnchorPoint: "Anchor-6" 244 544 basechar 0
AnchorPoint: "Anchor-4" 244 0 basechar 0
LayerCount: 2
Fore
SplineSet
14 106 m 1,0,-1
 291 427 l 1,1,-1
 28 427 l 1,2,-1
 28 544 l 1,3,-1
 466 544 l 1,4,-1
 466 437 l 1,5,-1
 194 116 l 1,6,-1
 468 116 l 1,7,-1
 468 0 l 1,8,-1
 14 0 l 1,9,-1
 14 106 l 1,0,-1
EndSplineSet
Validated: 1
EndChar

StartChar: f_f
Encoding: 65894 -1 824
Width: 802
GlyphClass: 3
Flags: W
LayerCount: 2
Fore
SplineSet
124 427 m 1,0,-1
 28 427 l 1,1,-1
 28 544 l 1,2,-1
 124 544 l 1,3,-1
 124 562 l 2,4,5
 124 654 124 654 179.5 705.5 c 128,-1,6
 235 757 235 757 330 757 c 0,7,8
 358 757 358 757 381 752 c 1,9,-1
 381 639 l 1,10,11
 363 642 363 642 347 642 c 0,12,13
 255 642 255 642 255 562 c 2,14,-1
 255 544 l 1,15,-1
 493 544 l 1,16,-1
 493 533 l 1,17,-1
 520 533 l 1,18,-1
 520 551 l 2,19,20
 520 651 520 651 575.5 708.5 c 128,-1,21
 631 766 631 766 726 766 c 0,22,23
 754 766 754 766 777 761 c 1,24,-1
 777 648 l 1,25,26
 759 651 759 651 743 651 c 0,27,28
 651 651 651 651 651 551 c 2,29,-1
 651 533 l 1,30,-1
 772 533 l 1,31,-1
 772 417 l 1,32,-1
 651 417 l 1,33,-1
 651 0 l 1,34,-1
 520 0 l 1,35,-1
 520 417 l 1,36,-1
 424 417 l 1,37,-1
 424 427 l 1,38,-1
 255 427 l 1,39,-1
 255 0 l 1,40,-1
 124 0 l 1,41,-1
 124 427 l 1,0,-1
EndSplineSet
Validated: 1
EndChar

StartChar: f_f_i
Encoding: 65895 -1 825
Width: 1030
GlyphClass: 3
Flags: W
LayerCount: 2
Fore
SplineSet
124 427 m 1,0,-1
 28 427 l 1,1,-1
 28 544 l 1,2,-1
 124 544 l 1,3,-1
 124 562 l 2,4,5
 124 654 124 654 179.5 705.5 c 128,-1,6
 235 757 235 757 330 757 c 0,7,8
 358 757 358 757 381 752 c 1,9,-1
 381 639 l 1,10,11
 363 642 363 642 347 642 c 0,12,13
 255 642 255 642 255 562 c 2,14,-1
 255 544 l 1,15,-1
 530 544 l 1,16,-1
 530 562 l 2,17,18
 530 654 530 654 585.5 705.5 c 128,-1,19
 641 757 641 757 736 757 c 0,20,21
 764 757 764 757 787 752 c 1,22,-1
 787 639 l 1,23,24
 769 642 769 642 753 642 c 0,25,26
 661 642 661 642 661 562 c 2,27,-1
 661 544 l 1,28,-1
 982 544 l 1,29,-1
 982 0 l 1,30,-1
 850 0 l 1,31,-1
 850 427 l 1,32,-1
 661 427 l 1,33,-1
 661 0 l 1,34,-1
 530 0 l 1,35,-1
 530 427 l 1,36,-1
 255 427 l 1,37,-1
 255 0 l 1,38,-1
 124 0 l 1,39,-1
 124 427 l 1,0,-1
EndSplineSet
Validated: 1
EndChar

StartChar: f_f_l
Encoding: 65896 -1 826
Width: 1064
GlyphClass: 3
Flags: W
LayerCount: 2
Fore
SplineSet
124 427 m 1,0,-1
 28 427 l 1,1,-1
 28 544 l 1,2,-1
 124 544 l 1,3,-1
 124 562 l 2,4,5
 124 654 124 654 179.5 705.5 c 128,-1,6
 235 757 235 757 330 757 c 0,7,8
 358 757 358 757 381 752 c 1,9,-1
 381 639 l 1,10,11
 363 642 363 642 347 642 c 0,12,13
 255 642 255 642 255 562 c 2,14,-1
 255 544 l 1,15,-1
 530 544 l 1,16,-1
 530 562 l 2,17,18
 530 654 530 654 585.5 705.5 c 128,-1,19
 641 757 641 757 736 757 c 0,20,21
 764 757 764 757 787 752 c 1,22,-1
 787 639 l 1,23,24
 769 642 769 642 753 642 c 0,25,26
 661 642 661 642 661 562 c 2,27,-1
 661 544 l 1,28,-1
 872 544 l 1,29,-1
 872 757 l 1,30,-1
 1004 757 l 1,31,-1
 1004 0 l 1,32,-1
 872 0 l 1,33,-1
 872 427 l 1,34,-1
 661 427 l 1,35,-1
 661 0 l 1,36,-1
 530 0 l 1,37,-1
 530 427 l 1,38,-1
 255 427 l 1,39,-1
 255 0 l 1,40,-1
 124 0 l 1,41,-1
 124 427 l 1,0,-1
EndSplineSet
Validated: 1
EndChar

StartChar: fi
Encoding: 64257 64257 827
Width: 624
GlyphClass: 3
Flags: W
LayerCount: 2
Fore
SplineSet
124 427 m 1,0,-1
 28 427 l 1,1,-1
 28 544 l 1,2,-1
 124 544 l 1,3,-1
 124 562 l 2,4,5
 124 654 124 654 179.5 705.5 c 128,-1,6
 235 757 235 757 330 757 c 0,7,8
 358 757 358 757 381 752 c 1,9,-1
 381 639 l 1,10,11
 363 642 363 642 347 642 c 0,12,13
 255 642 255 642 255 562 c 2,14,-1
 255 544 l 1,15,-1
 576 544 l 1,16,-1
 576 0 l 1,17,-1
 445 0 l 1,18,-1
 445 427 l 1,19,-1
 255 427 l 1,20,-1
 255 0 l 1,21,-1
 124 0 l 1,22,-1
 124 427 l 1,0,-1
EndSplineSet
Validated: 1
EndChar

StartChar: fl
Encoding: 64258 64258 828
Width: 658
GlyphClass: 3
Flags: W
LayerCount: 2
Fore
SplineSet
124 427 m 1,0,-1
 28 427 l 1,1,-1
 28 544 l 1,2,-1
 124 544 l 1,3,-1
 124 562 l 2,4,5
 124 654 124 654 179.5 705.5 c 128,-1,6
 235 757 235 757 330 757 c 0,7,8
 358 757 358 757 381 752 c 1,9,-1
 381 639 l 1,10,11
 363 642 363 642 347 642 c 0,12,13
 255 642 255 642 255 562 c 2,14,-1
 255 544 l 1,15,-1
 467 544 l 1,16,-1
 467 757 l 1,17,-1
 598 757 l 1,18,-1
 598 0 l 1,19,-1
 467 0 l 1,20,-1
 467 427 l 1,21,-1
 255 427 l 1,22,-1
 255 0 l 1,23,-1
 124 0 l 1,24,-1
 124 427 l 1,0,-1
EndSplineSet
Validated: 1
EndChar

StartChar: ordfeminine
Encoding: 170 170 829
Width: 445
GlyphClass: 2
Flags: W
AnchorPoint: "Anchor-6" 220 383 basechar 0
AnchorPoint: "Anchor-5" 365 29 basechar 0
AnchorPoint: "Anchor-4" 220 0 basechar 0
LayerCount: 2
Fore
SplineSet
75 384.5 m 128,-1,1
 39 414 39 414 39 466 c 0,2,3
 39 515 39 515 73 546.5 c 128,-1,4
 107 578 107 578 174 589 c 2,5,-1
 280 606 l 1,6,-1
 280 616 l 2,7,8
 280 637 280 637 262.5 652 c 128,-1,9
 245 667 245 667 217 667 c 256,10,11
 189 667 189 667 167.5 651.5 c 128,-1,12
 146 636 146 636 137 611 c 1,13,-1
 52 651 l 1,14,15
 69 699 69 699 115 727 c 128,-1,16
 161 755 161 755 221 755 c 0,17,18
 293 755 293 755 339 716 c 128,-1,19
 385 677 385 677 385 616 c 2,20,-1
 385 364 l 1,21,-1
 286 364 l 1,22,-1
 286 398 l 1,23,24
 243 355 243 355 173 355 c 0,25,0
 111 355 111 355 75 384.5 c 128,-1,1
160.5 443 m 128,-1,27
 173 433 173 433 193 433 c 0,28,29
 231 433 231 433 255.5 457 c 128,-1,30
 280 481 280 481 280 517 c 2,31,-1
 280 528 l 1,32,-1
 193 512 l 2,33,34
 170 508 170 508 159 498 c 128,-1,35
 148 488 148 488 148 470 c 0,36,26
 148 453 148 453 160.5 443 c 128,-1,27
EndSplineSet
Validated: 1
EndChar

StartChar: ordmasculine
Encoding: 186 186 830
Width: 487
GlyphClass: 2
Flags: W
AnchorPoint: "Anchor-7" 457 383 basechar 0
AnchorPoint: "Anchor-6" 244 457 basechar 0
AnchorPoint: "Anchor-5" 245 29 basechar 0
AnchorPoint: "Anchor-4" 244 0 basechar 0
LayerCount: 2
Fore
SplineSet
141 381 m 128,-1,1
 94 407 94 407 66.5 453 c 128,-1,2
 39 499 39 499 39 555 c 0,3,4
 39 612 39 612 66.5 657.5 c 128,-1,5
 94 703 94 703 141 729 c 128,-1,6
 188 755 188 755 244 755 c 256,7,8
 300 755 300 755 346.5 729 c 128,-1,9
 393 703 393 703 420.5 657.5 c 128,-1,10
 448 612 448 612 448 555 c 256,11,12
 448 498 448 498 420.5 452.5 c 128,-1,13
 393 407 393 407 346 381 c 128,-1,14
 299 355 299 355 244 355 c 0,15,0
 188 355 188 355 141 381 c 128,-1,1
174.5 479.5 m 128,-1,17
 201 450 201 450 244 450 c 0,18,19
 286 450 286 450 312.5 480 c 128,-1,20
 339 510 339 510 339 555 c 0,21,22
 339 601 339 601 312.5 630.5 c 128,-1,23
 286 660 286 660 244 660 c 256,24,25
 202 660 202 660 175 630 c 128,-1,26
 148 600 148 600 148 555 c 0,27,16
 148 509 148 509 174.5 479.5 c 128,-1,17
EndSplineSet
Validated: 1
EndChar

StartChar: uni0394
Encoding: 916 916 831
Width: 630
GlyphClass: 1
Flags: W
LayerCount: 2
Fore
SplineSet
11 120 m 1,0,-1
 227 745 l 1,1,-1
 403 745 l 1,2,-1
 619 120 l 1,3,-1
 619 0 l 1,4,-1
 11 0 l 1,5,-1
 11 120 l 1,0,-1
472 120 m 1,6,-1
 315 593 l 1,7,-1
 157 120 l 1,8,-1
 472 120 l 1,6,-1
EndSplineSet
Validated: 1
Position2: "'cpsp' Capital Spacing in Latin lookup 0 subtable" dx=5 dy=0 dh=10 dv=0
EndChar

StartChar: uni03A9
Encoding: 937 937 832
Width: 878
GlyphClass: 1
Flags: W
LayerCount: 2
Fore
SplineSet
50 120 m 1,0,-1
 163 120 l 1,1,2
 110 168 110 168 80 233.5 c 128,-1,3
 50 299 50 299 50 373 c 0,4,5
 50 481 50 481 101 569 c 128,-1,6
 152 657 152 657 241 707 c 128,-1,7
 330 757 330 757 439 757 c 256,8,9
 548 757 548 757 637 707 c 128,-1,10
 726 657 726 657 777.5 569 c 128,-1,11
 829 481 829 481 829 373 c 0,12,13
 829 299 829 299 799 233.5 c 128,-1,14
 769 168 769 168 715 120 c 1,15,-1
 829 120 l 1,16,-1
 829 0 l 1,17,-1
 516 0 l 1,18,-1
 516 120 l 1,19,20
 595 144 595 144 643.5 212.5 c 128,-1,21
 692 281 692 281 692 373 c 0,22,23
 692 447 692 447 659 506.5 c 128,-1,24
 626 566 626 566 568.5 599.5 c 128,-1,25
 511 633 511 633 439 633 c 256,26,27
 367 633 367 633 309.5 599.5 c 128,-1,28
 252 566 252 566 219 506.5 c 128,-1,29
 186 447 186 447 186 373 c 0,30,31
 186 281 186 281 234.5 212.5 c 128,-1,32
 283 144 283 144 362 120 c 1,33,-1
 362 0 l 1,34,-1
 50 0 l 1,35,-1
 50 120 l 1,0,-1
EndSplineSet
Validated: 1
Position2: "'cpsp' Capital Spacing in Latin lookup 0 subtable" dx=5 dy=0 dh=10 dv=0
EndChar

StartChar: pi
Encoding: 960 960 833
Width: 682
GlyphClass: 1
Flags: W
LayerCount: 2
Fore
SplineSet
114 427 m 1,0,-1
 22 427 l 1,1,-1
 22 544 l 1,2,-1
 660 544 l 1,3,-1
 660 427 l 1,4,-1
 569 427 l 1,5,-1
 569 0 l 1,6,-1
 438 0 l 1,7,-1
 438 427 l 1,8,-1
 246 427 l 1,9,-1
 246 0 l 1,10,-1
 114 0 l 1,11,-1
 114 427 l 1,0,-1
EndSplineSet
Validated: 1
EndChar

StartChar: zero
Encoding: 48 48 834
Width: 708
GlyphClass: 1
Flags: W
LayerCount: 2
Fore
SplineSet
198.5 36 m 128,-1,1
 131 84 131 84 93.5 171.5 c 128,-1,2
 56 259 56 259 56 373 c 256,3,4
 56 487 56 487 93.5 574 c 128,-1,5
 131 661 131 661 198 709 c 128,-1,6
 265 757 265 757 353 757 c 0,7,8
 442 757 442 757 510 709 c 128,-1,9
 578 661 578 661 615.5 574 c 128,-1,10
 653 487 653 487 653 373 c 256,11,12
 653 259 653 259 615.5 171.5 c 128,-1,13
 578 84 578 84 510.5 36 c 128,-1,14
 443 -12 443 -12 354 -12 c 0,15,0
 266 -12 266 -12 198.5 36 c 128,-1,1
235 182 m 128,-1,17
 278 112 278 112 354 112 c 256,18,19
 430 112 430 112 473.5 181.5 c 128,-1,20
 517 251 517 251 517 373 c 0,21,22
 517 494 517 494 473.5 563.5 c 128,-1,23
 430 633 430 633 353 633 c 0,24,25
 277 633 277 633 234.5 564 c 128,-1,26
 192 495 192 495 192 373 c 0,27,16
 192 252 192 252 235 182 c 128,-1,17
EndSplineSet
Validated: 1
Substitution2: "'frac' Diagonal Fractions in Latin lookup 14 subtable" zero.numr
Substitution2: "'dnom' Denominators in Latin lookup 12 subtable" zero.dnom
Substitution2: "'numr' Numerators in Latin lookup 11 subtable" zero.numr
Substitution2: "'sups' Superscript in Latin lookup 10 subtable" uni2070
Substitution2: "'sinf' Scientific Inferiors in Latin lookup 9 subtable" uni2080
Substitution2: "'subs' Subscript in Latin lookup 8 subtable" uni2080
AlternateSubs2: "'aalt' Access All Alternates in Latin lookup 1 subtable" uni2080 uni2070 zero.numr zero.dnom
EndChar

StartChar: one
Encoding: 49 49 835
Width: 403
GlyphClass: 1
Flags: W
LayerCount: 2
Fore
SplineSet
173 629 m 1,0,-1
 29 629 l 1,1,-1
 29 745 l 1,2,-1
 309 745 l 1,3,-1
 309 0 l 1,4,-1
 173 0 l 1,5,-1
 173 629 l 1,0,-1
EndSplineSet
Validated: 1
Substitution2: "'frac' Diagonal Fractions in Latin lookup 14 subtable" one.numr
Substitution2: "'dnom' Denominators in Latin lookup 12 subtable" one.dnom
Substitution2: "'numr' Numerators in Latin lookup 11 subtable" one.numr
Substitution2: "'sups' Superscript in Latin lookup 10 subtable" uni00B9
Substitution2: "'sinf' Scientific Inferiors in Latin lookup 9 subtable" uni2081
Substitution2: "'subs' Subscript in Latin lookup 8 subtable" uni2081
AlternateSubs2: "'aalt' Access All Alternates in Latin lookup 1 subtable" uni2081 uni00B9 one.numr one.dnom
EndChar

StartChar: two
Encoding: 50 50 836
Width: 597
GlyphClass: 1
Flags: W
LayerCount: 2
Fore
SplineSet
46 103 m 1,0,-1
 248 314 l 2,1,2
 313 382 313 382 343 417.5 c 128,-1,3
 373 453 373 453 386 479.5 c 128,-1,4
 399 506 399 506 399 534 c 0,5,6
 399 580 399 580 370 607.5 c 128,-1,7
 341 635 341 635 294 635 c 0,8,9
 245 635 245 635 210.5 607.5 c 128,-1,10
 176 580 176 580 160 527 c 1,11,-1
 41 564 l 1,12,13
 53 622 53 622 89.5 665.5 c 128,-1,14
 126 709 126 709 180 733 c 128,-1,15
 234 757 234 757 294 757 c 0,16,17
 365 757 365 757 420 730.5 c 128,-1,18
 475 704 475 704 505.5 656.5 c 128,-1,19
 536 609 536 609 536 548 c 0,20,21
 536 488 536 488 503.5 431.5 c 128,-1,22
 471 375 471 375 398 299 c 2,23,-1
 223 115 l 1,24,-1
 546 115 l 1,25,-1
 546 0 l 1,26,-1
 46 0 l 1,27,-1
 46 103 l 1,0,-1
EndSplineSet
Validated: 1
Substitution2: "'frac' Diagonal Fractions in Latin lookup 14 subtable" two.numr
Substitution2: "'dnom' Denominators in Latin lookup 12 subtable" two.dnom
Substitution2: "'numr' Numerators in Latin lookup 11 subtable" two.numr
Substitution2: "'sups' Superscript in Latin lookup 10 subtable" uni00B2
Substitution2: "'sinf' Scientific Inferiors in Latin lookup 9 subtable" uni2082
Substitution2: "'subs' Subscript in Latin lookup 8 subtable" uni2082
AlternateSubs2: "'aalt' Access All Alternates in Latin lookup 1 subtable" uni2082 uni00B2 two.numr two.dnom
EndChar

StartChar: three
Encoding: 51 51 837
Width: 611
GlyphClass: 1
Flags: W
LayerCount: 2
Fore
SplineSet
177.5 11 m 128,-1,1
 123 34 123 34 84.5 76 c 128,-1,2
 46 118 46 118 32 173 c 1,3,-1
 151 215 l 1,4,5
 169 165 169 165 206 138 c 128,-1,6
 243 111 243 111 293 111 c 0,7,8
 353 111 353 111 389.5 145 c 128,-1,9
 426 179 426 179 426 237 c 0,10,11
 426 294 426 294 389.5 327.5 c 128,-1,12
 353 361 353 361 292 361 c 0,13,14
 250 361 250 361 216 345 c 1,15,-1
 185 410 l 1,16,-1
 378 630 l 1,17,-1
 74 630 l 1,18,-1
 74 745 l 1,19,-1
 531 745 l 1,20,-1
 531 638 l 1,21,-1
 378 459 l 1,22,23
 462 446 462 446 512 387.5 c 128,-1,24
 562 329 562 329 562 241 c 0,25,26
 562 170 562 170 527 112 c 128,-1,27
 492 54 492 54 430.5 21 c 128,-1,28
 369 -12 369 -12 293 -12 c 0,29,0
 232 -12 232 -12 177.5 11 c 128,-1,1
EndSplineSet
Validated: 1
Substitution2: "'frac' Diagonal Fractions in Latin lookup 14 subtable" three.numr
Substitution2: "'dnom' Denominators in Latin lookup 12 subtable" three.dnom
Substitution2: "'numr' Numerators in Latin lookup 11 subtable" three.numr
Substitution2: "'sups' Superscript in Latin lookup 10 subtable" uni00B3
Substitution2: "'sinf' Scientific Inferiors in Latin lookup 9 subtable" uni2083
Substitution2: "'subs' Subscript in Latin lookup 8 subtable" uni2083
AlternateSubs2: "'aalt' Access All Alternates in Latin lookup 1 subtable" uni2083 uni00B3 three.numr three.dnom
EndChar

StartChar: four
Encoding: 52 52 838
Width: 654
GlyphClass: 1
Flags: W
LayerCount: 2
Fore
SplineSet
378 164 m 1,0,-1
 36 164 l 1,1,-1
 36 278 l 1,2,-1
 370 745 l 1,3,-1
 512 745 l 1,4,-1
 512 278 l 1,5,-1
 621 278 l 1,6,-1
 621 164 l 1,7,-1
 512 164 l 1,8,-1
 512 0 l 1,9,-1
 378 0 l 1,10,-1
 378 164 l 1,0,-1
378 278 m 1,11,-1
 378 577 l 1,12,-1
 170 278 l 1,13,-1
 378 278 l 1,11,-1
EndSplineSet
Validated: 1
Substitution2: "'frac' Diagonal Fractions in Latin lookup 14 subtable" four.numr
Substitution2: "'dnom' Denominators in Latin lookup 12 subtable" four.dnom
Substitution2: "'numr' Numerators in Latin lookup 11 subtable" four.numr
Substitution2: "'sups' Superscript in Latin lookup 10 subtable" uni2074
Substitution2: "'sinf' Scientific Inferiors in Latin lookup 9 subtable" uni2084
Substitution2: "'subs' Subscript in Latin lookup 8 subtable" uni2084
AlternateSubs2: "'aalt' Access All Alternates in Latin lookup 1 subtable" uni2084 uni2074 four.numr four.dnom
EndChar

StartChar: five
Encoding: 53 53 839
Width: 615
GlyphClass: 1
Flags: W
LayerCount: 2
Fore
SplineSet
184 10 m 128,-1,1
 130 32 130 32 92 73 c 128,-1,2
 54 114 54 114 40 169 c 1,3,-1
 158 211 l 1,4,5
 175 162 175 162 212 136.5 c 128,-1,6
 249 111 249 111 297 111 c 0,7,8
 354 111 354 111 390 147.5 c 128,-1,9
 426 184 426 184 426 242 c 256,10,11
 426 300 426 300 390 336 c 128,-1,12
 354 372 354 372 297 372 c 0,13,14
 257 372 257 372 226 354.5 c 128,-1,15
 195 337 195 337 181 306 c 1,16,-1
 70 331 l 1,17,-1
 129 745 l 1,18,-1
 535 745 l 1,19,-1
 535 630 l 1,20,-1
 226 630 l 1,21,-1
 203 459 l 1,22,23
 248 488 248 488 320 488 c 256,24,25
 392 488 392 488 447.5 456.5 c 128,-1,26
 503 425 503 425 533 369 c 128,-1,27
 563 313 563 313 563 242 c 0,28,29
 563 170 563 170 528.5 112 c 128,-1,30
 494 54 494 54 433 21 c 128,-1,31
 372 -12 372 -12 297 -12 c 0,32,0
 238 -12 238 -12 184 10 c 128,-1,1
EndSplineSet
Validated: 1
Substitution2: "'frac' Diagonal Fractions in Latin lookup 14 subtable" five.numr
Substitution2: "'dnom' Denominators in Latin lookup 12 subtable" five.dnom
Substitution2: "'numr' Numerators in Latin lookup 11 subtable" five.numr
Substitution2: "'sups' Superscript in Latin lookup 10 subtable" uni2075
Substitution2: "'sinf' Scientific Inferiors in Latin lookup 9 subtable" uni2085
Substitution2: "'subs' Subscript in Latin lookup 8 subtable" uni2085
AlternateSubs2: "'aalt' Access All Alternates in Latin lookup 1 subtable" uni2085 uni2075 five.numr five.dnom
EndChar

StartChar: six
Encoding: 54 54 840
Width: 602
GlyphClass: 1
Flags: W
LayerCount: 2
Fore
SplineSet
168 20 m 128,-1,1
 109 52 109 52 76 108.5 c 128,-1,2
 43 165 43 165 43 235 c 0,3,4
 43 294 43 294 63 348.5 c 128,-1,5
 83 403 83 403 138 475 c 2,6,-1
 346 745 l 1,7,-1
 508 745 l 1,8,-1
 295 472 l 1,9,10
 315 474 315 474 325 474 c 0,11,12
 392 474 392 474 445.5 443 c 128,-1,13
 499 412 499 412 529.5 358.5 c 128,-1,14
 560 305 560 305 560 238 c 0,15,16
 560 167 560 167 527 110 c 128,-1,17
 494 53 494 53 435 20.5 c 128,-1,18
 376 -12 376 -12 302 -12 c 0,19,0
 227 -12 227 -12 168 20 c 128,-1,1
214.5 146 m 128,-1,21
 250 111 250 111 302 111 c 256,22,23
 354 111 354 111 389 146 c 128,-1,24
 424 181 424 181 424 236 c 256,25,26
 424 291 424 291 389 326 c 128,-1,27
 354 361 354 361 302 361 c 256,28,29
 250 361 250 361 214.5 326 c 128,-1,30
 179 291 179 291 179 236 c 256,31,20
 179 181 179 181 214.5 146 c 128,-1,21
EndSplineSet
Validated: 1
Substitution2: "'frac' Diagonal Fractions in Latin lookup 14 subtable" six.numr
Substitution2: "'dnom' Denominators in Latin lookup 12 subtable" six.dnom
Substitution2: "'numr' Numerators in Latin lookup 11 subtable" six.numr
Substitution2: "'sups' Superscript in Latin lookup 10 subtable" uni2076
Substitution2: "'sinf' Scientific Inferiors in Latin lookup 9 subtable" uni2086
Substitution2: "'subs' Subscript in Latin lookup 8 subtable" uni2086
AlternateSubs2: "'aalt' Access All Alternates in Latin lookup 1 subtable" uni2086 uni2076 six.numr six.dnom
EndChar

StartChar: seven
Encoding: 55 55 841
Width: 559
GlyphClass: 1
Flags: W
LayerCount: 2
Fore
SplineSet
382 631 m 1,0,-1
 31 631 l 1,1,-1
 31 746 l 1,2,-1
 525 746 l 1,3,-1
 525 631 l 1,4,-1
 222 0 l 1,5,-1
 72 0 l 1,6,-1
 382 631 l 1,0,-1
EndSplineSet
Validated: 1
Substitution2: "'frac' Diagonal Fractions in Latin lookup 14 subtable" seven.numr
Substitution2: "'dnom' Denominators in Latin lookup 12 subtable" seven.dnom
Substitution2: "'numr' Numerators in Latin lookup 11 subtable" seven.numr
Substitution2: "'sups' Superscript in Latin lookup 10 subtable" uni2077
Substitution2: "'sinf' Scientific Inferiors in Latin lookup 9 subtable" uni2087
Substitution2: "'subs' Subscript in Latin lookup 8 subtable" uni2087
AlternateSubs2: "'aalt' Access All Alternates in Latin lookup 1 subtable" uni2087 uni2077 seven.numr seven.dnom
EndChar

StartChar: eight
Encoding: 56 56 842
Width: 632
GlyphClass: 1
Flags: W
LayerCount: 2
Fore
SplineSet
177 18.5 m 128,-1,1
 117 49 117 49 84 100.5 c 128,-1,2
 51 152 51 152 51 215 c 0,3,4
 51 276 51 276 79.5 322 c 128,-1,5
 108 368 108 368 162 396 c 1,6,7
 124 419 124 419 102.5 461.5 c 128,-1,8
 81 504 81 504 81 554 c 0,9,10
 81 612 81 612 111 658 c 128,-1,11
 141 704 141 704 194.5 730.5 c 128,-1,12
 248 757 248 757 316 757 c 0,13,14
 383 757 383 757 436.5 731 c 128,-1,15
 490 705 490 705 520 658.5 c 128,-1,16
 550 612 550 612 550 554 c 0,17,18
 550 505 550 505 529 463 c 128,-1,19
 508 421 508 421 470 396 c 1,20,21
 524 367 524 367 552.5 321 c 128,-1,22
 581 275 581 275 581 214 c 0,23,24
 581 152 581 152 548 100.5 c 128,-1,25
 515 49 515 49 454.5 18.5 c 128,-1,26
 394 -12 394 -12 316 -12 c 0,27,0
 237 -12 237 -12 177 18.5 c 128,-1,1
223 135 m 128,-1,29
 258 103 258 103 316 103 c 256,30,31
 374 103 374 103 409.5 135 c 128,-1,32
 445 167 445 167 445 219 c 256,33,34
 445 271 445 271 409.5 302.5 c 128,-1,35
 374 334 374 334 316 334 c 256,36,37
 258 334 258 334 223 302.5 c 128,-1,38
 188 271 188 271 188 219 c 256,39,28
 188 167 188 167 223 135 c 128,-1,29
244.5 476.5 m 128,-1,41
 272 449 272 449 316 449 c 0,42,43
 359 449 359 449 386.5 476.5 c 128,-1,44
 414 504 414 504 414 546 c 256,45,46
 414 588 414 588 386.5 615 c 128,-1,47
 359 642 359 642 316 642 c 0,48,49
 272 642 272 642 244.5 615 c 128,-1,50
 217 588 217 588 217 546 c 256,51,40
 217 504 217 504 244.5 476.5 c 128,-1,41
EndSplineSet
Validated: 1
Substitution2: "'frac' Diagonal Fractions in Latin lookup 14 subtable" eight.numr
Substitution2: "'dnom' Denominators in Latin lookup 12 subtable" eight.dnom
Substitution2: "'numr' Numerators in Latin lookup 11 subtable" eight.numr
Substitution2: "'sups' Superscript in Latin lookup 10 subtable" uni2078
Substitution2: "'sinf' Scientific Inferiors in Latin lookup 9 subtable" uni2088
Substitution2: "'subs' Subscript in Latin lookup 8 subtable" uni2088
AlternateSubs2: "'aalt' Access All Alternates in Latin lookup 1 subtable" uni2088 uni2078 eight.numr eight.dnom
EndChar

StartChar: nine
Encoding: 57 57 843
Width: 602
GlyphClass: 1
Flags: W
LayerCount: 2
Fore
SplineSet
306 273 m 1,0,1
 288 271 288 271 277 271 c 0,2,3
 210 271 210 271 156.5 302 c 128,-1,4
 103 333 103 333 72.5 387 c 128,-1,5
 42 441 42 441 42 508 c 0,6,7
 42 579 42 579 75 636 c 128,-1,8
 108 693 108 693 167.5 725 c 128,-1,9
 227 757 227 757 301 757 c 256,10,11
 375 757 375 757 434 725 c 128,-1,12
 493 693 493 693 526.5 636.5 c 128,-1,13
 560 580 560 580 560 510 c 0,14,15
 560 451 560 451 540 396.5 c 128,-1,16
 520 342 520 342 465 270 c 2,17,-1
 257 0 l 1,18,-1
 94 0 l 1,19,-1
 306 273 l 1,0,1
213 419.5 m 128,-1,21
 248 385 248 385 301 385 c 0,22,23
 353 385 353 385 388 419.5 c 128,-1,24
 423 454 423 454 423 509 c 256,25,26
 423 564 423 564 388 599.5 c 128,-1,27
 353 635 353 635 301 635 c 256,28,29
 249 635 249 635 213.5 599.5 c 128,-1,30
 178 564 178 564 178 509 c 256,31,20
 178 454 178 454 213 419.5 c 128,-1,21
EndSplineSet
Validated: 1
Substitution2: "'frac' Diagonal Fractions in Latin lookup 14 subtable" nine.numr
Substitution2: "'dnom' Denominators in Latin lookup 12 subtable" nine.dnom
Substitution2: "'numr' Numerators in Latin lookup 11 subtable" nine.numr
Substitution2: "'sups' Superscript in Latin lookup 10 subtable" uni2079
Substitution2: "'sinf' Scientific Inferiors in Latin lookup 9 subtable" uni2089
Substitution2: "'subs' Subscript in Latin lookup 8 subtable" uni2089
AlternateSubs2: "'aalt' Access All Alternates in Latin lookup 1 subtable" uni2089 uni2079 nine.numr nine.dnom
EndChar

StartChar: zero.dnom
Encoding: 65897 -1 844
Width: 395
GlyphClass: 1
Flags: W
LayerCount: 2
Fore
SplineSet
109.5 20.5 m 128,-1,1
 71 48 71 48 50 97 c 128,-1,2
 29 146 29 146 29 209 c 256,3,4
 29 272 29 272 50 321 c 128,-1,5
 71 370 71 370 109 397 c 128,-1,6
 147 424 147 424 196 424 c 0,7,8
 247 424 247 424 285.5 397 c 128,-1,9
 324 370 324 370 345 321.5 c 128,-1,10
 366 273 366 273 366 209 c 0,11,12
 366 146 366 146 345 97 c 128,-1,13
 324 48 324 48 285.5 20.5 c 128,-1,14
 247 -7 247 -7 197 -7 c 0,15,0
 148 -7 148 -7 109.5 20.5 c 128,-1,1
142 112 m 128,-1,17
 161 77 161 77 197 77 c 0,18,19
 234 77 234 77 254 112 c 128,-1,20
 274 147 274 147 274 209 c 0,21,22
 274 270 274 270 253.5 305 c 128,-1,23
 233 340 233 340 196 340 c 0,24,25
 161 340 161 340 142 305.5 c 128,-1,26
 123 271 123 271 123 209 c 256,27,16
 123 147 123 147 142 112 c 128,-1,17
EndSplineSet
Validated: 1
EndChar

StartChar: one.dnom
Encoding: 65898 -1 845
Width: 280
GlyphClass: 1
Flags: W
LayerCount: 2
Fore
SplineSet
97 339 m 1,0,-1
 16 339 l 1,1,-1
 16 417 l 1,2,-1
 190 417 l 1,3,-1
 190 0 l 1,4,-1
 97 0 l 1,5,-1
 97 339 l 1,0,-1
EndSplineSet
Validated: 1
EndChar

StartChar: two.dnom
Encoding: 65899 -1 846
Width: 341
GlyphClass: 1
Flags: W
LayerCount: 2
Fore
SplineSet
23 72 m 1,0,-1
 135 188 l 2,1,2
 180 234 180 234 195.5 255.5 c 128,-1,3
 211 277 211 277 211 295 c 0,4,5
 211 314 211 314 197.5 327 c 128,-1,6
 184 340 184 340 164 340 c 0,7,8
 143 340 143 340 126 327.5 c 128,-1,9
 109 315 109 315 101 291 c 1,10,-1
 20 318 l 1,11,12
 30 366 30 366 71.5 395 c 128,-1,13
 113 424 113 424 164 424 c 0,14,15
 226 424 226 424 265 391 c 128,-1,16
 304 358 304 358 304 306 c 0,17,18
 304 271 304 271 286.5 241 c 128,-1,19
 269 211 269 211 234 175 c 2,20,-1
 141 79 l 1,21,-1
 308 79 l 1,22,-1
 308 0 l 1,23,-1
 23 0 l 1,24,-1
 23 72 l 1,0,-1
EndSplineSet
Validated: 1
EndChar

StartChar: three.dnom
Encoding: 65900 -1 847
Width: 352
GlyphClass: 1
Flags: W
LayerCount: 2
Fore
SplineSet
69.5 22.5 m 128,-1,1
 27 52 27 52 16 100 c 1,2,-1
 99 128 l 1,3,4
 108 103 108 103 125.5 90.5 c 128,-1,5
 143 78 143 78 166 78 c 0,6,7
 194 78 194 78 211.5 94 c 128,-1,8
 229 110 229 110 229 137 c 0,9,10
 229 162 229 162 212.5 177.5 c 128,-1,11
 196 193 196 193 166 193 c 0,12,13
 139 193 139 193 117 182 c 1,14,-1
 95 226 l 1,15,-1
 200 340 l 1,16,-1
 43 340 l 1,17,-1
 43 417 l 1,18,-1
 305 417 l 1,19,-1
 305 344 l 1,20,-1
 228 259 l 1,21,22
 271 250 271 250 296 218 c 128,-1,23
 321 186 321 186 321 139 c 0,24,25
 321 98 321 98 301 64.5 c 128,-1,26
 281 31 281 31 245.5 12 c 128,-1,27
 210 -7 210 -7 166 -7 c 0,28,0
 112 -7 112 -7 69.5 22.5 c 128,-1,1
EndSplineSet
Validated: 1
EndChar

StartChar: four.dnom
Encoding: 65901 -1 848
Width: 396
GlyphClass: 1
Flags: W
LayerCount: 2
Fore
SplineSet
211 89 m 1,0,-1
 30 89 l 1,1,-1
 30 167 l 1,2,-1
 204 417 l 1,3,-1
 305 417 l 1,4,-1
 305 167 l 1,5,-1
 371 167 l 1,6,-1
 371 89 l 1,7,-1
 305 89 l 1,8,-1
 305 0 l 1,9,-1
 211 0 l 1,10,-1
 211 89 l 1,0,-1
211 167 m 1,11,-1
 211 303 l 1,12,-1
 119 167 l 1,13,-1
 211 167 l 1,11,-1
EndSplineSet
Validated: 1
EndChar

StartChar: five.dnom
Encoding: 65902 -1 849
Width: 354
GlyphClass: 1
Flags: W
LayerCount: 2
Fore
SplineSet
79.5 21.5 m 128,-1,1
 37 50 37 50 27 98 c 1,2,-1
 110 125 l 1,3,4
 118 101 118 101 135 89.5 c 128,-1,5
 152 78 152 78 173 78 c 0,6,7
 199 78 199 78 216 94.5 c 128,-1,8
 233 111 233 111 233 138 c 256,9,10
 233 165 233 165 216.5 181.5 c 128,-1,11
 200 198 200 198 173 198 c 0,12,13
 131 198 131 198 119 164 c 1,14,-1
 43 182 l 1,15,-1
 76 417 l 1,16,-1
 312 417 l 1,17,-1
 312 340 l 1,18,-1
 144 340 l 1,19,-1
 133 264 l 1,20,21
 157 276 157 276 191 276 c 0,22,23
 253 276 253 276 289.5 237.5 c 128,-1,24
 326 199 326 199 326 138 c 0,25,26
 326 97 326 97 306 64 c 128,-1,27
 286 31 286 31 251 12 c 128,-1,28
 216 -7 216 -7 173 -7 c 0,29,0
 122 -7 122 -7 79.5 21.5 c 128,-1,1
EndSplineSet
Validated: 1
EndChar

StartChar: six.dnom
Encoding: 65903 -1 850
Width: 350
GlyphClass: 1
Flags: W
LayerCount: 2
Fore
SplineSet
98.5 11.5 m 128,-1,1
 64 30 64 30 44.5 61.5 c 128,-1,2
 25 93 25 93 25 132 c 0,3,4
 25 167 25 167 37 197.5 c 128,-1,5
 49 228 49 228 80 267 c 2,6,-1
 196 417 l 1,7,-1
 307 417 l 1,8,-1
 190 269 l 1,9,-1
 192 269 l 2,10,11
 250 269 250 269 287.5 231 c 128,-1,12
 325 193 325 193 325 137 c 0,13,14
 325 74 325 74 283.5 33.5 c 128,-1,15
 242 -7 242 -7 176 -7 c 0,16,0
 133 -7 133 -7 98.5 11.5 c 128,-1,1
134.5 94 m 128,-1,18
 151 78 151 78 176 78 c 0,19,20
 199 78 199 78 215.5 94.5 c 128,-1,21
 232 111 232 111 232 136 c 256,22,23
 232 161 232 161 215.5 176.5 c 128,-1,24
 199 192 199 192 176 192 c 0,25,26
 151 192 151 192 134.5 176.5 c 128,-1,27
 118 161 118 161 118 136 c 0,28,17
 118 110 118 110 134.5 94 c 128,-1,18
EndSplineSet
Validated: 1
EndChar

StartChar: seven.dnom
Encoding: 65904 -1 851
Width: 319
GlyphClass: 1
Flags: W
LayerCount: 2
Fore
SplineSet
205 340 m 1,0,-1
 15 340 l 1,1,-1
 15 418 l 1,2,-1
 303 418 l 1,3,-1
 303 340 l 1,4,-1
 144 0 l 1,5,-1
 40 0 l 1,6,-1
 205 340 l 1,0,-1
EndSplineSet
Validated: 1
EndChar

StartChar: eight.dnom
Encoding: 65905 -1 852
Width: 377
GlyphClass: 1
Flags: W
LayerCount: 2
Fore
SplineSet
106.5 10.5 m 128,-1,1
 72 28 72 28 53.5 57 c 128,-1,2
 35 86 35 86 35 120 c 0,3,4
 35 185 35 185 91 217 c 1,5,6
 71 231 71 231 59.5 254.5 c 128,-1,7
 48 278 48 278 48 307 c 0,8,9
 48 357 48 357 87.5 390.5 c 128,-1,10
 127 424 127 424 187 424 c 256,11,12
 247 424 247 424 286.5 390.5 c 128,-1,13
 326 357 326 357 326 307 c 0,14,15
 326 280 326 280 314.5 255.5 c 128,-1,16
 303 231 303 231 283 217 c 1,17,18
 341 186 341 186 341 120 c 0,19,20
 341 86 341 86 322 57 c 128,-1,21
 303 28 303 28 268 10.5 c 128,-1,22
 233 -7 233 -7 187 -7 c 256,23,0
 141 -7 141 -7 106.5 10.5 c 128,-1,1
145.5 86 m 128,-1,25
 162 71 162 71 187 71 c 0,26,27
 213 71 213 71 230.5 86 c 128,-1,28
 248 101 248 101 248 124 c 256,29,30
 248 147 248 147 231 161.5 c 128,-1,31
 214 176 214 176 187 176 c 0,32,33
 161 176 161 176 145 161.5 c 128,-1,34
 129 147 129 147 129 124 c 256,35,24
 129 101 129 101 145.5 86 c 128,-1,25
154 267 m 128,-1,37
 167 254 167 254 187 254 c 256,38,39
 207 254 207 254 219.5 267 c 128,-1,40
 232 280 232 280 232 299 c 0,41,42
 232 319 232 319 219.5 332.5 c 128,-1,43
 207 346 207 346 187 346 c 0,44,45
 166 346 166 346 153.5 333 c 128,-1,46
 141 320 141 320 141 299 c 0,47,36
 141 280 141 280 154 267 c 128,-1,37
EndSplineSet
Validated: 1
EndChar

StartChar: nine.dnom
Encoding: 65906 -1 853
Width: 350
GlyphClass: 1
Flags: W
LayerCount: 2
Fore
SplineSet
161 149 m 1,0,-1
 158 149 l 2,1,2
 101 149 101 149 63 187 c 128,-1,3
 25 225 25 225 25 281 c 0,4,5
 25 343 25 343 67.5 383.5 c 128,-1,6
 110 424 110 424 176 424 c 0,7,8
 241 424 241 424 283 384.5 c 128,-1,9
 325 345 325 345 325 286 c 0,10,11
 325 252 325 252 314.5 222 c 128,-1,12
 304 192 304 192 272 151 c 2,13,-1
 155 0 l 1,14,-1
 43 0 l 1,15,-1
 161 149 l 1,0,-1
135 241 m 128,-1,17
 152 225 152 225 176 225 c 0,18,19
 199 225 199 225 215.5 241 c 128,-1,20
 232 257 232 257 232 282 c 256,21,22
 232 307 232 307 215.5 323.5 c 128,-1,23
 199 340 199 340 176 340 c 0,24,25
 152 340 152 340 135 323.5 c 128,-1,26
 118 307 118 307 118 282 c 256,27,16
 118 257 118 257 135 241 c 128,-1,17
EndSplineSet
Validated: 1
EndChar

StartChar: uni2080
Encoding: 8320 8320 854
Width: 478
GlyphClass: 1
Flags: W
LayerCount: 2
Fore
SplineSet
129.5 25 m 128,-1,1
 82 59 82 59 55.5 120 c 128,-1,2
 29 181 29 181 29 261 c 256,3,4
 29 341 29 341 55 402 c 128,-1,5
 81 463 81 463 129 496.5 c 128,-1,6
 177 530 177 530 239 530 c 256,7,8
 301 530 301 530 349 496.5 c 128,-1,9
 397 463 397 463 423 402 c 128,-1,10
 449 341 449 341 449 261 c 0,11,12
 449 182 449 182 423 120.5 c 128,-1,13
 397 59 397 59 349 25 c 128,-1,14
 301 -9 301 -9 239 -9 c 256,15,0
 177 -9 177 -9 129.5 25 c 128,-1,1
164.5 135.5 m 128,-1,17
 191 90 191 90 239 90 c 256,18,19
 287 90 287 90 314 135.5 c 128,-1,20
 341 181 341 181 341 261 c 256,21,22
 341 341 341 341 314 386 c 128,-1,23
 287 431 287 431 239 431 c 256,24,25
 191 431 191 431 164.5 386.5 c 128,-1,26
 138 342 138 342 138 261 c 0,27,16
 138 181 138 181 164.5 135.5 c 128,-1,17
EndSplineSet
Validated: 1
EndChar

StartChar: uni2081
Encoding: 8321 8321 855
Width: 315
GlyphClass: 1
Flags: W
LayerCount: 2
Fore
SplineSet
117 430 m 1,0,-1
 16 430 l 1,1,-1
 16 521 l 1,2,-1
 226 521 l 1,3,-1
 226 0 l 1,4,-1
 117 0 l 1,5,-1
 117 430 l 1,0,-1
EndSplineSet
Validated: 1
EndChar

StartChar: uni2082
Encoding: 8322 8322 856
Width: 410
GlyphClass: 1
Flags: W
LayerCount: 2
Fore
SplineSet
23 84 m 1,0,-1
 164 229 l 2,1,2
 223 290 223 290 243 317.5 c 128,-1,3
 263 345 263 345 263 370 c 0,4,5
 263 398 263 398 244.5 415 c 128,-1,6
 226 432 226 432 198 432 c 0,7,8
 169 432 169 432 147 415 c 128,-1,9
 125 398 125 398 115 366 c 1,10,-1
 20 396 l 1,11,12
 32 457 32 457 83 493.5 c 128,-1,13
 134 530 134 530 198 530 c 0,14,15
 276 530 276 530 324 489 c 128,-1,16
 372 448 372 448 372 383 c 0,17,18
 372 340 372 340 350 301.5 c 128,-1,19
 328 263 328 263 281 215 c 2,20,-1
 162 92 l 1,21,-1
 378 92 l 1,22,-1
 378 0 l 1,23,-1
 23 0 l 1,24,-1
 23 84 l 1,0,-1
EndSplineSet
Validated: 1
EndChar

StartChar: uni2083
Encoding: 8323 8323 857
Width: 425
GlyphClass: 1
Flags: W
LayerCount: 2
Fore
SplineSet
83 28 m 128,-1,1
 30 65 30 65 16 123 c 1,2,-1
 111 156 l 1,3,4
 124 123 124 123 147.5 106.5 c 128,-1,5
 171 90 171 90 202 90 c 0,6,7
 240 90 240 90 262.5 111.5 c 128,-1,8
 285 133 285 133 285 169 c 0,9,10
 285 204 285 204 263 225 c 128,-1,11
 241 246 241 246 202 246 c 0,12,13
 171 246 171 246 143 233 c 1,14,-1
 118 285 l 1,15,-1
 251 431 l 1,16,-1
 49 431 l 1,17,-1
 49 521 l 1,18,-1
 373 521 l 1,19,-1
 373 437 l 1,20,-1
 272 322 l 1,21,22
 328 313 328 313 361 272.5 c 128,-1,23
 394 232 394 232 394 172 c 0,24,25
 394 121 394 121 369 79.5 c 128,-1,26
 344 38 344 38 300 14.5 c 128,-1,27
 256 -9 256 -9 202 -9 c 0,28,0
 136 -9 136 -9 83 28 c 128,-1,1
EndSplineSet
Validated: 1
EndChar

StartChar: uni2084
Encoding: 8324 8324 858
Width: 474
GlyphClass: 1
Flags: W
LayerCount: 2
Fore
SplineSet
262 112 m 1,0,-1
 30 112 l 1,1,-1
 30 204 l 1,2,-1
 254 521 l 1,3,-1
 370 521 l 1,4,-1
 370 203 l 1,5,-1
 450 203 l 1,6,-1
 450 112 l 1,7,-1
 370 112 l 1,8,-1
 370 0 l 1,9,-1
 262 0 l 1,10,-1
 262 112 l 1,0,-1
262 203 m 1,11,-1
 262 389 l 1,12,-1
 135 203 l 1,13,-1
 262 203 l 1,11,-1
EndSplineSet
Validated: 1
EndChar

StartChar: uni2085
Encoding: 8325 8325 859
Width: 425
GlyphClass: 1
Flags: W
LayerCount: 2
Fore
SplineSet
92 26.5 m 128,-1,1
 40 62 40 62 27 120 c 1,2,-1
 123 152 l 1,3,4
 133 121 133 121 156 105.5 c 128,-1,5
 179 90 179 90 208 90 c 0,6,7
 244 90 244 90 266.5 112.5 c 128,-1,8
 289 135 289 135 289 171 c 256,9,10
 289 207 289 207 266.5 230 c 128,-1,11
 244 253 244 253 208 253 c 0,12,13
 184 253 184 253 164 242 c 128,-1,14
 144 231 144 231 135 209 c 1,15,-1
 46 230 l 1,16,-1
 89 521 l 1,17,-1
 379 521 l 1,18,-1
 379 431 l 1,19,-1
 166 431 l 1,20,-1
 152 326 l 1,21,22
 182 343 182 343 229 343 c 0,23,24
 306 343 306 343 352 295.5 c 128,-1,25
 398 248 398 248 398 171 c 0,26,27
 398 121 398 121 373 79.5 c 128,-1,28
 348 38 348 38 305 14.5 c 128,-1,29
 262 -9 262 -9 208 -9 c 0,30,0
 144 -9 144 -9 92 26.5 c 128,-1,1
EndSplineSet
Validated: 1
EndChar

StartChar: uni2086
Encoding: 8326 8326 860
Width: 420
GlyphClass: 1
Flags: W
LayerCount: 2
Fore
SplineSet
115 13.5 m 128,-1,1
 73 36 73 36 49 76 c 128,-1,2
 25 116 25 116 25 165 c 0,3,4
 25 208 25 208 40 246 c 128,-1,5
 55 284 55 284 93 333 c 2,6,-1
 238 521 l 1,7,-1
 368 521 l 1,8,-1
 221 335 l 1,9,-1
 230 335 l 2,10,11
 277 335 277 335 315 313 c 128,-1,12
 353 291 353 291 374.5 253.5 c 128,-1,13
 396 216 396 216 396 170 c 0,14,15
 396 119 396 119 372.5 78 c 128,-1,16
 349 37 349 37 306.5 14 c 128,-1,17
 264 -9 264 -9 211 -9 c 0,18,0
 157 -9 157 -9 115 13.5 c 128,-1,1
156 111.5 m 128,-1,20
 178 90 178 90 211 90 c 0,21,22
 243 90 243 90 265 111.5 c 128,-1,23
 287 133 287 133 287 168 c 0,24,25
 287 202 287 202 265 223.5 c 128,-1,26
 243 245 243 245 211 245 c 0,27,28
 178 245 178 245 156 223.5 c 128,-1,29
 134 202 134 202 134 168 c 0,30,19
 134 133 134 133 156 111.5 c 128,-1,20
EndSplineSet
Validated: 1
EndChar

StartChar: uni2087
Encoding: 8327 8327 861
Width: 386
GlyphClass: 1
Flags: W
LayerCount: 2
Fore
SplineSet
256 431 m 1,0,-1
 15 431 l 1,1,-1
 15 522 l 1,2,-1
 370 522 l 1,3,-1
 370 431 l 1,4,-1
 166 0 l 1,5,-1
 45 0 l 1,6,-1
 256 431 l 1,0,-1
EndSplineSet
Validated: 1
EndChar

